<svg width="717" height="545" viewBox="0 0 717 545" fill="none" xmlns="http://www.w3.org/2000/svg">
<path d="M201.573 21.1287C205.446 17.1916 212.372 16.389 217.043 19.336L709.009 316C713.68 318.947 712.882 337.36 709.009 341.297L512.65 540.905C508.777 544.842 501.851 545.645 497.18 542.697L6.65793 233.201C1.98711 230.254 2.12696 213.937 6.00003 210L201.573 21.1287Z" fill="url(#paint0_linear_414_8912)"/>
<g clip-path="url(#clip0_414_8912)">
<rect width="600" height="300" rx="10" transform="matrix(0.845728 0.533615 -0.695286 0.718733 208.586 0)" fill="#D4D1ED"/>
<rect width="600" height="300" rx="10" transform="matrix(0.845728 0.533615 -0.695286 0.718733 208.586 0)" fill="white" fill-opacity="0.2"/>
<g filter="url(#filter0_bd_414_8912)">
<rect width="600" height="30" transform="matrix(0.845728 0.533615 -0.695286 0.718733 208.586 0)" fill="white" fill-opacity="0.2" shape-rendering="crispEdges"/>
</g>
<rect width="100" height="8" rx="4" transform="matrix(0.845728 0.533615 -0.695286 0.718733 217.852 18.5781)" fill="white" fill-opacity="0.2"/>
<rect width="50" height="8" rx="4" transform="matrix(0.845728 0.533615 -0.695286 0.718733 310.882 77.2754)" fill="white" fill-opacity="0.2"/>
<rect width="50" height="8" rx="4" transform="matrix(0.845728 0.533615 -0.695286 0.718733 361.626 109.293)" fill="white" fill-opacity="0.2"/>
<rect width="50" height="8" rx="4" transform="matrix(0.845728 0.533615 -0.695286 0.718733 200.47 36.5469)" fill="white" fill-opacity="0.2"/>
<rect width="50" height="8" rx="4" transform="matrix(0.845728 0.533615 -0.695286 0.718733 293.5 95.2441)" fill="white" fill-opacity="0.2"/>
<rect width="50" height="8" rx="4" transform="matrix(0.845728 0.533615 -0.695286 0.718733 386.53 153.942)" fill="white" fill-opacity="0.2"/>
<rect width="50" height="8" rx="4" transform="matrix(0.845728 0.533615 -0.695286 0.718733 479.56 212.64)" fill="white" fill-opacity="0.2"/>
<rect width="50" height="8" rx="4" transform="matrix(0.845728 0.533615 -0.695286 0.718733 572.59 271.337)" fill="white" fill-opacity="0.2"/>
<rect width="50" height="8" rx="4" transform="matrix(0.845728 0.533615 -0.695286 0.718733 175.44 62.4209)" fill="white" fill-opacity="0.2"/>
<rect width="50" height="8" rx="4" transform="matrix(0.845728 0.533615 -0.695286 0.718733 268.47 121.118)" fill="white" fill-opacity="0.2"/>
<rect width="50" height="8" rx="4" transform="matrix(0.845728 0.533615 -0.695286 0.718733 361.5 179.816)" fill="white" fill-opacity="0.2"/>
<rect width="50" height="8" rx="4" transform="matrix(0.845728 0.533615 -0.695286 0.718733 454.53 238.514)" fill="white" fill-opacity="0.2"/>
<rect width="50" height="8" rx="4" transform="matrix(0.845728 0.533615 -0.695286 0.718733 547.56 297.211)" fill="white" fill-opacity="0.2"/>
<rect width="50" height="8" rx="4" transform="matrix(0.845728 0.533615 -0.695286 0.718733 140.675 98.3574)" fill="white" fill-opacity="0.2"/>
<rect width="50" height="8" rx="4" transform="matrix(0.845728 0.533615 -0.695286 0.718733 233.705 157.055)" fill="white" fill-opacity="0.2"/>
<rect width="50" height="8" rx="4" transform="matrix(0.845728 0.533615 -0.695286 0.718733 326.735 215.753)" fill="white" fill-opacity="0.2"/>
<rect width="50" height="8" rx="4" transform="matrix(0.845728 0.533615 -0.695286 0.718733 419.766 274.45)" fill="white" fill-opacity="0.2"/>
<rect width="50" height="8" rx="4" transform="matrix(0.845728 0.533615 -0.695286 0.718733 512.795 333.147)" fill="white" fill-opacity="0.2"/>
<rect width="50" height="8" rx="4" transform="matrix(0.845728 0.533615 -0.695286 0.718733 105.911 134.294)" fill="white" fill-opacity="0.2"/>
<rect width="50" height="8" rx="4" transform="matrix(0.845728 0.533615 -0.695286 0.718733 198.941 192.991)" fill="white" fill-opacity="0.2"/>
<rect width="50" height="8" rx="4" transform="matrix(0.845728 0.533615 -0.695286 0.718733 291.971 251.689)" fill="white" fill-opacity="0.2"/>
<rect width="50" height="8" rx="4" transform="matrix(0.845728 0.533615 -0.695286 0.718733 385.001 310.387)" fill="white" fill-opacity="0.2"/>
<rect width="50" height="8" rx="4" transform="matrix(0.845728 0.533615 -0.695286 0.718733 478.031 369.084)" fill="white" fill-opacity="0.2"/>
<rect width="50" height="8" rx="4" transform="matrix(0.845728 0.533615 -0.695286 0.718733 71.1467 170.231)" fill="white" fill-opacity="0.2"/>
<rect width="50" height="8" rx="4" transform="matrix(0.845728 0.533615 -0.695286 0.718733 164.177 228.929)" fill="white" fill-opacity="0.2"/>
<rect width="50" height="8" rx="4" transform="matrix(0.845728 0.533615 -0.695286 0.718733 257.207 287.627)" fill="white" fill-opacity="0.2"/>
<rect width="50" height="8" rx="4" transform="matrix(0.845728 0.533615 -0.695286 0.718733 350.237 346.324)" fill="white" fill-opacity="0.2"/>
<rect width="50" height="8" rx="4" transform="matrix(0.845728 0.533615 -0.695286 0.718733 443.267 405.021)" fill="white" fill-opacity="0.2"/>
<rect width="50" height="8" rx="4" transform="matrix(0.845728 0.533615 -0.695286 0.718733 36.814 205.944)" fill="white" fill-opacity="0.2"/>
<rect width="50" height="8" rx="4" transform="matrix(0.845728 0.533615 -0.695286 0.718733 129.844 264.642)" fill="white" fill-opacity="0.2"/>
<rect width="50" height="8" rx="4" transform="matrix(0.845728 0.533615 -0.695286 0.718733 222.874 323.34)" fill="white" fill-opacity="0.2"/>
<rect width="50" height="8" rx="4" transform="matrix(0.845728 0.533615 -0.695286 0.718733 315.904 382.037)" fill="white" fill-opacity="0.2"/>
<rect width="50" height="8" rx="4" transform="matrix(0.845728 0.533615 -0.695286 0.718733 408.934 440.734)" fill="white" fill-opacity="0.2"/>
<rect width="600" height="1" transform="matrix(0.845728 0.533615 -0.695286 0.718733 173.821 35.9365)" fill="white" fill-opacity="0.2" style="mix-blend-mode:overlay"/>
<rect width="600" height="1" transform="matrix(0.845728 0.533615 -0.695286 0.718733 139.057 71.873)" fill="white" fill-opacity="0.2" style="mix-blend-mode:overlay"/>
<rect width="600" height="1" transform="matrix(0.845728 0.533615 -0.695286 0.718733 104.293 107.81)" fill="white" fill-opacity="0.2" style="mix-blend-mode:overlay"/>
<rect width="600" height="1" transform="matrix(0.845728 0.533615 -0.695286 0.718733 69.5286 143.747)" fill="white" fill-opacity="0.2" style="mix-blend-mode:overlay"/>
<rect width="600" height="1" transform="matrix(0.845728 0.533615 -0.695286 0.718733 34.7642 179.684)" fill="white" fill-opacity="0.2" style="mix-blend-mode:overlay"/>
</g>
<defs>
<filter id="filter0_bd_414_8912" x="141.267" y="-46.46" width="621.215" height="434.65" filterUnits="userSpaceOnUse" color-interpolation-filters="sRGB">
<feFlood flood-opacity="0" result="BackgroundImageFix"/>
<feGaussianBlur in="BackgroundImage" stdDeviation="23.23"/>
<feComposite in2="SourceAlpha" operator="in" result="effect1_backgroundBlur_414_8912"/>
<feColorMatrix in="SourceAlpha" type="matrix" values="0 0 0 0 0 0 0 0 0 0 0 0 0 0 0 0 0 0 127 0" result="hardAlpha"/>
<feOffset dy="7.74"/>
<feGaussianBlur stdDeviation="7.745"/>
<feComposite in2="hardAlpha" operator="out"/>
<feColorMatrix type="matrix" values="0 0 0 0 0.752896 0 0 0 0 0.732188 0 0 0 0 0.8875 0 0 0 0.15 0"/>
<feBlend mode="normal" in2="effect1_backgroundBlur_414_8912" result="effect2_dropShadow_414_8912"/>
<feBlend mode="normal" in="SourceGraphic" in2="effect2_dropShadow_414_8912" result="shape"/>
</filter>
<linearGradient id="paint0_linear_414_8912" x1="681.701" y1="211" x2="358.686" y2="544.474" gradientUnits="userSpaceOnUse">
<stop stop-color="#E4E1F4"/>
<stop offset="1" stop-color="#D6D2EF"/>
</linearGradient>
<clipPath id="clip0_414_8912">
<rect width="600" height="300" rx="10" transform="matrix(0.845728 0.533615 -0.695286 0.718733 208.586 0)" fill="white"/>
</clipPath>
</defs>
</svg>
