<svg width="871" height="671" viewBox="0 0 871 671" fill="none" xmlns="http://www.w3.org/2000/svg">
<path d="M271.161 20.1874C275.001 16.2179 281.901 15.3891 286.571 18.3362L864 370.5C868.671 373.447 867.011 389.748 863.171 393.718L598.962 666.836C595.122 670.806 588.223 671.634 583.552 668.687L8.45701 305.829C3.78618 302.882 1.65988 286.469 5.49983 282.5L271.161 20.1874Z" fill="url(#paint0_linear_414_8889)"/>
<g clip-path="url(#clip0_414_8889)">
<rect width="700" height="400" rx="10" transform="matrix(0.845728 0.533615 -0.695286 0.718733 278.114 0)" fill="white" fill-opacity="0.4"/>
<rect width="700" height="380" transform="matrix(0.845728 0.533615 -0.695286 0.718733 264.208 14.375)" fill="#8D8DF7"/>
<rect width="700" height="20" transform="matrix(0.845728 0.533615 -0.695286 0.718733 278.114 0)" fill="#394B59"/>
<circle r="4" transform="matrix(0.845728 0.533615 -0.695286 0.718733 291.459 19.9938)" fill="#FF7373"/>
<circle r="4" transform="matrix(0.845728 0.533615 -0.695286 0.718733 303.299 27.4645)" fill="#FFB366"/>
<circle r="4" transform="matrix(0.845728 0.533615 -0.695286 0.718733 315.139 34.9352)" fill="#3DCC91"/>
<path fill-rule="evenodd" clip-rule="evenodd" d="M-104.334 -125.564L-80.1154 -66.1277C-55.2942 -7.31412 -5.65192 110.313 91.6155 178.709C188.28 247.728 333.172 266.893 439.483 325.941C545.19 385.613 611.712 485.791 713.199 549.825C814.687 613.858 951.139 641.748 1019.37 655.692L1086.99 670.26L904.929 858.46L854.185 826.444C803.441 794.427 701.954 730.393 600.467 666.359C498.979 602.325 397.492 538.292 296.005 474.258C194.517 410.224 93.0299 346.191 -8.45745 282.157C-109.945 218.123 -211.432 154.089 -262.176 122.072L-312.919 90.0555L-104.334 -125.564Z" fill="white" fill-opacity="0.7"/>
<g filter="url(#filter0_bd_414_8889)">
<rect width="700" height="30" transform="matrix(-0.845728 -0.533615 -0.695286 0.718733 856.218 387.905)" fill="#1A2EE3" fill-opacity="0.2"/>
</g>
<rect width="50" height="8" rx="4" transform="matrix(0.845728 0.533615 -0.695286 0.718733 301.384 50.5625)" fill="white" fill-opacity="0.1"/>
<rect width="50" height="8" rx="4" transform="matrix(0.845728 0.533615 -0.695286 0.718733 352.128 82.5791)" fill="white" fill-opacity="0.1"/>
<rect width="50" height="8" rx="4" transform="matrix(0.845728 0.533615 -0.695286 0.718733 402.871 114.597)" fill="white" fill-opacity="0.1"/>
<rect width="50" height="8" rx="4" transform="matrix(0.845728 0.533615 -0.695286 0.718733 453.615 146.613)" fill="white" fill-opacity="0.1"/>
<rect width="50" height="8" rx="4" transform="matrix(0.845728 0.533615 -0.695286 0.718733 504.359 178.63)" fill="white" fill-opacity="0.1"/>
<rect width="8" height="8" rx="4" transform="matrix(0.845728 0.533615 -0.695286 0.718733 784.294 355.257)" fill="white" fill-opacity="0.1"/>
<rect width="8" height="8" rx="4" transform="matrix(0.845728 0.533615 -0.695286 0.718733 799.518 364.862)" fill="white" fill-opacity="0.1"/>
<rect width="100" height="16" rx="8" transform="matrix(0.845728 0.533615 -0.695286 0.718733 250.872 98.5537)" fill="white" fill-opacity="0.1"/>
</g>
<defs>
<filter id="filter0_bd_414_8889" x="196.893" y="-32.0817" width="705.782" height="488.005" filterUnits="userSpaceOnUse" color-interpolation-filters="sRGB">
<feFlood flood-opacity="0" result="BackgroundImageFix"/>
<feGaussianBlur in="BackgroundImage" stdDeviation="23.2283"/>
<feComposite in2="SourceAlpha" operator="in" result="effect1_backgroundBlur_414_8889"/>
<feColorMatrix in="SourceAlpha" type="matrix" values="0 0 0 0 0 0 0 0 0 0 0 0 0 0 0 0 0 0 127 0" result="hardAlpha"/>
<feOffset dy="7.74"/>
<feGaussianBlur stdDeviation="7.74278"/>
<feColorMatrix type="matrix" values="0 0 0 0 0.161692 0 0 0 0 0.154618 0 0 0 0 0.508333 0 0 0 0.15 0"/>
<feBlend mode="normal" in2="effect1_backgroundBlur_414_8889" result="effect2_dropShadow_414_8889"/>
<feBlend mode="normal" in="SourceGraphic" in2="effect2_dropShadow_414_8889" result="shape"/>
</filter>
<linearGradient id="paint0_linear_414_8889" x1="856" y1="245.5" x2="425.5" y2="694.5" gradientUnits="userSpaceOnUse">
<stop/>
<stop offset="0.248166" stop-color="#646BCF"/>
<stop offset="0.466089" stop-color="#8B8BF4"/>
<stop offset="0.802305" stop-color="#D3D2F5"/>
<stop offset="1" stop-color="#D9D8FA"/>
</linearGradient>
<clipPath id="clip0_414_8889">
<rect width="700" height="400" rx="10" transform="matrix(0.845728 0.533615 -0.695286 0.718733 278.114 0)" fill="white"/>
</clipPath>
</defs>
</svg>
