<svg width="146" height="93" viewBox="0 0 146 93" fill="none" xmlns="http://www.w3.org/2000/svg">
<g clip-path="url(#clip0_345_9079)">
<path d="M25.8214 91.8341C27.2058 90.6643 28.0467 88.8163 27.8262 87.0173C27.6057 85.2182 26.2398 83.5644 24.468 83.1823C22.6962 82.8003 20.6765 83.8578 20.1383 85.5886C19.8422 82.2517 19.5009 78.7751 17.7268 75.9334C16.1204 73.3604 13.3381 71.5193 10.3227 71.1899C7.30736 70.8605 4.13254 72.1046 2.25196 74.4846C0.371374 76.8646 -0.0890824 80.3246 1.22803 83.057C2.1983 85.0699 3.98588 86.568 5.85882 87.7867C11.911 91.6916 19.1697 93.2796 26.2995 92.2584L25.8214 91.8341Z" fill="#F2F2F2"/>
<path d="M5.23371 72.1735C7.72178 74.2001 10.0043 76.4667 12.0483 78.9404C14.0926 81.4116 15.8924 84.0753 17.4224 86.8941C18.2776 88.4753 19.0459 90.1019 19.7238 91.7669C19.862 92.1056 19.312 92.253 19.1753 91.9181C17.9747 88.9828 16.4892 86.1723 14.7403 83.5268C12.9998 80.8909 11.0078 78.43 8.79216 76.1787C7.53899 74.906 6.21679 73.7032 4.83155 72.5757C4.54762 72.3445 4.95212 71.9442 5.23371 72.1735Z" fill="white"/>
<path d="M108.438 0H33.4624C33.1767 0.000317028 32.9028 0.113958 32.7008 0.315992C32.4987 0.518026 32.3851 0.791953 32.3848 1.07767V51.8822C32.3851 52.1679 32.4987 52.4419 32.7008 52.6439C32.9028 52.8459 33.1767 52.9596 33.4624 52.9599H108.438C108.723 52.9596 108.997 52.8459 109.199 52.6439C109.401 52.4419 109.515 52.1679 109.515 51.8822V1.07767C109.515 0.791953 109.401 0.518026 109.199 0.315992C108.997 0.113958 108.723 0.000317028 108.438 0ZM109.207 51.8822C109.207 52.0863 109.126 52.2821 108.982 52.4264C108.837 52.5708 108.642 52.6519 108.438 52.652H33.4624C33.2583 52.6519 33.0626 52.5708 32.9182 52.4264C32.7739 52.2821 32.6928 52.0863 32.6927 51.8822V1.07767C32.6928 0.873542 32.7739 0.677798 32.9182 0.533456C33.0626 0.389115 33.2583 0.307988 33.4624 0.307906H108.438C108.642 0.307988 108.837 0.389115 108.982 0.533456C109.126 0.677798 109.207 0.873542 109.207 1.07767V51.8822Z" fill="#3F3D56"/>
<path d="M109.361 4.31689H32.5386V4.6248H109.361V4.31689Z" fill="#3F3D56"/>
<path d="M35.1559 3.23318C35.6661 3.23318 36.0796 2.81962 36.0796 2.30946C36.0796 1.79931 35.6661 1.38574 35.1559 1.38574C34.6457 1.38574 34.2322 1.79931 34.2322 2.30946C34.2322 2.81962 34.6457 3.23318 35.1559 3.23318Z" fill="#3F3D56"/>
<path d="M37.8117 3.23318C38.3218 3.23318 38.7354 2.81962 38.7354 2.30946C38.7354 1.79931 38.3218 1.38574 37.8117 1.38574C37.3015 1.38574 36.8879 1.79931 36.8879 2.30946C36.8879 2.81962 37.3015 3.23318 37.8117 3.23318Z" fill="#3F3D56"/>
<path d="M40.4672 3.23318C40.9773 3.23318 41.3909 2.81962 41.3909 2.30946C41.3909 1.79931 40.9773 1.38574 40.4672 1.38574C39.957 1.38574 39.5435 1.79931 39.5435 2.30946C39.5435 2.81962 39.957 3.23318 40.4672 3.23318Z" fill="#3F3D56"/>
<path d="M77.416 11.4693H64.4839C64.1981 11.4693 63.924 11.3558 63.7219 11.1537C63.5198 10.9516 63.4062 10.6775 63.4062 10.3916C63.4062 10.1058 63.5198 9.83171 63.7219 9.62961C63.924 9.4275 64.1981 9.31396 64.4839 9.31396H77.416C77.7018 9.31396 77.9759 9.4275 78.178 9.62961C78.3801 9.83171 78.4937 10.1058 78.4937 10.3916C78.4937 10.6775 78.3801 10.9516 78.178 11.1537C77.9759 11.3558 77.7018 11.4693 77.416 11.4693Z" fill="#CCCCCC"/>
<path d="M86.2683 16.7037H55.6316C55.3458 16.7037 55.0717 16.5901 54.8696 16.388C54.6675 16.1859 54.554 15.9118 54.554 15.626C54.554 15.3402 54.6675 15.0661 54.8696 14.864C55.0717 14.6619 55.3458 14.5483 55.6316 14.5483H86.2683C86.5541 14.5483 86.8282 14.6619 87.0303 14.864C87.2324 15.0661 87.346 15.3402 87.346 15.626C87.346 15.9118 87.2324 16.1859 87.0303 16.388C86.8282 16.5901 86.5541 16.7037 86.2683 16.7037Z" fill="#CCCCCC"/>
<path d="M95.4564 48.8728C94.2951 48.8728 93.16 48.5284 92.1944 47.8833C91.2289 47.2381 90.4763 46.3211 90.0319 45.2482C89.5875 44.1754 89.4712 42.9948 89.6978 41.8559C89.9243 40.7169 90.4835 39.6707 91.3047 38.8496C92.1258 38.0285 93.172 37.4693 94.3109 37.2427C95.4499 37.0162 96.6304 37.1324 97.7033 37.5768C98.7762 38.0212 99.6932 38.7738 100.338 39.7393C100.983 40.7049 101.328 41.8401 101.328 43.0013C101.326 44.558 100.707 46.0504 99.6062 47.1511C98.5055 48.2519 97.0131 48.871 95.4564 48.8728ZM95.4564 37.5348C94.3752 37.5348 93.3183 37.8554 92.4194 38.4561C91.5204 39.0568 90.8197 39.9105 90.406 40.9094C89.9923 41.9083 89.884 43.0074 90.0949 44.0678C90.3059 45.1282 90.8265 46.1022 91.591 46.8667C92.3555 47.6313 93.3295 48.1519 94.3899 48.3628C95.4503 48.5737 96.5495 48.4655 97.5483 48.0517C98.5472 47.638 99.401 46.9373 100.002 46.0384C100.602 45.1394 100.923 44.0825 100.923 43.0013C100.921 41.552 100.345 40.1625 99.32 39.1377C98.2952 38.1129 96.9057 37.5365 95.4564 37.5348Z" fill="#3F3D56"/>
<path d="M46.2321 33.1472C45.0708 33.1472 43.9356 32.8028 42.97 32.1577C42.0045 31.5125 41.2519 30.5955 40.8075 29.5227C40.3631 28.4498 40.2469 27.2692 40.4734 26.1303C40.7 24.9913 41.2592 23.9451 42.0803 23.124C42.9014 22.3029 43.9476 21.7437 45.0866 21.5171C46.2255 21.2906 47.4061 21.4068 48.479 21.8512C49.5518 22.2956 50.4688 23.0482 51.114 24.0137C51.7591 24.9793 52.1035 26.1145 52.1035 27.2758C52.1017 28.8324 51.4826 30.3248 50.3819 31.4256C49.2811 32.5263 47.7887 33.1454 46.2321 33.1472ZM46.2321 21.8092C45.1509 21.8092 44.094 22.1298 43.195 22.7305C42.296 23.3312 41.5954 24.1849 41.1816 25.1838C40.7679 26.1827 40.6596 27.2818 40.8706 28.3422C41.0815 29.4026 41.6021 30.3767 42.3666 31.1412C43.1311 31.9057 44.1052 32.4263 45.1656 32.6372C46.226 32.8482 47.3251 32.7399 48.324 32.3262C49.3229 31.9124 50.1766 31.2118 50.7773 30.3128C51.378 29.4138 51.6986 28.3569 51.6986 27.2758C51.6969 25.8264 51.1205 24.437 50.0957 23.4121C49.0708 22.3873 47.6814 21.8109 46.2321 21.8092Z" fill="#3F3D56"/>
<path d="M48.5127 30.3886C48.359 30.3886 48.2115 30.3276 48.1027 30.219C47.9939 30.1104 47.9327 29.963 47.9324 29.8093V26.5149C47.9326 26.3614 47.9937 26.2141 48.1023 26.1055C48.2109 25.9969 48.3581 25.9358 48.5117 25.9357H48.5127C48.6663 25.9358 48.8135 25.9969 48.9221 26.1055C49.0307 26.2141 49.0918 26.3614 49.092 26.5149V29.8093C49.0918 29.9629 49.0307 30.1101 48.9221 30.2187C48.8135 30.3273 48.6663 30.3884 48.5127 30.3886ZM47.0003 30.3886C46.9236 30.3893 46.8475 30.3749 46.7764 30.3462C46.7053 30.3175 46.6406 30.275 46.586 30.2211C46.5314 30.1673 46.488 30.1032 46.4582 30.0325C46.4285 29.9618 46.413 29.886 46.4127 29.8093V28.0347C46.4128 27.8811 46.4739 27.7339 46.5825 27.6253C46.6911 27.5167 46.8383 27.4557 46.9919 27.4555H47.0003C47.1538 27.4557 47.3011 27.5167 47.4097 27.6253C47.5182 27.7339 47.5793 27.8811 47.5795 28.0347V29.8093C47.5793 29.9629 47.5182 30.1101 47.4097 30.2187C47.3011 30.3273 47.1538 30.3884 47.0003 30.3886ZM45.4732 30.3886C45.3194 30.3886 45.172 30.3276 45.0632 30.219C44.9544 30.1104 44.8931 29.963 44.8929 29.8093V24.7429C44.8931 24.5893 44.9542 24.442 45.0628 24.3334C45.1713 24.2248 45.3186 24.1638 45.4722 24.1636H45.4732C45.6268 24.1638 45.774 24.2248 45.8826 24.3334C45.9912 24.442 46.0523 24.5893 46.0524 24.7429V29.8093C46.0523 29.9629 45.9912 30.1101 45.8826 30.2187C45.774 30.3273 45.6268 30.3884 45.4732 30.3886ZM43.9519 30.3886C43.8758 30.3887 43.8003 30.3737 43.73 30.3446C43.6596 30.3155 43.5956 30.2728 43.5418 30.219C43.4879 30.1651 43.4452 30.1012 43.4161 30.0308C43.387 29.9604 43.372 29.885 43.3721 29.8089L43.3727 29.0479C43.3728 28.8943 43.4339 28.747 43.5425 28.6384C43.6512 28.5298 43.7986 28.4689 43.9522 28.4689C44.1058 28.469 44.2531 28.5301 44.3617 28.6388C44.4703 28.7474 44.5312 28.8948 44.5312 29.0484V29.8093C44.531 29.9629 44.4699 30.1101 44.3613 30.2187C44.2527 30.3273 44.1055 30.3884 43.9519 30.3886Z" fill="#8D8DF7"/>
<path d="M135.3 92.2654C134.139 92.2654 133.004 91.921 132.038 91.2758C131.073 90.6307 130.32 89.7137 129.876 88.6408C129.432 87.5679 129.315 86.3874 129.542 85.2484C129.768 84.1095 130.328 83.0633 131.149 82.2422C131.97 81.421 133.016 80.8618 134.155 80.6353C135.294 80.4087 136.474 80.525 137.547 80.9694C138.62 81.4138 139.537 82.1664 140.182 83.1319C140.828 84.0975 141.172 85.2326 141.172 86.3939C141.17 87.9506 140.551 89.443 139.45 90.5437C138.349 91.6444 136.857 92.2636 135.3 92.2654ZM135.3 80.9274C134.219 80.9274 133.162 81.248 132.263 81.8487C131.364 82.4493 130.664 83.3031 130.25 84.302C129.836 85.3008 129.728 86.4 129.939 87.4604C130.15 88.5208 130.67 89.4948 131.435 90.2593C132.2 91.0238 133.174 91.5445 134.234 91.7554C135.294 91.9663 136.393 91.8581 137.392 91.4443C138.391 91.0306 139.245 90.3299 139.846 89.431C140.446 88.532 140.767 87.4751 140.767 86.3939C140.765 84.9446 140.189 83.5551 139.164 82.5303C138.139 81.5055 136.75 80.929 135.3 80.9274Z" fill="#3F3D56"/>
<path d="M136.919 85.3749L135.774 87.1252C135.866 87.2368 135.916 87.3771 135.916 87.5217C135.916 87.6885 135.849 87.8485 135.731 87.9663C135.613 88.0842 135.453 88.1505 135.286 88.1505C135.119 88.1505 134.959 88.0842 134.841 87.9663C134.723 87.8485 134.657 87.6885 134.656 87.5217C134.657 87.4811 134.66 87.4407 134.667 87.4008L133.912 86.9608C133.814 87.0552 133.689 87.1155 133.554 87.1325C133.419 87.1495 133.283 87.1223 133.165 87.0551L132.361 87.8081V88.5588C132.361 88.7072 132.42 88.8495 132.525 88.9546C132.63 89.0597 132.772 89.119 132.921 89.1197H137.679C137.828 89.119 137.97 89.0597 138.075 88.9547C138.18 88.8496 138.24 88.7073 138.24 88.5588V85.775L137.472 85.2637C137.394 85.3237 137.304 85.3649 137.208 85.3842C137.113 85.4035 137.014 85.4003 136.919 85.3749H136.919Z" fill="#8D8DF7"/>
<path d="M133.475 85.8824C133.642 85.8824 133.803 85.9488 133.921 86.0669C134.039 86.185 134.105 86.3452 134.105 86.5122V86.5932L134.893 87.0344C135.006 86.9421 135.147 86.8917 135.292 86.8918C135.338 86.8921 135.384 86.8969 135.429 86.9063L136.576 85.1306C136.519 85.0501 136.481 84.9572 136.466 84.8595C136.452 84.7617 136.461 84.6619 136.492 84.5682C136.523 84.4745 136.576 84.3895 136.646 84.3201C136.717 84.2507 136.802 84.1989 136.897 84.1689C136.991 84.1389 137.091 84.1316 137.188 84.1475C137.286 84.1635 137.378 84.2022 137.458 84.2606C137.538 84.319 137.602 84.3954 137.647 84.4835C137.692 84.5717 137.715 84.6691 137.714 84.7679C137.714 84.818 137.709 84.8679 137.698 84.9166L138.24 85.2793V84.2288C138.24 84.0803 138.18 83.938 138.075 83.8329C137.97 83.7279 137.828 83.6686 137.679 83.668H132.92C132.772 83.6686 132.63 83.7279 132.525 83.833C132.42 83.9381 132.361 84.0804 132.361 84.2288V87.2375L132.885 86.7346C132.85 86.6396 132.839 86.5375 132.852 86.437C132.865 86.3365 132.902 86.2407 132.96 86.1576C133.017 86.0745 133.095 86.0066 133.184 85.9598C133.274 85.9129 133.374 85.8885 133.475 85.8885V85.8824Z" fill="#8D8DF7"/>
<path d="M71.1827 33.1472C70.0215 33.1472 68.8863 32.8028 67.9207 32.1577C66.9552 31.5125 66.2026 30.5955 65.7582 29.5227C65.3138 28.4498 65.1975 27.2692 65.4241 26.1303C65.6507 24.9913 66.2098 23.9451 67.031 23.124C67.8521 22.3029 68.8983 21.7437 70.0373 21.5171C71.1762 21.2906 72.3568 21.4068 73.4296 21.8512C74.5025 22.2956 75.4195 23.0482 76.0647 24.0137C76.7098 24.9793 77.0542 26.1145 77.0542 27.2758C77.0524 28.8324 76.4333 30.3248 75.3325 31.4256C74.2318 32.5263 72.7394 33.1454 71.1827 33.1472ZM71.1827 21.8092C70.1016 21.8092 69.0447 22.1298 68.1457 22.7305C67.2467 23.3312 66.5461 24.1849 66.1323 25.1838C65.7186 26.1827 65.6103 27.2818 65.8212 28.3422C66.0322 29.4026 66.5528 30.3767 67.3173 31.1412C68.0818 31.9057 69.0559 32.4263 70.1163 32.6372C71.1767 32.8482 72.2758 32.7399 73.2747 32.3262C74.2736 31.9124 75.1273 31.2118 75.728 30.3128C76.3287 29.4138 76.6493 28.3569 76.6493 27.2758C76.6476 25.8264 76.0712 24.437 75.0463 23.4121C74.0215 22.3873 72.632 21.8109 71.1827 21.8092Z" fill="#3F3D56"/>
<path d="M68.0633 29.4042C67.979 29.4042 67.8965 29.3791 67.8263 29.3323C67.7561 29.2854 67.7014 29.2188 67.6691 29.1409C67.6367 29.0629 67.6282 28.9772 67.6446 28.8944C67.661 28.8116 67.7015 28.7355 67.7611 28.6758L69.9305 26.5002C69.9643 26.4662 70.0045 26.4392 70.0487 26.4208C70.093 26.4024 70.1405 26.393 70.1885 26.3931H70.1887C70.2366 26.393 70.284 26.4023 70.3283 26.4207C70.3726 26.439 70.4127 26.4659 70.4465 26.4999L71.4527 27.506C71.4729 27.5264 71.497 27.5426 71.5236 27.5536C71.5502 27.5646 71.5786 27.5702 71.6074 27.5701H71.6075C71.6362 27.5702 71.6647 27.5646 71.6913 27.5536C71.7178 27.5425 71.7419 27.5264 71.7622 27.506L73.1827 26.083C73.1895 26.0763 73.1948 26.0682 73.1985 26.0594C73.2022 26.0505 73.204 26.041 73.204 26.0315C73.204 26.0219 73.2021 26.0124 73.1984 26.0036C73.1948 25.9947 73.1894 25.9867 73.1826 25.9799L72.723 25.5211C72.6923 25.4905 72.6715 25.4515 72.663 25.4091C72.6545 25.3666 72.6588 25.3226 72.6754 25.2826C72.6919 25.2426 72.72 25.2084 72.7559 25.1843C72.7919 25.1603 72.8342 25.1475 72.8775 25.1475H74.51C74.568 25.1475 74.6236 25.1706 74.6646 25.2116C74.7057 25.2526 74.7287 25.3082 74.7288 25.3662V26.9977C74.7288 27.041 74.716 27.0833 74.6919 27.1193C74.6679 27.1552 74.6337 27.1833 74.5938 27.1999C74.5538 27.2164 74.5098 27.2208 74.4674 27.2123C74.4249 27.2039 74.3859 27.183 74.3553 27.1524L73.895 26.6921C73.8882 26.6853 73.8802 26.6799 73.8714 26.6763C73.8625 26.6726 73.853 26.6707 73.8435 26.6707C73.8339 26.6707 73.8244 26.6726 73.8155 26.6763C73.8067 26.6799 73.7987 26.6853 73.7919 26.6921L71.8683 28.6144C71.8345 28.6483 71.7943 28.6753 71.7501 28.6936C71.7058 28.7119 71.6584 28.7213 71.6105 28.7211H71.6105C71.5626 28.7213 71.5151 28.7119 71.4709 28.6936C71.4266 28.6752 71.3864 28.6483 71.3527 28.6143L70.346 27.6077C70.3043 27.5679 70.2489 27.5457 70.1913 27.5457C70.1337 27.5457 70.0783 27.5679 70.0366 27.6077L68.3652 29.2791C68.3257 29.3188 68.2786 29.3504 68.2268 29.3719C68.175 29.3933 68.1194 29.4043 68.0633 29.4042Z" fill="#8D8DF7"/>
<path d="M71.1827 48.5427C70.0215 48.5427 68.8863 48.1983 67.9207 47.5532C66.9552 46.908 66.2026 45.991 65.7582 44.9182C65.3138 43.8453 65.1975 42.6647 65.4241 41.5258C65.6507 40.3868 66.2098 39.3407 67.031 38.5195C67.8521 37.6984 68.8983 37.1392 70.0373 36.9126C71.1762 36.6861 72.3568 36.8023 73.4296 37.2467C74.5025 37.6911 75.4195 38.4437 76.0647 39.4093C76.7098 40.3748 77.0542 41.51 77.0542 42.6713C77.0524 44.2279 76.4333 45.7203 75.3325 46.8211C74.2318 47.9218 72.7394 48.5409 71.1827 48.5427Z" fill="#E6E6E6"/>
<path d="M95.5074 32.6853C94.3462 32.6853 93.211 32.3409 92.2454 31.6958C91.2799 31.0506 90.5273 30.1336 90.0829 29.0607C89.6385 27.9879 89.5223 26.8073 89.7488 25.6684C89.9754 24.5294 90.5346 23.4832 91.3557 22.6621C92.1768 21.841 93.223 21.2818 94.362 21.0552C95.5009 20.8287 96.6815 20.9449 97.7544 21.3893C98.8272 21.8337 99.7442 22.5863 100.389 23.5518C101.035 24.5174 101.379 25.6526 101.379 26.8138C101.377 28.3705 100.758 29.8629 99.6573 30.9636C98.5565 32.0644 97.0641 32.6835 95.5074 32.6853Z" fill="#E6E6E6"/>
<path d="M46.2321 36.7998C45.2243 36.8011 44.2336 37.0608 43.3547 37.5542C44.6248 37.6664 45.8157 38.219 46.7215 39.1163C47.6274 40.0136 48.1911 41.1993 48.3153 42.4682C48.4395 43.7372 48.1163 45.0097 47.4017 46.0656C46.6871 47.1215 45.6259 47.8945 44.4017 48.2508C44.631 48.3269 44.865 48.3881 45.1021 48.4341C45.4743 48.5073 45.8528 48.5439 46.2321 48.5434C47.7894 48.5434 49.2829 47.9247 50.3841 46.8236C51.4853 45.7224 52.1039 44.2289 52.1039 42.6716C52.1039 41.1143 51.4853 39.6208 50.3841 38.5196C49.2829 37.4184 47.7894 36.7998 46.2321 36.7998Z" fill="#E6E6E6"/>
<path d="M44.0045 37.2398C43.6325 37.1653 43.2539 37.1281 42.8745 37.1289C41.3648 37.1274 39.9123 37.7068 38.8182 38.747C37.7241 39.7873 37.0722 41.2087 36.9977 42.7165C36.9231 44.2244 37.4316 45.7032 38.4177 46.8463C39.4039 47.9894 40.7921 48.7093 42.2946 48.8566C43.7971 49.004 45.2987 48.5676 46.4882 47.6379C47.6776 46.7082 48.4638 45.3564 48.6836 43.8628C48.9035 42.3692 48.5402 40.8482 47.6691 39.6152C46.798 38.3822 45.4858 37.5316 44.0045 37.2398ZM44.4018 48.2505C43.6498 48.4692 42.8597 48.5238 42.0848 48.4107C41.3099 48.2975 40.5683 48.0192 39.9103 47.5946C39.2524 47.17 38.6933 46.609 38.2709 45.9495C37.8486 45.2901 37.5728 44.5476 37.4623 43.7723C37.3518 42.997 37.4092 42.2071 37.6305 41.4559C37.8518 40.7047 38.2319 40.0098 38.7451 39.4183C39.2583 38.8268 39.8926 38.3524 40.605 38.0273C41.3174 37.7021 42.0914 37.5339 42.8745 37.5338C43.0362 37.5338 43.1963 37.5415 43.3548 37.5538C44.6249 37.6661 45.8158 38.2186 46.7216 39.1159C47.6274 40.0133 48.1912 41.1989 48.3154 42.4679C48.4396 43.7368 48.1164 45.0093 47.4018 46.0652C46.6871 47.1211 45.626 47.8941 44.4018 48.2505Z" fill="#3F3D56"/>
<path d="M46.2932 41.9675C46.0991 41.1169 45.5754 40.378 44.8371 39.9132C44.0987 39.4483 43.2061 39.2954 42.3551 39.488C42.272 39.507 42.1859 39.5303 42.1101 39.5537L42.8948 43.0016L46.3427 42.2184C46.3282 42.1382 46.3121 42.0507 46.2932 41.9675Z" fill="#8D8DF7"/>
<path d="M45.9592 42.8234L42.5098 43.6066L41.7266 40.1587C41.1252 40.3448 40.5897 40.6994 40.1837 41.1805C39.7777 41.6617 39.5182 42.2491 39.4359 42.8733C39.3537 43.4974 39.4521 44.1321 39.7195 44.702C39.987 45.2719 40.4123 45.7532 40.9449 46.0887C41.4776 46.4243 42.0953 46.6001 42.7248 46.5953C43.3543 46.5905 43.9692 46.4053 44.4967 46.0616C45.0242 45.7179 45.442 45.2302 45.7007 44.6562C45.9594 44.0823 46.0481 43.4462 45.9563 42.8234H45.9592Z" fill="#8D8DF7"/>
<path d="M106.572 70.426C105.411 70.426 104.275 70.0816 103.31 69.4365C102.344 68.7913 101.592 67.8743 101.147 66.8015C100.703 65.7286 100.587 64.548 100.813 63.4091C101.04 62.2701 101.599 61.2239 102.42 60.4028C103.241 59.5817 104.287 59.0225 105.426 58.7959C106.565 58.5694 107.746 58.6856 108.819 59.13C109.892 59.5744 110.809 60.327 111.454 61.2926C112.099 62.2581 112.443 63.3933 112.443 64.5546C112.442 66.1112 111.822 67.6036 110.722 68.7043C109.621 69.8051 108.129 70.4242 106.572 70.426ZM106.572 59.088C105.491 59.088 104.434 59.4086 103.535 60.0093C102.636 60.61 101.935 61.4637 101.521 62.4626C101.108 63.4615 100.999 64.5606 101.21 65.621C101.421 66.6814 101.942 67.6555 102.706 68.42C103.471 69.1845 104.445 69.7051 105.505 69.916C106.566 70.127 107.665 70.0187 108.664 69.605C109.663 69.1912 110.516 68.4906 111.117 67.5916C111.718 66.6926 112.038 65.6357 112.038 64.5546C112.037 63.1052 111.46 61.7158 110.435 60.691C109.411 59.6661 108.021 59.0897 106.572 59.088Z" fill="#3F3D56"/>
<path d="M109.105 66.907C108.891 66.9072 108.68 66.8436 108.502 66.7243C108.323 66.605 108.183 66.4354 108.101 66.2369C108.019 66.0384 107.997 65.82 108.039 65.6091C108.081 65.3983 108.184 65.2047 108.336 65.0526C108.488 64.9005 108.681 64.7969 108.892 64.7548C109.103 64.7128 109.321 64.7341 109.52 64.8162C109.718 64.8984 109.888 65.0375 110.008 65.2161C110.127 65.3947 110.191 65.6048 110.191 65.8197C110.191 66.1078 110.077 66.3842 109.873 66.5881C109.67 66.792 109.394 66.9067 109.105 66.907ZM106.572 66.907C106.284 66.9067 106.008 66.7922 105.805 66.5886C105.601 66.3851 105.486 66.1091 105.486 65.8212V63.2877C105.486 62.9999 105.601 62.7241 105.805 62.5207C106.008 62.3174 106.284 62.2031 106.572 62.2031C106.86 62.2031 107.136 62.3174 107.339 62.5207C107.543 62.7241 107.657 62.9999 107.658 63.2877V65.8212C107.658 66.1091 107.543 66.3851 107.339 66.5886C107.136 66.7922 106.86 66.9067 106.572 66.907ZM104.039 66.907C103.751 66.9067 103.475 66.7921 103.271 66.5884C103.068 66.3847 102.953 66.1085 102.953 65.8204V64.8082C102.953 64.52 103.067 64.2436 103.271 64.0398C103.475 63.8361 103.751 63.7216 104.039 63.7216C104.327 63.7216 104.604 63.8361 104.808 64.0398C105.011 64.2436 105.126 64.52 105.126 64.8082V65.8204C105.126 66.1085 105.011 66.3847 104.807 66.5884C104.604 66.7921 104.327 66.9067 104.039 66.907Z" fill="#8D8DF7"/>
<path d="M32.1193 90.8964L33.909 90.6933L33.9773 83.6938L31.3359 83.9936L32.1193 90.8964Z" fill="#A0616A"/>
<path d="M37.5488 91.9634L31.9243 92.6016L31.6777 90.4285L35.1291 90.0369C35.7055 89.9715 36.2842 90.1377 36.738 90.499C37.1917 90.8603 37.4834 91.387 37.5488 91.9634L37.5488 91.9634Z" fill="#2F2E41"/>
<path d="M13.7144 90.7847L15.5155 90.7845L16.3723 83.8374L13.7141 83.8376L13.7144 90.7847Z" fill="#A0616A"/>
<path d="M18.989 92.457L13.3284 92.4573L13.3283 90.2702L16.8019 90.2701C17.3819 90.2701 17.9382 90.5004 18.3484 90.9106C18.7585 91.3207 18.989 91.877 18.989 92.457L18.989 92.457Z" fill="#2F2E41"/>
<path d="M26.6368 59.7174L27.6652 63.0625L33.2478 75.1432L34.7169 86.6023L31.338 86.7492L29.2812 76.1715L22.2294 68.5321L16.0591 88.5121L13.2678 88.2183C13.2678 88.2183 15.6184 62.3618 18.8505 59.7174C18.8505 59.7174 24.1393 57.2199 26.6368 59.7174Z" fill="#2F2E41"/>
<path d="M22.0751 45.284C24.0679 45.284 25.6834 43.6685 25.6834 41.6757C25.6834 39.6829 24.0679 38.0674 22.0751 38.0674C20.0823 38.0674 18.4668 39.6829 18.4668 41.6757C18.4668 43.6685 20.0823 45.284 22.0751 45.284Z" fill="#A0616A"/>
<path d="M27.0041 60.3788C27.0041 60.3788 27.4449 45.3938 21.2746 46.4222C15.1043 47.4506 17.6752 61.9214 17.6752 61.9214C17.6752 61.9214 18.9974 64.5658 22.2295 61.6276C25.4616 58.6893 27.0041 60.3788 27.0041 60.3788Z" fill="#8D8DF7"/>
<path d="M39.7781 47.9058C39.6622 48.088 39.5078 48.2427 39.3258 48.3589C39.1437 48.475 38.9384 48.5499 38.7242 48.5781C38.5101 48.6063 38.2924 48.5872 38.0864 48.5222C37.8805 48.4572 37.6913 48.3478 37.5322 48.2017L32.9104 50.6918L33.1524 47.9744L37.5042 46.0265C37.7673 45.7754 38.1133 45.6296 38.4767 45.6167C38.8401 45.6037 39.1956 45.7245 39.4759 45.9561C39.7561 46.1878 39.9417 46.5142 39.9974 46.8735C40.0531 47.2329 39.9751 47.6001 39.7781 47.9058L39.7781 47.9058Z" fill="#A0616A"/>
<path d="M22.0405 48.2519L29.5428 49.52L36.2659 46.3462L37.2867 48.5288L29.9267 53.2167C29.9267 53.2167 22.1348 53.7458 20.3333 51.691C19.6578 50.9204 19.5806 50.219 19.7479 49.6434C19.8945 49.1717 20.2085 48.7699 20.6307 48.5136C21.053 48.2573 21.5544 48.1642 22.0405 48.2519Z" fill="#8D8DF7"/>
<path d="M21.6459 45.4671C21.6632 45.4516 21.6766 45.4324 21.6851 45.4109C21.6936 45.3893 21.6969 45.3661 21.6949 45.3431C21.6928 45.32 21.6854 45.2978 21.6733 45.2781C21.6612 45.2584 21.6446 45.2418 21.6249 45.2296C21.3045 45.0311 21.0434 44.7501 20.8691 44.4159C20.6949 44.0817 20.6138 43.7068 20.6345 43.3304C20.6552 42.9541 20.7768 42.5903 20.9867 42.2772C21.1965 41.9642 21.4868 41.7134 21.8271 41.5513C22.8879 41.0455 24.3255 41.439 25.1097 40.467C25.2692 40.2591 25.3819 40.0192 25.4403 39.7637C25.4987 39.5082 25.5013 39.2431 25.448 38.9866C25.2787 38.0685 24.5886 37.3868 23.8157 36.9196C22.8663 36.3456 21.7751 36.0491 20.6658 36.0635C19.5564 36.0779 18.4733 36.4028 17.5391 37.0012C16.605 37.5997 15.8571 38.4478 15.3802 39.4495C14.9033 40.4512 14.7166 41.5665 14.841 42.6689C14.9408 43.5524 15.2134 44.5431 14.6881 45.2605C14.2257 45.8918 13.3529 46.0102 12.5862 46.1671C10.9418 46.5036 9.3554 47.2798 8.23947 48.5336C7.12355 49.7874 6.52824 51.5465 6.86469 53.1909C7.20115 54.8353 8.55095 56.2805 10.21 56.5353C11.5603 56.7428 12.9547 56.1693 13.9463 55.2296C14.9379 54.2898 15.5647 53.0207 15.9601 51.7129C16.4294 50.1608 16.6145 48.4882 17.4617 47.1055C18.2907 45.7525 20.0773 44.7826 21.4775 45.4873C21.5043 45.5013 21.5348 45.5068 21.5648 45.5032C21.5949 45.4996 21.6232 45.487 21.6459 45.4671Z" fill="#2F2E41"/>
<path d="M126.212 72.1757C126.407 72.0785 126.579 71.9397 126.715 71.769C126.851 71.5984 126.947 71.4 126.998 71.1879C127.049 70.9758 127.053 70.7552 127.009 70.5415C126.966 70.3278 126.876 70.1262 126.746 69.9511L130.222 50.7107L126.978 50.668L124.564 69.6942C124.284 69.932 124.101 70.2642 124.05 70.6278C123.999 70.9914 124.083 71.3612 124.286 71.6671C124.489 71.973 124.797 72.1937 125.152 72.2874C125.507 72.3812 125.884 72.3414 126.212 72.1757H126.212Z" fill="#FFB8B8"/>
<path d="M116.143 71.2637L114.912 77.1139L115.066 90.1999H117.375L118.453 77.4218L120.146 72.0334L116.143 71.2637Z" fill="#FFB8B8"/>
<path d="M123.775 71.7026L122.544 77.5529L122.698 90.6389H125.007L126.085 77.8608L127.778 72.4724L123.775 71.7026Z" fill="#FFB8B8"/>
<path d="M114.259 90.0509L117.899 90.0418L117.905 92.3336L111.973 92.3485C111.972 92.0475 112.031 91.7494 112.145 91.471C112.26 91.1927 112.428 90.9396 112.64 90.7262C112.852 90.5129 113.105 90.3434 113.382 90.2275C113.66 90.1117 113.958 90.0516 114.259 90.0509Z" fill="#2F2E41"/>
<path d="M121.948 90.2984L125.588 90.2893L125.594 92.5812L119.662 92.5961C119.661 92.2951 119.72 91.9969 119.834 91.7186C119.948 91.4402 120.117 91.1871 120.329 90.9738C120.541 90.7604 120.793 90.591 121.071 90.4751C121.349 90.3592 121.647 90.2992 121.948 90.2984Z" fill="#2F2E41"/>
<path d="M121.762 42.5732C123.851 42.5732 125.544 40.8803 125.544 38.792C125.544 36.7037 123.851 35.0107 121.762 35.0107C119.674 35.0107 117.981 36.7037 117.981 38.792C117.981 40.8803 119.674 42.5732 121.762 42.5732Z" fill="#FFB8B8"/>
<path d="M130.119 48.1445C128.968 46.3394 125.356 42.0582 119.982 44.5156C119.558 44.7114 119.205 45.0322 118.969 45.4349C118.733 45.8375 118.626 46.3027 118.663 46.7678C118.923 50.2008 119.251 58.9475 116.451 64.1816C116.451 64.1816 124.611 66.6448 129.075 64.3355C129.075 64.3355 127.536 54.0207 129.075 52.0193C129.589 51.3797 130.004 50.6676 130.309 49.9061C130.416 49.6178 130.454 49.3086 130.421 49.0029C130.388 48.6972 130.285 48.4034 130.119 48.1445Z" fill="#3F3D56"/>
<path d="M128.613 48.0166L130.124 48.6461C130.225 48.688 130.311 48.7578 130.374 48.8472C130.436 48.9365 130.471 49.0418 130.476 49.1507L130.615 52.4813L127.228 52.1733L128.613 48.0166Z" fill="#3F3D56"/>
<path d="M117.067 63.8735C117.067 63.8735 113.68 70.1856 114.296 76.0358L119.068 76.8056L122.455 68.6461L121.686 76.9595L126.612 77.1135C126.612 77.1135 129.845 65.1052 128.767 64.0275L117.067 63.8735Z" fill="#2F2E41"/>
<path d="M112.256 64.4373C112.472 64.4044 112.678 64.3245 112.859 64.2034C113.041 64.0823 113.193 63.9229 113.306 63.7365C113.42 63.55 113.49 63.341 113.514 63.1242C113.538 62.9073 113.513 62.688 113.443 62.4815L120.314 49.5294L117.237 48.499L111.444 61.5713C111.105 61.7124 110.829 61.973 110.669 62.3037C110.51 62.6343 110.477 63.0121 110.577 63.3654C110.677 63.7187 110.903 64.0229 111.213 64.2205C111.523 64.418 111.894 64.4952 112.256 64.4373H112.256Z" fill="#FFB8B8"/>
<path d="M121.252 46.0227L119.979 45.4534C119.979 45.4534 118.9 44.7845 117.944 46.2564C116.988 47.7282 115.954 50.9538 115.954 50.9538L120.107 52.1221L121.252 46.0227Z" fill="#3F3D56"/>
<path d="M122.368 40.6126C122.504 40.1413 122.465 39.5034 122.008 39.3251C121.77 39.2322 121.504 39.3055 121.25 39.3315C120.752 39.3804 120.254 39.2433 119.852 38.9467C119.379 38.5953 119.087 38.0582 118.81 37.5385L118.39 36.7524C118.297 36.5886 118.217 36.4173 118.152 36.2402C117.919 35.5463 118.172 34.743 118.691 34.2263C119.233 33.722 119.946 33.4424 120.687 33.4439C121.421 33.4491 122.147 33.6046 122.819 33.9007C124.014 34.3877 125.096 35.1148 125.999 36.0368C126.589 36.6403 127.126 37.4265 127.003 38.2614C126.907 38.9113 126.433 39.4317 125.981 39.9086L124.342 41.6386C124.052 41.945 123.742 42.2638 123.337 42.3816C122.931 42.4994 122.409 42.3264 122.299 41.9191C122.299 41.9191 122.232 41.084 122.368 40.6126Z" fill="#2F2E41"/>
<path d="M145.024 92.6399H0.153953C0.113122 92.6399 0.0739635 92.6237 0.0450917 92.5948C0.0162199 92.566 0 92.5268 0 92.486C0 92.4452 0.0162199 92.406 0.0450917 92.3771C0.0739635 92.3483 0.113122 92.332 0.153953 92.332H145.024C145.065 92.332 145.104 92.3483 145.133 92.3771C145.162 92.406 145.178 92.4452 145.178 92.486C145.178 92.5268 145.162 92.566 145.133 92.5948C145.104 92.6237 145.065 92.6399 145.024 92.6399Z" fill="#3F3D56"/>
<path d="M97.6117 45.4642H93.301C93.1785 45.4642 93.061 45.4156 92.9744 45.329C92.8878 45.2424 92.8391 45.1249 92.8391 45.0024C92.8391 44.8799 92.8878 44.7624 92.9744 44.6758C93.061 44.5892 93.1785 44.5405 93.301 44.5405H97.6117C97.7342 44.5405 97.8516 44.5892 97.9382 44.6758C98.0249 44.7624 98.0735 44.8799 98.0735 45.0024C98.0735 45.1249 98.0249 45.2424 97.9382 45.329C97.8516 45.4156 97.7342 45.4642 97.6117 45.4642Z" fill="#8D8DF7"/>
<path d="M97.6117 43.4628H93.301C93.1785 43.4628 93.061 43.4141 92.9744 43.3275C92.8878 43.2409 92.8391 43.1234 92.8391 43.0009C92.8391 42.8784 92.8878 42.761 92.9744 42.6743C93.061 42.5877 93.1785 42.5391 93.301 42.5391H97.6117C97.7342 42.5391 97.8516 42.5877 97.9382 42.6743C98.0249 42.761 98.0735 42.8784 98.0735 43.0009C98.0735 43.1234 98.0249 43.2409 97.9382 43.3275C97.8516 43.4141 97.7342 43.4628 97.6117 43.4628Z" fill="#8D8DF7"/>
<path d="M97.6117 41.4618H93.301C93.1785 41.4618 93.061 41.4131 92.9744 41.3265C92.8878 41.2399 92.8391 41.1224 92.8391 40.9999C92.8391 40.8775 92.8878 40.76 92.9744 40.6734C93.061 40.5867 93.1785 40.5381 93.301 40.5381H97.6117C97.7342 40.5381 97.8516 40.5867 97.9382 40.6734C98.0249 40.76 98.0735 40.8775 98.0735 40.9999C98.0735 41.1224 98.0249 41.2399 97.9382 41.3265C97.8516 41.4131 97.7342 41.4618 97.6117 41.4618Z" fill="#8D8DF7"/>
</g>
<defs>
<clipPath id="clip0_345_9079">
<rect width="145.178" height="92.64" fill="white"/>
</clipPath>
</defs>
</svg>
