<svg width="36" height="36" viewBox="0 0 36 36" fill="none" xmlns="http://www.w3.org/2000/svg">
<g clip-path="url(#clip0_375_8935)">
<rect width="36" height="36" rx="18" fill="#1C2127"/>
<path d="M9.60115 13.7194C9.68463 13.7194 9.75235 13.6517 9.75235 13.5682C9.75235 13.4847 9.68463 13.417 9.60115 13.417C9.51763 13.417 9.44995 13.4847 9.44995 13.5682C9.44995 13.6517 9.51763 13.7194 9.60115 13.7194Z" fill="#F5F8FA" fill-opacity="0.7"/>
<path d="M12.9491 13.6945C13.0326 13.6945 13.1003 13.6268 13.1003 13.5433C13.1003 13.4598 13.0326 13.3921 12.9491 13.3921C12.8656 13.3921 12.7979 13.4598 12.7979 13.5433C12.7979 13.6268 12.8656 13.6945 12.9491 13.6945Z" fill="#F5F8FA" fill-opacity="0.7"/>
<path d="M11.2752 14.6808C11.3587 14.6808 11.4264 14.6131 11.4264 14.5296C11.4264 14.4461 11.3587 14.3784 11.2752 14.3784C11.1917 14.3784 11.124 14.4461 11.124 14.5296C11.124 14.6131 11.1917 14.6808 11.2752 14.6808Z" fill="#F5F8FA" fill-opacity="0.7"/>
<path d="M9.60115 15.6711C9.68463 15.6711 9.75235 15.6033 9.75235 15.5199C9.75235 15.4363 9.68463 15.3687 9.60115 15.3687C9.51763 15.3687 9.44995 15.4363 9.44995 15.5199C9.44995 15.6033 9.51763 15.6711 9.60115 15.6711Z" fill="#F5F8FA" fill-opacity="0.7"/>
<path d="M17.9712 12.8378C18.1441 12.8378 18.2844 12.6976 18.2844 12.5246C18.2844 12.3516 18.1441 12.2114 17.9712 12.2114C17.7982 12.2114 17.658 12.3516 17.658 12.5246C17.658 12.6976 17.7982 12.8378 17.9712 12.8378Z" fill="#F5F8FA" fill-opacity="0.7"/>
<path d="M16.2971 13.8276C16.4701 13.8276 16.6103 13.6873 16.6103 13.5144C16.6103 13.3414 16.4701 13.2012 16.2971 13.2012C16.1241 13.2012 15.9839 13.3414 15.9839 13.5144C15.9839 13.6873 16.1241 13.8276 16.2971 13.8276Z" fill="#F5F8FA" fill-opacity="0.7"/>
<path d="M14.6233 14.8178C14.7962 14.8178 14.9365 14.6775 14.9365 14.5046C14.9365 14.3316 14.7962 14.1914 14.6233 14.1914C14.4503 14.1914 14.3101 14.3316 14.3101 14.5046C14.3101 14.6775 14.4503 14.8178 14.6233 14.8178Z" fill="#F5F8FA" fill-opacity="0.7"/>
<path d="M12.9492 15.8076C13.1222 15.8076 13.2624 15.6673 13.2624 15.4944C13.2624 15.3214 13.1222 15.1812 12.9492 15.1812C12.7762 15.1812 12.636 15.3214 12.636 15.4944C12.636 15.6673 12.7762 15.8076 12.9492 15.8076Z" fill="#F5F8FA" fill-opacity="0.7"/>
<path d="M11.2754 16.7939C11.4483 16.7939 11.5886 16.6536 11.5886 16.4807C11.5886 16.3077 11.4483 16.1675 11.2754 16.1675C11.1024 16.1675 10.9622 16.3077 10.9622 16.4807C10.9622 16.6536 11.1024 16.7939 11.2754 16.7939Z" fill="#F5F8FA" fill-opacity="0.7"/>
<path d="M9.60115 17.6217C9.68463 17.6217 9.75235 17.5541 9.75235 17.4705C9.75235 17.387 9.68463 17.3193 9.60115 17.3193C9.51763 17.3193 9.44995 17.387 9.44995 17.4705C9.44995 17.5541 9.51763 17.6217 9.60115 17.6217Z" fill="#F5F8FA" fill-opacity="0.7"/>
<path d="M17.9714 15.1019C18.3173 15.1019 18.5978 14.8215 18.5978 14.4755C18.5978 14.1296 18.3173 13.8491 17.9714 13.8491C17.6254 13.8491 17.345 14.1296 17.345 14.4755C17.345 14.8215 17.6254 15.1019 17.9714 15.1019Z" fill="#F5F8FA" fill-opacity="0.7"/>
<path d="M16.2973 16.0922C16.6432 16.0922 16.9237 15.8117 16.9237 15.4658C16.9237 15.1198 16.6432 14.8394 16.2973 14.8394C15.9513 14.8394 15.6709 15.1198 15.6709 15.4658C15.6709 15.8117 15.9513 16.0922 16.2973 16.0922Z" fill="#F5F8FA" fill-opacity="0.7"/>
<path d="M14.6232 17.0819C14.9692 17.0819 15.2496 16.8015 15.2496 16.4555C15.2496 16.1095 14.9692 15.8291 14.6232 15.8291C14.2773 15.8291 13.9968 16.1095 13.9968 16.4555C13.9968 16.8015 14.2773 17.0819 14.6232 17.0819Z" fill="#F5F8FA" fill-opacity="0.7"/>
<path d="M12.9492 18.0682C13.2951 18.0682 13.5756 17.7878 13.5756 17.4418C13.5756 17.0959 13.2951 16.8154 12.9492 16.8154C12.6032 16.8154 12.3228 17.0959 12.3228 17.4418C12.3228 17.7878 12.6032 18.0682 12.9492 18.0682Z" fill="#F5F8FA" fill-opacity="0.7"/>
<path d="M11.2754 18.7451C11.4483 18.7451 11.5886 18.6048 11.5886 18.4319C11.5886 18.2589 11.4483 18.1187 11.2754 18.1187C11.1024 18.1187 10.9622 18.2589 10.9622 18.4319C10.9622 18.6048 11.1024 18.7451 11.2754 18.7451Z" fill="#F5F8FA" fill-opacity="0.7"/>
<path d="M9.60115 19.5729C9.68463 19.5729 9.75235 19.5052 9.75235 19.4217C9.75235 19.3382 9.68463 19.2705 9.60115 19.2705C9.51763 19.2705 9.44995 19.3382 9.44995 19.4217C9.44995 19.5052 9.51763 19.5729 9.60115 19.5729Z" fill="#F5F8FA" fill-opacity="0.7"/>
<path d="M17.9714 17.0531C18.3173 17.0531 18.5978 16.7727 18.5978 16.4267C18.5978 16.0808 18.3173 15.8003 17.9714 15.8003C17.6254 15.8003 17.345 16.0808 17.345 16.4267C17.345 16.7727 17.6254 17.0531 17.9714 17.0531Z" fill="#F5F8FA" fill-opacity="0.7"/>
<path d="M16.2973 18.0433C16.6432 18.0433 16.9237 17.7629 16.9237 17.4169C16.9237 17.071 16.6432 16.7905 16.2973 16.7905C15.9513 16.7905 15.6709 17.071 15.6709 17.4169C15.6709 17.7629 15.9513 18.0433 16.2973 18.0433Z" fill="#F5F8FA" fill-opacity="0.7"/>
<path d="M14.6232 19.0297C14.9692 19.0297 15.2496 18.7492 15.2496 18.4033C15.2496 18.0573 14.9692 17.7769 14.6232 17.7769C14.2773 17.7769 13.9968 18.0573 13.9968 18.4033C13.9968 18.7492 14.2773 19.0297 14.6232 19.0297Z" fill="#F5F8FA" fill-opacity="0.7"/>
<path d="M12.9492 20.0194C13.2951 20.0194 13.5756 19.739 13.5756 19.393C13.5756 19.0471 13.2951 18.7666 12.9492 18.7666C12.6032 18.7666 12.3228 19.0471 12.3228 19.393C12.3228 19.739 12.6032 20.0194 12.9492 20.0194Z" fill="#F5F8FA" fill-opacity="0.7"/>
<path d="M11.2754 20.6962C11.4483 20.6962 11.5886 20.556 11.5886 20.383C11.5886 20.21 11.4483 20.0698 11.2754 20.0698C11.1024 20.0698 10.9622 20.21 10.9622 20.383C10.9622 20.556 11.1024 20.6962 11.2754 20.6962Z" fill="#F5F8FA" fill-opacity="0.7"/>
<path d="M9.60115 21.5246C9.68463 21.5246 9.75235 21.4569 9.75235 21.3734C9.75235 21.2898 9.68463 21.2222 9.60115 21.2222C9.51763 21.2222 9.44995 21.2898 9.44995 21.3734C9.44995 21.4569 9.51763 21.5246 9.60115 21.5246Z" fill="#F5F8FA" fill-opacity="0.7"/>
<path d="M17.9712 18.6913C18.1441 18.6913 18.2844 18.5511 18.2844 18.3781C18.2844 18.2052 18.1441 18.0649 17.9712 18.0649C17.7982 18.0649 17.658 18.2052 17.658 18.3781C17.658 18.5511 17.7982 18.6913 17.9712 18.6913Z" fill="#F5F8FA" fill-opacity="0.7"/>
<path d="M16.2971 19.6777C16.4701 19.6777 16.6103 19.5374 16.6103 19.3645C16.6103 19.1915 16.4701 19.0513 16.2971 19.0513C16.1241 19.0513 15.9839 19.1915 15.9839 19.3645C15.9839 19.5374 16.1241 19.6777 16.2971 19.6777Z" fill="#F5F8FA" fill-opacity="0.7"/>
<path d="M14.6233 20.6674C14.7962 20.6674 14.9365 20.5272 14.9365 20.3542C14.9365 20.1812 14.7962 20.041 14.6233 20.041C14.4503 20.041 14.3101 20.1812 14.3101 20.3542C14.3101 20.5272 14.4503 20.6674 14.6233 20.6674Z" fill="#F5F8FA" fill-opacity="0.7"/>
<path d="M12.9492 21.6577C13.1222 21.6577 13.2624 21.5174 13.2624 21.3445C13.2624 21.1715 13.1222 21.0312 12.9492 21.0312C12.7762 21.0312 12.636 21.1715 12.636 21.3445C12.636 21.5174 12.7762 21.6577 12.9492 21.6577Z" fill="#F5F8FA" fill-opacity="0.7"/>
<path d="M11.2752 22.4855C11.3587 22.4855 11.4264 22.4178 11.4264 22.3343C11.4264 22.2508 11.3587 22.1831 11.2752 22.1831C11.1917 22.1831 11.124 22.2508 11.124 22.3343C11.124 22.4178 11.1917 22.4855 11.2752 22.4855Z" fill="#F5F8FA" fill-opacity="0.7"/>
<path d="M9.60115 23.4757C9.68463 23.4757 9.75235 23.4081 9.75235 23.3245C9.75235 23.2411 9.68463 23.1733 9.60115 23.1733C9.51763 23.1733 9.44995 23.2411 9.44995 23.3245C9.44995 23.4081 9.51763 23.4757 9.60115 23.4757Z" fill="#F5F8FA" fill-opacity="0.7"/>
<path d="M17.971 20.4767C18.0545 20.4767 18.1222 20.409 18.1222 20.3255C18.1222 20.242 18.0545 20.1743 17.971 20.1743C17.8875 20.1743 17.8198 20.242 17.8198 20.3255C17.8198 20.409 17.8875 20.4767 17.971 20.4767Z" fill="#F5F8FA" fill-opacity="0.7"/>
<path d="M16.2972 21.4665C16.3807 21.4665 16.4484 21.3988 16.4484 21.3153C16.4484 21.2318 16.3807 21.1641 16.2972 21.1641C16.2137 21.1641 16.146 21.2318 16.146 21.3153C16.146 21.3988 16.2137 21.4665 16.2972 21.4665Z" fill="#F5F8FA" fill-opacity="0.7"/>
<path d="M14.6234 22.4567C14.7069 22.4567 14.7746 22.389 14.7746 22.3055C14.7746 22.222 14.7069 22.1543 14.6234 22.1543C14.5398 22.1543 14.4722 22.222 14.4722 22.3055C14.4722 22.389 14.5398 22.4567 14.6234 22.4567Z" fill="#F5F8FA" fill-opacity="0.7"/>
<path d="M12.9491 23.4469C13.0326 23.4469 13.1003 23.3793 13.1003 23.2957C13.1003 23.2122 13.0326 23.1445 12.9491 23.1445C12.8656 23.1445 12.7979 23.2122 12.7979 23.2957C12.7979 23.3793 12.8656 23.4469 12.9491 23.4469Z" fill="#F5F8FA" fill-opacity="0.7"/>
<path d="M11.2752 24.4367C11.3587 24.4367 11.4264 24.369 11.4264 24.2855C11.4264 24.202 11.3587 24.1343 11.2752 24.1343C11.1917 24.1343 11.124 24.202 11.124 24.2855C11.124 24.369 11.1917 24.4367 11.2752 24.4367Z" fill="#F5F8FA" fill-opacity="0.7"/>
<path d="M17.971 22.4279C18.0545 22.4279 18.1222 22.3602 18.1222 22.2767C18.1222 22.1932 18.0545 22.1255 17.971 22.1255C17.8875 22.1255 17.8198 22.1932 17.8198 22.2767C17.8198 22.3602 17.8875 22.4279 17.971 22.4279Z" fill="#F5F8FA" fill-opacity="0.7"/>
<path d="M16.2972 23.4176C16.3807 23.4176 16.4484 23.35 16.4484 23.2664C16.4484 23.1829 16.3807 23.1152 16.2972 23.1152C16.2137 23.1152 16.146 23.1829 16.146 23.2664C16.146 23.35 16.2137 23.4176 16.2972 23.4176Z" fill="#F5F8FA" fill-opacity="0.7"/>
<path d="M14.6234 24.4079C14.7069 24.4079 14.7746 24.3402 14.7746 24.2567C14.7746 24.1732 14.7069 24.1055 14.6234 24.1055C14.5398 24.1055 14.4722 24.1732 14.4722 24.2567C14.4722 24.3402 14.5398 24.4079 14.6234 24.4079Z" fill="#F5F8FA" fill-opacity="0.7"/>
<path d="M12.9491 25.3981C13.0326 25.3981 13.1003 25.3304 13.1003 25.2469C13.1003 25.1634 13.0326 25.0957 12.9491 25.0957C12.8656 25.0957 12.7979 25.1634 12.7979 25.2469C12.7979 25.3304 12.8656 25.3981 12.9491 25.3981Z" fill="#F5F8FA" fill-opacity="0.7"/>
<path d="M17.971 24.3791C18.0545 24.3791 18.1222 24.3114 18.1222 24.2279C18.1222 24.1444 18.0545 24.0767 17.971 24.0767C17.8875 24.0767 17.8198 24.1444 17.8198 24.2279C17.8198 24.3114 17.8875 24.3791 17.971 24.3791Z" fill="#F5F8FA" fill-opacity="0.7"/>
<path d="M16.2972 25.3688C16.3807 25.3688 16.4484 25.3011 16.4484 25.2176C16.4484 25.1341 16.3807 25.0664 16.2972 25.0664C16.2137 25.0664 16.146 25.1341 16.146 25.2176C16.146 25.3011 16.2137 25.3688 16.2972 25.3688Z" fill="#F5F8FA" fill-opacity="0.7"/>
<path d="M14.6234 26.359C14.7069 26.359 14.7746 26.2914 14.7746 26.2078C14.7746 26.1244 14.7069 26.0566 14.6234 26.0566C14.5398 26.0566 14.4722 26.1244 14.4722 26.2078C14.4722 26.2914 14.5398 26.359 14.6234 26.359Z" fill="#F5F8FA" fill-opacity="0.7"/>
<path d="M17.971 26.3302C18.0545 26.3302 18.1222 26.2626 18.1222 26.179C18.1222 26.0955 18.0545 26.0278 17.971 26.0278C17.8875 26.0278 17.8198 26.0955 17.8198 26.179C17.8198 26.2626 17.8875 26.3302 17.971 26.3302Z" fill="#F5F8FA" fill-opacity="0.7"/>
<path d="M16.2972 27.32C16.3807 27.32 16.4484 27.2523 16.4484 27.1688C16.4484 27.0853 16.3807 27.0176 16.2972 27.0176C16.2137 27.0176 16.146 27.0853 16.146 27.1688C16.146 27.2523 16.2137 27.32 16.2972 27.32Z" fill="#F5F8FA" fill-opacity="0.7"/>
<path d="M17.971 28.2819C18.0545 28.2819 18.1222 28.2142 18.1222 28.1307C18.1222 28.0472 18.0545 27.9795 17.971 27.9795C17.8875 27.9795 17.8198 28.0472 17.8198 28.1307C17.8198 28.2142 17.8875 28.2819 17.971 28.2819Z" fill="#F5F8FA" fill-opacity="0.7"/>
<path d="M26.3197 13.7194C26.4032 13.7194 26.4709 13.6517 26.4709 13.5682C26.4709 13.4847 26.4032 13.417 26.3197 13.417C26.2362 13.417 26.1685 13.4847 26.1685 13.5682C26.1685 13.6517 26.2362 13.7194 26.3197 13.7194Z" fill="#F5F8FA" fill-opacity="0.7"/>
<path d="M22.9681 13.6945C23.0516 13.6945 23.1193 13.6268 23.1193 13.5433C23.1193 13.4598 23.0516 13.3921 22.9681 13.3921C22.8846 13.3921 22.8169 13.4598 22.8169 13.5433C22.8169 13.6268 22.8846 13.6945 22.9681 13.6945Z" fill="#F5F8FA" fill-opacity="0.7"/>
<path d="M24.6456 14.6808C24.7291 14.6808 24.7968 14.6131 24.7968 14.5296C24.7968 14.4461 24.7291 14.3784 24.6456 14.3784C24.5621 14.3784 24.4944 14.4461 24.4944 14.5296C24.4944 14.6131 24.5621 14.6808 24.6456 14.6808Z" fill="#F5F8FA" fill-opacity="0.7"/>
<path d="M26.3197 15.6711C26.4032 15.6711 26.4709 15.6033 26.4709 15.5199C26.4709 15.4363 26.4032 15.3687 26.3197 15.3687C26.2362 15.3687 26.1685 15.4363 26.1685 15.5199C26.1685 15.6033 26.2362 15.6711 26.3197 15.6711Z" fill="#F5F8FA" fill-opacity="0.7"/>
<path d="M17.946 12.8378C18.119 12.8378 18.2592 12.6976 18.2592 12.5246C18.2592 12.3516 18.119 12.2114 17.946 12.2114C17.773 12.2114 17.6328 12.3516 17.6328 12.5246C17.6328 12.6976 17.773 12.8378 17.946 12.8378Z" fill="#F5F8FA" fill-opacity="0.7"/>
<path d="M19.6201 13.8276C19.7931 13.8276 19.9333 13.6873 19.9333 13.5144C19.9333 13.3414 19.7931 13.2012 19.6201 13.2012C19.4471 13.2012 19.3069 13.3414 19.3069 13.5144C19.3069 13.6873 19.4471 13.8276 19.6201 13.8276Z" fill="#F5F8FA" fill-opacity="0.7"/>
<path d="M21.2942 14.8178C21.4671 14.8178 21.6074 14.6775 21.6074 14.5046C21.6074 14.3316 21.4671 14.1914 21.2942 14.1914C21.1212 14.1914 20.981 14.3316 20.981 14.5046C20.981 14.6775 21.1212 14.8178 21.2942 14.8178Z" fill="#F5F8FA" fill-opacity="0.7"/>
<path d="M22.968 15.8076C23.141 15.8076 23.2812 15.6673 23.2812 15.4944C23.2812 15.3214 23.141 15.1812 22.968 15.1812C22.795 15.1812 22.6548 15.3214 22.6548 15.4944C22.6548 15.6673 22.795 15.8076 22.968 15.8076Z" fill="#F5F8FA" fill-opacity="0.7"/>
<path d="M24.6457 16.7939C24.8187 16.7939 24.9589 16.6536 24.9589 16.4807C24.9589 16.3077 24.8187 16.1675 24.6457 16.1675C24.4727 16.1675 24.3325 16.3077 24.3325 16.4807C24.3325 16.6536 24.4727 16.7939 24.6457 16.7939Z" fill="#F5F8FA" fill-opacity="0.7"/>
<path d="M26.3197 17.6217C26.4032 17.6217 26.4709 17.5541 26.4709 17.4705C26.4709 17.387 26.4032 17.3193 26.3197 17.3193C26.2362 17.3193 26.1685 17.387 26.1685 17.4705C26.1685 17.5541 26.2362 17.6217 26.3197 17.6217Z" fill="#F5F8FA" fill-opacity="0.7"/>
<path d="M17.946 15.1019C18.2919 15.1019 18.5724 14.8215 18.5724 14.4755C18.5724 14.1296 18.2919 13.8491 17.946 13.8491C17.6 13.8491 17.3196 14.1296 17.3196 14.4755C17.3196 14.8215 17.6 15.1019 17.946 15.1019Z" fill="#F5F8FA" fill-opacity="0.7"/>
<path d="M19.6201 16.0922C19.966 16.0922 20.2465 15.8117 20.2465 15.4658C20.2465 15.1198 19.966 14.8394 19.6201 14.8394C19.2741 14.8394 18.9937 15.1198 18.9937 15.4658C18.9937 15.8117 19.2741 16.0922 19.6201 16.0922Z" fill="#F5F8FA" fill-opacity="0.7"/>
<path d="M21.2939 17.0819C21.6398 17.0819 21.9203 16.8015 21.9203 16.4555C21.9203 16.1095 21.6398 15.8291 21.2939 15.8291C20.9479 15.8291 20.6675 16.1095 20.6675 16.4555C20.6675 16.8015 20.9479 17.0819 21.2939 17.0819Z" fill="#F5F8FA" fill-opacity="0.7"/>
<path d="M22.9679 18.0682C23.3139 18.0682 23.5943 17.7878 23.5943 17.4418C23.5943 17.0959 23.3139 16.8154 22.9679 16.8154C22.622 16.8154 22.3416 17.0959 22.3416 17.4418C22.3416 17.7878 22.622 18.0682 22.9679 18.0682Z" fill="#F5F8FA" fill-opacity="0.7"/>
<path d="M24.6457 18.7451C24.8187 18.7451 24.9589 18.6048 24.9589 18.4319C24.9589 18.2589 24.8187 18.1187 24.6457 18.1187C24.4727 18.1187 24.3325 18.2589 24.3325 18.4319C24.3325 18.6048 24.4727 18.7451 24.6457 18.7451Z" fill="#F5F8FA" fill-opacity="0.7"/>
<path d="M26.3197 19.5729C26.4032 19.5729 26.4709 19.5052 26.4709 19.4217C26.4709 19.3382 26.4032 19.2705 26.3197 19.2705C26.2362 19.2705 26.1685 19.3382 26.1685 19.4217C26.1685 19.5052 26.2362 19.5729 26.3197 19.5729Z" fill="#F5F8FA" fill-opacity="0.7"/>
<path d="M17.946 17.0531C18.2919 17.0531 18.5724 16.7727 18.5724 16.4267C18.5724 16.0808 18.2919 15.8003 17.946 15.8003C17.6 15.8003 17.3196 16.0808 17.3196 16.4267C17.3196 16.7727 17.6 17.0531 17.946 17.0531Z" fill="#F5F8FA" fill-opacity="0.7"/>
<path d="M19.6201 18.0433C19.966 18.0433 20.2465 17.7629 20.2465 17.4169C20.2465 17.071 19.966 16.7905 19.6201 16.7905C19.2741 16.7905 18.9937 17.071 18.9937 17.4169C18.9937 17.7629 19.2741 18.0433 19.6201 18.0433Z" fill="#F5F8FA" fill-opacity="0.7"/>
<path d="M21.2939 19.0297C21.6398 19.0297 21.9203 18.7492 21.9203 18.4033C21.9203 18.0573 21.6398 17.7769 21.2939 17.7769C20.9479 17.7769 20.6675 18.0573 20.6675 18.4033C20.6675 18.7492 20.9479 19.0297 21.2939 19.0297Z" fill="#F5F8FA" fill-opacity="0.7"/>
<path d="M22.9679 20.0194C23.3139 20.0194 23.5943 19.739 23.5943 19.393C23.5943 19.0471 23.3139 18.7666 22.9679 18.7666C22.622 18.7666 22.3416 19.0471 22.3416 19.393C22.3416 19.739 22.622 20.0194 22.9679 20.0194Z" fill="#F5F8FA" fill-opacity="0.7"/>
<path d="M24.6457 20.6962C24.8187 20.6962 24.9589 20.556 24.9589 20.383C24.9589 20.21 24.8187 20.0698 24.6457 20.0698C24.4727 20.0698 24.3325 20.21 24.3325 20.383C24.3325 20.556 24.4727 20.6962 24.6457 20.6962Z" fill="#F5F8FA" fill-opacity="0.7"/>
<path d="M26.3197 21.5246C26.4032 21.5246 26.4709 21.4569 26.4709 21.3734C26.4709 21.2898 26.4032 21.2222 26.3197 21.2222C26.2362 21.2222 26.1685 21.2898 26.1685 21.3734C26.1685 21.4569 26.2362 21.5246 26.3197 21.5246Z" fill="#F5F8FA" fill-opacity="0.7"/>
<path d="M17.946 18.6913C18.119 18.6913 18.2592 18.5511 18.2592 18.3781C18.2592 18.2052 18.119 18.0649 17.946 18.0649C17.773 18.0649 17.6328 18.2052 17.6328 18.3781C17.6328 18.5511 17.773 18.6913 17.946 18.6913Z" fill="#F5F8FA" fill-opacity="0.7"/>
<path d="M19.6201 19.6777C19.7931 19.6777 19.9333 19.5374 19.9333 19.3645C19.9333 19.1915 19.7931 19.0513 19.6201 19.0513C19.4471 19.0513 19.3069 19.1915 19.3069 19.3645C19.3069 19.5374 19.4471 19.6777 19.6201 19.6777Z" fill="#F5F8FA" fill-opacity="0.7"/>
<path d="M21.2942 20.6674C21.4671 20.6674 21.6074 20.5272 21.6074 20.3542C21.6074 20.1812 21.4671 20.041 21.2942 20.041C21.1212 20.041 20.981 20.1812 20.981 20.3542C20.981 20.5272 21.1212 20.6674 21.2942 20.6674Z" fill="#F5F8FA" fill-opacity="0.7"/>
<path d="M22.968 21.6577C23.141 21.6577 23.2812 21.5174 23.2812 21.3445C23.2812 21.1715 23.141 21.0312 22.968 21.0312C22.795 21.0312 22.6548 21.1715 22.6548 21.3445C22.6548 21.5174 22.795 21.6577 22.968 21.6577Z" fill="#F5F8FA" fill-opacity="0.7"/>
<path d="M24.6456 22.4855C24.7291 22.4855 24.7968 22.4178 24.7968 22.3343C24.7968 22.2508 24.7291 22.1831 24.6456 22.1831C24.5621 22.1831 24.4944 22.2508 24.4944 22.3343C24.4944 22.4178 24.5621 22.4855 24.6456 22.4855Z" fill="#F5F8FA" fill-opacity="0.7"/>
<path d="M26.3197 23.4757C26.4032 23.4757 26.4709 23.4081 26.4709 23.3245C26.4709 23.2411 26.4032 23.1733 26.3197 23.1733C26.2362 23.1733 26.1685 23.2411 26.1685 23.3245C26.1685 23.4081 26.2362 23.4757 26.3197 23.4757Z" fill="#F5F8FA" fill-opacity="0.7"/>
<path d="M17.9461 20.4767C18.0296 20.4767 18.0973 20.409 18.0973 20.3255C18.0973 20.242 18.0296 20.1743 17.9461 20.1743C17.8626 20.1743 17.7949 20.242 17.7949 20.3255C17.7949 20.409 17.8626 20.4767 17.9461 20.4767Z" fill="#F5F8FA" fill-opacity="0.7"/>
<path d="M19.6199 21.4665C19.7035 21.4665 19.7711 21.3988 19.7711 21.3153C19.7711 21.2318 19.7035 21.1641 19.6199 21.1641C19.5364 21.1641 19.4688 21.2318 19.4688 21.3153C19.4688 21.3988 19.5364 21.4665 19.6199 21.4665Z" fill="#F5F8FA" fill-opacity="0.7"/>
<path d="M21.294 22.4567C21.3775 22.4567 21.4452 22.389 21.4452 22.3055C21.4452 22.222 21.3775 22.1543 21.294 22.1543C21.2105 22.1543 21.1428 22.222 21.1428 22.3055C21.1428 22.389 21.2105 22.4567 21.294 22.4567Z" fill="#F5F8FA" fill-opacity="0.7"/>
<path d="M22.9681 23.4469C23.0516 23.4469 23.1193 23.3793 23.1193 23.2957C23.1193 23.2122 23.0516 23.1445 22.9681 23.1445C22.8846 23.1445 22.8169 23.2122 22.8169 23.2957C22.8169 23.3793 22.8846 23.4469 22.9681 23.4469Z" fill="#F5F8FA" fill-opacity="0.7"/>
<path d="M24.6456 24.4367C24.7291 24.4367 24.7968 24.369 24.7968 24.2855C24.7968 24.202 24.7291 24.1343 24.6456 24.1343C24.5621 24.1343 24.4944 24.202 24.4944 24.2855C24.4944 24.369 24.5621 24.4367 24.6456 24.4367Z" fill="#F5F8FA" fill-opacity="0.7"/>
<path d="M17.9461 22.4279C18.0296 22.4279 18.0973 22.3602 18.0973 22.2767C18.0973 22.1932 18.0296 22.1255 17.9461 22.1255C17.8626 22.1255 17.7949 22.1932 17.7949 22.2767C17.7949 22.3602 17.8626 22.4279 17.9461 22.4279Z" fill="#F5F8FA" fill-opacity="0.7"/>
<path d="M19.6199 23.4176C19.7035 23.4176 19.7711 23.35 19.7711 23.2664C19.7711 23.1829 19.7035 23.1152 19.6199 23.1152C19.5364 23.1152 19.4688 23.1829 19.4688 23.2664C19.4688 23.35 19.5364 23.4176 19.6199 23.4176Z" fill="#F5F8FA" fill-opacity="0.7"/>
<path d="M21.294 24.4079C21.3775 24.4079 21.4452 24.3402 21.4452 24.2567C21.4452 24.1732 21.3775 24.1055 21.294 24.1055C21.2105 24.1055 21.1428 24.1732 21.1428 24.2567C21.1428 24.3402 21.2105 24.4079 21.294 24.4079Z" fill="#F5F8FA" fill-opacity="0.7"/>
<path d="M22.9681 25.3981C23.0516 25.3981 23.1193 25.3304 23.1193 25.2469C23.1193 25.1634 23.0516 25.0957 22.9681 25.0957C22.8846 25.0957 22.8169 25.1634 22.8169 25.2469C22.8169 25.3304 22.8846 25.3981 22.9681 25.3981Z" fill="#F5F8FA" fill-opacity="0.7"/>
<path d="M17.9461 24.3791C18.0296 24.3791 18.0973 24.3114 18.0973 24.2279C18.0973 24.1444 18.0296 24.0767 17.9461 24.0767C17.8626 24.0767 17.7949 24.1444 17.7949 24.2279C17.7949 24.3114 17.8626 24.3791 17.9461 24.3791Z" fill="#F5F8FA" fill-opacity="0.7"/>
<path d="M19.6199 25.3688C19.7035 25.3688 19.7711 25.3011 19.7711 25.2176C19.7711 25.1341 19.7035 25.0664 19.6199 25.0664C19.5364 25.0664 19.4688 25.1341 19.4688 25.2176C19.4688 25.3011 19.5364 25.3688 19.6199 25.3688Z" fill="#F5F8FA" fill-opacity="0.7"/>
<path d="M21.294 26.359C21.3775 26.359 21.4452 26.2914 21.4452 26.2078C21.4452 26.1244 21.3775 26.0566 21.294 26.0566C21.2105 26.0566 21.1428 26.1244 21.1428 26.2078C21.1428 26.2914 21.2105 26.359 21.294 26.359Z" fill="#F5F8FA" fill-opacity="0.7"/>
<path d="M17.9461 26.3302C18.0296 26.3302 18.0973 26.2626 18.0973 26.179C18.0973 26.0955 18.0296 26.0278 17.9461 26.0278C17.8626 26.0278 17.7949 26.0955 17.7949 26.179C17.7949 26.2626 17.8626 26.3302 17.9461 26.3302Z" fill="#F5F8FA" fill-opacity="0.7"/>
<path d="M19.6199 27.32C19.7035 27.32 19.7711 27.2523 19.7711 27.1688C19.7711 27.0853 19.7035 27.0176 19.6199 27.0176C19.5364 27.0176 19.4688 27.0853 19.4688 27.1688C19.4688 27.2523 19.5364 27.32 19.6199 27.32Z" fill="#F5F8FA" fill-opacity="0.7"/>
<path d="M17.9461 28.2819C18.0296 28.2819 18.0973 28.2142 18.0973 28.1307C18.0973 28.0472 18.0296 27.9795 17.9461 27.9795C17.8626 27.9795 17.7949 28.0472 17.7949 28.1307C17.7949 28.2142 17.8626 28.2819 17.9461 28.2819Z" fill="#F5F8FA" fill-opacity="0.7"/>
<path d="M17.7733 8.4025C17.8568 8.4025 17.9245 8.33482 17.9245 8.2513C17.9245 8.16781 17.8568 8.1001 17.7733 8.1001C17.6898 8.1001 17.6221 8.16781 17.6221 8.2513C17.6221 8.33482 17.6898 8.4025 17.7733 8.4025Z" fill="#F5F8FA" fill-opacity="0.7"/>
<path d="M16.0992 9.39225C16.1827 9.39225 16.2504 9.32456 16.2504 9.24104C16.2504 9.15756 16.1827 9.08984 16.0992 9.08984C16.0157 9.08984 15.948 9.15756 15.948 9.24104C15.948 9.32456 16.0157 9.39225 16.0992 9.39225Z" fill="#F5F8FA" fill-opacity="0.7"/>
<path d="M14.4251 10.3825C14.5086 10.3825 14.5763 10.3148 14.5763 10.2313C14.5763 10.1478 14.5086 10.0801 14.4251 10.0801C14.3416 10.0801 14.2739 10.1478 14.2739 10.2313C14.2739 10.3148 14.3416 10.3825 14.4251 10.3825Z" fill="#F5F8FA" fill-opacity="0.7"/>
<path d="M12.7513 11.3722C12.8348 11.3722 12.9025 11.3045 12.9025 11.221C12.9025 11.1375 12.8348 11.0698 12.7513 11.0698C12.6678 11.0698 12.6001 11.1375 12.6001 11.221C12.6001 11.3045 12.6678 11.3722 12.7513 11.3722Z" fill="#F5F8FA" fill-opacity="0.7"/>
<path d="M11.0772 12.3625C11.1607 12.3625 11.2284 12.2948 11.2284 12.2113C11.2284 12.1278 11.1607 12.0601 11.0772 12.0601C10.9937 12.0601 10.926 12.1278 10.926 12.2113C10.926 12.2948 10.9937 12.3625 11.0772 12.3625Z" fill="#F5F8FA" fill-opacity="0.7"/>
<path d="M17.7733 10.3537C17.8568 10.3537 17.9245 10.286 17.9245 10.2025C17.9245 10.1189 17.8568 10.0513 17.7733 10.0513C17.6898 10.0513 17.6221 10.1189 17.6221 10.2025C17.6221 10.286 17.6898 10.3537 17.7733 10.3537Z" fill="#F5F8FA" fill-opacity="0.7"/>
<path d="M16.0992 11.3434C16.1827 11.3434 16.2504 11.2757 16.2504 11.1922C16.2504 11.1087 16.1827 11.041 16.0992 11.041C16.0157 11.041 15.948 11.1087 15.948 11.1922C15.948 11.2757 16.0157 11.3434 16.0992 11.3434Z" fill="#F5F8FA" fill-opacity="0.7"/>
<path d="M14.4251 12.3336C14.5086 12.3336 14.5763 12.2659 14.5763 12.1824C14.5763 12.0989 14.5086 12.0312 14.4251 12.0312C14.3416 12.0312 14.2739 12.0989 14.2739 12.1824C14.2739 12.2659 14.3416 12.3336 14.4251 12.3336Z" fill="#F5F8FA" fill-opacity="0.7"/>
<path d="M17.7479 8.4025C17.8314 8.4025 17.8991 8.33482 17.8991 8.2513C17.8991 8.16781 17.8314 8.1001 17.7479 8.1001C17.6644 8.1001 17.5967 8.16781 17.5967 8.2513C17.5967 8.33482 17.6644 8.4025 17.7479 8.4025Z" fill="#F5F8FA" fill-opacity="0.7"/>
<path d="M19.422 9.39225C19.5055 9.39225 19.5732 9.32456 19.5732 9.24104C19.5732 9.15756 19.5055 9.08984 19.422 9.08984C19.3385 9.08984 19.2708 9.15756 19.2708 9.24104C19.2708 9.32456 19.3385 9.39225 19.422 9.39225Z" fill="#F5F8FA" fill-opacity="0.7"/>
<path d="M21.096 10.3825C21.1795 10.3825 21.2472 10.3148 21.2472 10.2313C21.2472 10.1478 21.1795 10.0801 21.096 10.0801C21.0125 10.0801 20.9448 10.1478 20.9448 10.2313C20.9448 10.3148 21.0125 10.3825 21.096 10.3825Z" fill="#F5F8FA" fill-opacity="0.7"/>
<path d="M22.7699 11.3722C22.8534 11.3722 22.9211 11.3045 22.9211 11.221C22.9211 11.1375 22.8534 11.0698 22.7699 11.0698C22.6863 11.0698 22.6187 11.1375 22.6187 11.221C22.6187 11.3045 22.6863 11.3722 22.7699 11.3722Z" fill="#F5F8FA" fill-opacity="0.7"/>
<path d="M24.4476 12.3625C24.5311 12.3625 24.5988 12.2948 24.5988 12.2113C24.5988 12.1278 24.5311 12.0601 24.4476 12.0601C24.3641 12.0601 24.2964 12.1278 24.2964 12.2113C24.2964 12.2948 24.3641 12.3625 24.4476 12.3625Z" fill="#F5F8FA" fill-opacity="0.7"/>
<path d="M17.7479 10.3537C17.8314 10.3537 17.8991 10.286 17.8991 10.2025C17.8991 10.1189 17.8314 10.0513 17.7479 10.0513C17.6644 10.0513 17.5967 10.1189 17.5967 10.2025C17.5967 10.286 17.6644 10.3537 17.7479 10.3537Z" fill="#F5F8FA" fill-opacity="0.7"/>
<path d="M19.422 11.3434C19.5055 11.3434 19.5732 11.2757 19.5732 11.1922C19.5732 11.1087 19.5055 11.041 19.422 11.041C19.3385 11.041 19.2708 11.1087 19.2708 11.1922C19.2708 11.2757 19.3385 11.3434 19.422 11.3434Z" fill="#F5F8FA" fill-opacity="0.7"/>
<path d="M21.096 12.3336C21.1795 12.3336 21.2472 12.2659 21.2472 12.1824C21.2472 12.0989 21.1795 12.0312 21.096 12.0312C21.0125 12.0312 20.9448 12.0989 20.9448 12.1824C20.9448 12.2659 21.0125 12.3336 21.096 12.3336Z" fill="#F5F8FA" fill-opacity="0.7"/>
<path d="M27.8594 52H39.0703V41.6484H46.4922V32.2344H39.0703V-4.36719H22.4297L-0.1875 31.8047V41.6484H27.8594V52ZM10.0859 32.5469V32.2344L27.8203 4.14844H28.0938V32.5469H10.0859Z" fill="url(#paint0_linear_375_8935)"/>
</g>
<defs>
<linearGradient id="paint0_linear_375_8935" x1="-48.135" y1="23.52" x2="39.48" y2="23.52" gradientUnits="userSpaceOnUse">
<stop stop-color="#A2FACF" stop-opacity="0"/>
<stop offset="1" stop-color="#64ACFF"/>
</linearGradient>
<clipPath id="clip0_375_8935">
<rect width="36" height="36" rx="18" fill="white"/>
</clipPath>
</defs>
</svg>
