<svg width="100" height="93" viewBox="0 0 100 93" fill="none" xmlns="http://www.w3.org/2000/svg">
<g clip-path="url(#clip0_345_9032)">
<path d="M95.9018 11.1204H96.8902C97.6474 5.30732 91.8214 0.892913 85.1392 0.354004C87.7635 0.956094 90.165 2.28543 92.0686 4.18965C93.9721 6.09387 95.3006 8.49591 95.9018 11.1204Z" fill="#F2F2F2"/>
<path d="M80.5212 28.4648C79.9619 28.458 79.426 28.4391 78.9136 28.4082C79.4454 28.4902 79.985 28.5092 80.5212 28.4648Z" fill="#F2F2F2"/>
<path d="M68.0844 14.2815C68.2133 6.62444 74.3148 0.392975 81.973 0.392975C83.0248 0.281297 84.0847 0.268323 85.1388 0.354222C83.0477 -0.120322 80.8766 -0.118035 78.7864 0.360913C76.6963 0.839862 74.7408 1.78318 73.0649 3.12092C71.3891 4.45867 70.0359 6.15651 69.1056 8.08853C68.1754 10.0206 67.6921 12.1372 67.6914 14.2815C67.6914 21.5421 67.9512 27.7365 78.9135 28.408C73.3596 27.5644 67.9831 20.294 68.0844 14.2815Z" fill="#F2F2F2"/>
<path d="M95.7376 14.5054C93.2272 18.8 83.3567 21.9497 81.9729 28.1704C81.5021 28.325 81.0148 28.4238 80.521 28.4648C80.9758 28.4703 81.445 28.4685 81.9327 28.4573C89.7328 28.4573 96.1308 22.2755 96.2517 14.5054L95.7376 14.5054Z" fill="#F2F2F2"/>
<path d="M83.0939 24.7179C81.2685 20.7579 80.4691 16.49 81.029 11.8144C80.9425 11.2705 81.2457 10.7254 81.7068 10.596L89.9712 8.28703C90.4324 8.15881 90.8767 8.49507 90.9642 9.03871L93.0292 21.9422C93.1157 22.4861 92.8125 23.0312 92.3514 23.1606L84.087 25.4696C83.6257 25.5978 83.1815 25.2615 83.0939 24.7179Z" fill="#F2F2F2"/>
<path d="M87.0083 9.71471C87.1274 8.7928 86.6001 7.96483 85.8306 7.8654C85.0611 7.76597 84.3407 8.43273 84.2215 9.35465C84.1024 10.2766 84.6297 11.1045 85.3992 11.204C86.1688 11.3034 86.8892 10.6366 87.0083 9.71471Z" fill="#F2F2F2"/>
<path d="M71.8952 18.4078C70.0698 14.4478 69.2704 10.18 69.8303 5.50437C69.7438 4.96044 70.047 4.41536 70.508 4.2859L78.7724 1.97697C79.2337 1.84875 79.6779 2.18501 79.7655 2.72865L81.8304 15.6321C81.9169 16.1761 81.6137 16.7211 81.1527 16.8506L72.8883 19.1595C72.427 19.2877 71.9828 18.9515 71.8952 18.4078Z" fill="#F2F2F2"/>
<path d="M75.8096 3.40466C75.9287 2.48274 75.4014 1.65477 74.6319 1.55534C73.8623 1.45591 73.1419 2.12267 73.0228 3.04459C72.9037 3.96651 73.431 4.79447 74.2005 4.8939C74.97 4.99333 75.6904 4.32657 75.8096 3.40466Z" fill="#F2F2F2"/>
<path d="M83.2067 61.2788H0V61.5496H83.2067V61.2788Z" fill="#3F3D56"/>
<path d="M33.8454 29.3289C33.7473 28.9854 35.1196 32.134 34.7931 32.1719C33.3062 32.3425 30.0116 33.1115 28.976 33.5257C28.9294 33.5203 28.8827 33.5149 28.8375 33.5081C28.7264 33.496 28.618 33.4784 28.511 33.458C26.0997 33.0018 24.2754 31.0212 24.226 28.6303C24.2233 28.5965 24.2233 28.5613 24.2233 28.5274C24.223 28.3624 24.2317 28.1974 24.2493 28.0333C24.272 27.8092 24.311 27.587 24.3659 27.3686L24.3605 27.3672C23.4003 26.4656 23.8049 24.7936 25.0284 24.0883C25.5601 23.7826 26.1496 23.5912 26.7594 23.5264C26.9248 23.5085 27.091 23.4994 27.2574 23.4993H28.8197C29.1429 23.4297 29.4706 23.3822 29.8004 23.3572H29.8031C32.9483 23.1176 35.4282 25.0346 35.1964 27.3672C35.195 27.3699 35.1923 27.3726 35.1909 27.3753C35.1237 27.4755 35.0647 27.5703 35.0126 27.661C34.9618 27.7463 34.9193 27.8275 34.8823 27.9047C34.5956 28.5004 35.3325 29.2499 34.8439 29.3898C34.194 29.5759 36.5531 35.6919 33.9808 35.6919C35.232 36.0476 34.1162 30.2766 33.8454 29.3289Z" fill="#2F2E41"/>
<path d="M48.1972 88.4448L50.2257 88.4276L51.1235 80.4214L48.1299 80.4466L48.1972 88.4448Z" fill="#FFB6B6"/>
<path d="M54.6945 91.6702C54.6963 91.9107 54.6027 92.142 54.4341 92.3135C54.2656 92.4851 54.0359 92.5827 53.7954 92.5851L49.7624 92.6187L49.0564 91.1876L48.7971 92.626L47.2754 92.6398L47.6596 87.5095L48.1891 87.4743L50.3485 87.3255L51.0452 87.2788L51.0574 88.7304L54.2971 90.9277C54.4185 91.0101 54.518 91.1207 54.5873 91.25C54.6565 91.3794 54.6933 91.5236 54.6945 91.6702Z" fill="#2F2E41"/>
<path d="M50.7682 84.4292C49.9613 84.3317 47.9252 84.1584 47.9252 84.1584C47.9252 84.1584 46.964 82.1521 47.1197 81.5279C47.2726 80.9011 47.6544 80.7739 47.2997 80.4462C46.436 77.2539 46.5741 72.0688 46.5741 72.0688C46.5741 72.0688 41.9251 69.8174 37.2178 67.2113C32.6162 64.662 27.9591 61.7743 27.538 60.319C27.2601 59.2781 27.0735 58.2149 26.9802 57.1416C26.9098 56.4376 26.8665 55.7471 26.8394 55.1284C26.7758 53.7123 26.8015 52.6658 26.8015 52.6658L32.6676 52.5684L36.5531 52.479H36.9592V53.1559L37.98 54.8915C37.98 54.8915 39.744 56.9426 39.5369 57.1334C39.2865 57.3649 39.3623 57.5707 40.2517 57.7386C40.5046 57.7829 40.7623 57.7934 41.018 57.7697C42.4544 57.6601 43.0555 58.4818 43.0907 58.6619C43.3317 59.9331 45.7482 62.6949 48.0118 65.0519H48.0132C50.1021 67.2289 52.0597 69.0592 52.0597 69.0592L52.1708 71.3946L52.692 82.3132C52.692 82.3132 51.7145 81.7662 52.5877 82.9454C53.461 84.1259 51.5751 84.5253 50.7682 84.4292Z" fill="#2F2E41"/>
<path d="M72.7763 59.0409L73.6044 57.1888L66.6968 53.0425L65.4746 55.7754L72.7763 59.0409Z" fill="#FFB6B6"/>
<path d="M78.4118 54.474C78.6313 54.5724 78.8027 54.7538 78.8886 54.9784C78.9744 55.203 78.9677 55.4525 78.8698 55.6722L77.223 59.3537L75.6279 59.4006L76.8282 60.2347L76.2078 61.6243L71.7021 59.141L71.8903 58.6449L72.6531 56.6192L72.9005 55.9662L74.2256 56.5588L77.5713 54.5266C77.6967 54.4505 77.8387 54.4059 77.9851 54.3968C78.1315 54.3876 78.2779 54.4141 78.4118 54.474Z" fill="#2F2E41"/>
<path d="M69.223 54.5587C69.2183 54.5693 69.2126 54.5789 69.2079 54.5875C68.8305 55.2802 68.2111 56.883 68.1725 56.9819C68.1715 56.9836 68.1708 56.9856 68.1706 56.9876C68.1706 56.9876 66.127 56.8823 65.6047 56.5076C65.0815 56.13 65.8732 56.727 64.6666 55.9375C64.0426 55.5271 61.9055 54.8863 59.9913 54.3628C58.2103 53.8757 56.6235 53.4927 56.6235 53.4927C56.6235 53.4927 55.2208 54.7694 53.1885 56.5336L53.1875 56.5346C51.2999 58.1696 48.8675 60.2257 46.5102 62.0668C41.4634 63.5512 36.1367 64.8374 34.8051 64.1147C33.8691 63.5813 32.9813 62.9673 32.1519 62.2798L33.5231 58.6856L37.1493 54.888L40.9665 53.337L42.4598 52.7298L44.5507 51.8813L55.8714 47.2817L68.4082 51.6241C68.4082 51.6241 67.535 52.3297 68.9561 51.9575C70.3581 51.5912 69.6173 53.8161 69.223 54.5587Z" fill="#2F2E41"/>
<path d="M29.6485 33.6611H33.7099L34.3494 35.0726L37.0693 36.2845C37.4231 36.4424 37.7348 36.6812 37.9792 36.9816C38.2237 37.2821 38.3942 37.6358 38.4769 38.0142C39.4563 42.4915 38.2174 43.4217 38.1775 44.8978C38.0422 49.907 37.3446 50.9034 37.4226 52.1399C37.446 52.51 37.6719 53.9733 38.3985 53.8355C39.1252 53.6977 38.7335 54.2761 38.9055 54.501C39.0541 54.6954 39.8356 54.4375 39.345 55.083C38.8544 55.7284 40.9517 57.4884 39.6667 57.4884C37.2299 57.4884 32.3561 58.7068 30.4608 58.7068C28.5654 58.7068 27.1007 59.2688 26.2639 59.2484C25.7539 59.2359 25.9133 56.8577 26.1172 54.7981C26.1634 54.3318 27.0589 54.3439 26.2552 53.4793C25.4516 52.6146 26.3976 52.1653 26.3993 51.9377C26.4011 51.696 26.8549 51.087 26.2886 50.0908C25.7224 49.0947 26.2444 49.5069 26.2198 49.1941C26.0302 46.7836 25.7586 43.7101 25.7586 43.7101L24.5614 40.3405C24.2553 39.4792 24.2958 38.5327 24.6742 37.7007C25.0526 36.8686 25.7394 36.2161 26.5897 35.8807L27.9941 35.3267L29.6485 33.6611Z" fill="#8D8DF7"/>
<path d="M58.173 32.4182C58.0828 32.5866 57.957 32.7333 57.8044 32.8483C57.6519 32.9633 57.4762 33.0438 57.2894 33.0842C57.1027 33.1246 56.9094 33.124 56.723 33.0824C56.5365 33.0407 56.3613 32.9591 56.2095 32.8431L50.4881 36.0822L49.2031 34.72L56.0266 30.9225C56.2409 30.6815 56.5361 30.5275 56.8563 30.4896C57.1766 30.4517 57.4996 30.5326 57.7642 30.717C58.0287 30.9013 58.2165 31.1764 58.2918 31.4899C58.3672 31.8034 58.3249 32.1337 58.173 32.4182Z" fill="#FFB6B6"/>
<path d="M32.4123 40.064L32.3252 41.1071L43.7154 40.9606L55.0532 34.5868L53.3957 32.0356L43.4304 36.2256L36.3478 36.3692C35.3511 36.3894 34.3971 36.7782 33.6703 37.4606C32.9435 38.143 32.4953 39.0705 32.4123 40.064Z" fill="#8D8DF7"/>
<path d="M31.0378 32.9174C33.0807 32.9174 34.7367 31.2613 34.7367 29.2185C34.7367 27.1756 33.0807 25.5195 31.0378 25.5195C28.9949 25.5195 27.3389 27.1756 27.3389 29.2185C27.3389 31.2613 28.9949 32.9174 31.0378 32.9174Z" fill="#FFB6B6"/>
<path d="M35.1964 27.569C35.1347 27.6015 35.0744 27.6313 35.0126 27.6611C34.9482 27.6922 34.8837 27.7234 34.8192 27.7518C33.5806 28.3136 32.5725 28.3759 31.9607 27.569C31.9444 27.1445 31.849 26.7267 31.6796 26.3371C31.7095 26.7725 31.5947 27.2056 31.3531 27.569H30.1214C28.8526 28.4111 28.2011 28.4991 29.0817 31.2636C29.3272 32.0339 30.3034 36.5164 29.9194 37.1812C29.8083 37.169 28.6181 33.4785 28.5111 33.4582C26.0997 33.0019 24.2755 31.0213 24.2261 28.6304C24.2288 28.5086 24.237 28.3868 24.2494 28.2676C24.4082 28.0288 24.5828 27.8009 24.772 27.5853C24.771 26.9462 24.918 26.3156 25.2013 25.7427C25.5598 25.017 26.1186 24.4091 26.8116 23.9909C27.2247 23.7906 27.6554 23.6288 28.0982 23.5076C28.1092 23.5049 28.1188 23.5022 28.1298 23.4995C28.2655 23.4629 28.4041 23.4291 28.5426 23.4006C28.8288 23.3402 29.1182 23.2964 29.4095 23.2693C29.4301 23.268 29.4506 23.2666 29.4698 23.2666C29.5861 23.2669 29.7003 23.2982 29.8004 23.3573C29.8018 23.3573 29.8018 23.3587 29.8032 23.3587C29.8747 23.4005 29.9372 23.4562 29.987 23.5225C30.0746 23.634 30.1219 23.7719 30.1214 23.9137H31.493C31.5438 23.9137 31.5945 23.9151 31.6453 23.9178C32.5607 23.9491 33.4315 24.3208 34.0873 24.9604C34.7431 25.5999 35.1367 26.4611 35.191 27.3754C35.1951 27.4404 35.1964 27.5041 35.1964 27.569Z" fill="#2F2E41"/>
<path d="M25.9935 28.2458C27.3394 28.2458 28.4304 27.1548 28.4304 25.8089C28.4304 24.4631 27.3394 23.3721 25.9935 23.3721C24.6477 23.3721 23.5566 24.4631 23.5566 25.8089C23.5566 27.1548 24.6477 28.2458 25.9935 28.2458Z" fill="#2F2E41"/>
<path d="M28.9719 23.9136C29.0184 25.2586 27.8809 26.3504 26.535 26.3504C25.8887 26.3504 25.2689 26.0937 24.8119 25.6367C24.3549 25.1797 24.0981 24.5599 24.0981 23.9136C24.0981 22.5677 25.7281 22.5538 26.535 21.4767C27.6766 19.953 28.9091 22.0997 28.9719 23.9136Z" fill="#2F2E41"/>
<path d="M32.1577 62.0343C31.7793 56.4196 32.8871 51.1381 35.9635 46.2982C36.0408 45.9797 36.2414 45.705 36.5211 45.5343C36.8007 45.3635 37.1367 45.3107 37.4553 45.3874L49.3396 48.2615C49.658 48.3389 49.9327 48.5395 50.1035 48.8191C50.2742 49.0988 50.327 49.4348 50.2504 49.7534L46.4446 65.4895C46.3673 65.808 46.1667 66.0827 45.8871 66.2534C45.6074 66.4242 45.2714 66.477 44.9528 66.4003L33.0685 63.5262C32.7501 63.4488 32.4754 63.2482 32.3046 62.9686C32.1339 62.6889 32.0811 62.3529 32.1577 62.0343Z" fill="#F2F2F2"/>
<path opacity="0.2" d="M34.4872 63.2268C34.1688 63.1494 33.8941 62.9489 33.7233 62.6692C33.5526 62.3895 33.4997 62.0535 33.5764 61.7349C33.198 56.1202 34.3057 50.8387 37.3821 45.9988C37.434 45.79 37.5401 45.5986 37.6896 45.4439L37.4558 45.3874C37.1372 45.3107 36.8012 45.3635 36.5215 45.5343C36.2419 45.705 36.0413 45.9797 35.9639 46.2981C32.8875 51.1381 31.7798 56.4195 32.1582 62.0343C32.0815 62.3529 32.1344 62.6889 32.3051 62.9686C32.4759 63.2482 32.7506 63.4488 33.069 63.5261L44.9533 66.4003C45.1645 66.4507 45.3853 66.4443 45.5933 66.3818C45.8013 66.3192 45.9891 66.2029 46.1376 66.0444L34.4872 63.2268Z" fill="black"/>
<path d="M45.247 56.6026L37.2778 54.6987C37.1511 54.6683 37.0416 54.5888 36.9735 54.4778C36.9053 54.3667 36.8841 54.2331 36.9143 54.1064C36.9446 53.9796 37.024 53.8701 37.135 53.8019C37.246 53.7336 37.3795 53.7122 37.5063 53.7424L45.4755 55.6463C45.6019 55.677 45.711 55.7565 45.7789 55.8675C45.8468 55.9784 45.868 56.1118 45.8378 56.2383C45.8075 56.3648 45.7284 56.4742 45.6177 56.5425C45.5069 56.6108 45.3737 56.6324 45.247 56.6026L45.247 56.6026Z" fill="white"/>
<path d="M39.6574 52.4953L37.9041 52.0764C37.7774 52.0464 37.6677 51.9673 37.5993 51.8564C37.5308 51.7456 37.5091 51.6121 37.539 51.4853C37.5689 51.3585 37.6478 51.2488 37.7586 51.1802C37.8693 51.1115 38.0028 51.0897 38.1296 51.1194L38.1326 51.1201L39.8858 51.539C40.0123 51.5697 40.1214 51.6492 40.1893 51.7602C40.2572 51.8711 40.2783 52.0045 40.2481 52.131C40.2179 52.2575 40.1387 52.3669 40.028 52.4352C39.9173 52.5035 39.784 52.5251 39.6574 52.4953V52.4953Z" fill="white"/>
<path d="M44.2426 60.807L36.2734 58.903C36.1469 58.8724 36.0377 58.7929 35.9698 58.6819C35.9019 58.5709 35.8807 58.4375 35.9109 58.311C35.9412 58.1844 36.0203 58.075 36.1311 58.0067C36.2419 57.9384 36.3752 57.9169 36.5019 57.9467L44.4711 59.8507C44.534 59.8654 44.5934 59.8924 44.6459 59.9301C44.6984 59.9678 44.7429 60.0154 44.777 60.0704C44.811 60.1253 44.8339 60.1864 44.8443 60.2502C44.8547 60.314 44.8524 60.3792 44.8376 60.4421C44.8228 60.505 44.7957 60.5643 44.7579 60.6168C44.7202 60.6692 44.6724 60.7137 44.6174 60.7476C44.5624 60.7816 44.5013 60.8044 44.4375 60.8147C44.3737 60.825 44.3085 60.8226 44.2456 60.8077L44.2426 60.807Z" fill="white"/>
<path d="M44.7446 58.7044L36.7754 56.8005C36.6486 56.7703 36.5389 56.691 36.4705 56.58C36.4021 56.469 36.3806 56.3354 36.4108 56.2085C36.4409 56.0817 36.5202 55.972 36.6312 55.9036C36.7423 55.8352 36.8759 55.8137 37.0027 55.8439L37.0039 55.8442L44.9731 57.7481C45.0996 57.7787 45.2087 57.8583 45.2767 57.9692C45.3446 58.0802 45.3658 58.2136 45.3356 58.3402C45.3053 58.4667 45.2262 58.5761 45.1154 58.6444C45.0046 58.7127 44.8713 58.7343 44.7446 58.7044L44.7446 58.7044Z" fill="white"/>
<path d="M43.0601 48.8306C44.1922 48.8306 45.1099 47.9129 45.1099 46.7808C45.1099 45.6487 44.1922 44.731 43.0601 44.731C41.928 44.731 41.0103 45.6487 41.0103 46.7808C41.0103 47.9129 41.928 48.8306 43.0601 48.8306Z" fill="#3F3D56"/>
<path d="M32.7246 63.2082C32.5574 63.1158 32.4123 62.9881 32.2992 62.8341C32.1862 62.6801 32.108 62.5034 32.07 62.3161C32.032 62.1289 32.0351 61.9357 32.0791 61.7498C32.1231 61.5638 32.207 61.3897 32.325 61.2394L29.1597 55.4769L30.5383 54.2095L34.2477 61.0812C34.486 61.2986 34.6362 61.5957 34.6699 61.9164C34.7037 62.2371 34.6187 62.5591 34.4309 62.8212C34.2432 63.0834 33.9658 63.2676 33.6513 63.3389C33.3368 63.4103 33.0071 63.3637 32.7246 63.2082H32.7246Z" fill="#FFB6B6"/>
<path d="M29.0275 37.7L25.6231 37.3715C25.4642 37.3562 25.304 37.3742 25.1525 37.4245C25.0011 37.4748 24.8618 37.5562 24.7437 37.6634C24.6256 37.7707 24.5312 37.9015 24.4666 38.0474C24.402 38.1933 24.3687 38.3511 24.3687 38.5107V48.6417L30.5962 60.0604L33.1685 58.4358L29.107 48.4176L29.0275 37.7Z" fill="#8D8DF7"/>
<path d="M55.9042 36.878C56.6936 31.3061 58.8683 26.3673 62.8779 22.2671C63.0194 21.9715 63.2724 21.7441 63.5813 21.6348C63.8902 21.5255 64.2299 21.5432 64.5257 21.684L75.5602 26.9507C75.8558 27.0922 76.0831 27.3451 76.1924 27.654C76.3017 27.963 76.284 28.3026 76.1432 28.5985L69.1695 43.2094C69.0281 43.505 68.7751 43.7323 68.4662 43.8416C68.1573 43.9509 67.8176 43.9332 67.5218 43.7924L56.4873 38.5258C56.1917 38.3843 55.9644 38.1313 55.855 37.8224C55.7457 37.5135 55.7634 37.1738 55.9042 36.878Z" fill="#F2F2F2"/>
<path opacity="0.2" d="M57.9367 38.5257C57.6412 38.3843 57.4138 38.1313 57.3045 37.8224C57.1952 37.5135 57.2129 37.1738 57.3537 36.8779C58.1431 31.3061 60.3177 26.3673 64.3274 22.267C64.4212 22.0735 64.5646 21.9081 64.7429 21.7877L64.5257 21.684C64.2298 21.5432 63.8902 21.5255 63.5813 21.6348C63.2724 21.7441 63.0194 21.9715 62.8779 22.267C58.8683 26.3673 56.6936 31.3061 55.9043 36.8779C55.7634 37.1738 55.7457 37.5135 55.855 37.8224C55.9643 38.1313 56.1917 38.3843 56.4873 38.5257L67.5217 43.7924C67.718 43.8853 67.9354 43.9246 68.1518 43.9064C68.3682 43.8882 68.576 43.8131 68.754 43.6888L57.9367 38.5257Z" fill="black"/>
<path d="M69.8332 34.2664L62.429 30.7576C62.3112 30.7018 62.2204 30.6015 62.1766 30.4787C62.1327 30.3559 62.1395 30.2207 62.1953 30.1029C62.2511 29.985 62.3515 29.8942 62.4743 29.8504C62.5971 29.8066 62.7323 29.8133 62.8501 29.8691L70.2543 33.3779C70.3716 33.4341 70.4619 33.5344 70.5055 33.657C70.549 33.7796 70.5421 33.9144 70.4864 34.032C70.4307 34.1495 70.3307 34.2402 70.2083 34.2841C70.0858 34.3281 69.951 34.3217 69.8332 34.2664L69.8332 34.2664Z" fill="white"/>
<path d="M65.2122 29.0934L63.5832 28.3215C63.5248 28.2941 63.4722 28.2554 63.4287 28.2077C63.3852 28.16 63.3515 28.1041 63.3295 28.0433C63.3076 27.9826 63.2978 27.9181 63.3008 27.8536C63.3038 27.789 63.3195 27.7257 63.347 27.6673C63.3745 27.6088 63.4132 27.5563 63.461 27.5128C63.5088 27.4693 63.5646 27.4357 63.6254 27.4138C63.6862 27.3919 63.7507 27.3823 63.8152 27.3853C63.8798 27.3884 63.9431 27.4041 64.0015 27.4317L64.0043 27.433L65.6332 28.205C65.7507 28.261 65.8411 28.3614 65.8847 28.484C65.9282 28.6066 65.9214 28.7415 65.8657 28.8591C65.8099 28.9767 65.7098 29.0674 65.5873 29.1113C65.4648 29.1553 65.3299 29.1488 65.2122 29.0934Z" fill="white"/>
<path d="M67.9818 38.1726L60.5777 34.6638C60.4602 34.6077 60.3698 34.5074 60.3262 34.3847C60.2827 34.2621 60.2895 34.1272 60.3452 34.0096C60.4009 33.892 60.501 33.8013 60.6235 33.7574C60.746 33.7134 60.8809 33.7199 60.9987 33.7753L68.4029 37.2841C68.4613 37.3115 68.5138 37.3502 68.5572 37.398C68.6007 37.4457 68.6343 37.5015 68.6562 37.5623C68.6781 37.623 68.6879 37.6874 68.6848 37.7519C68.6818 37.8164 68.6661 37.8797 68.6387 37.9381C68.6112 37.9965 68.5725 38.049 68.5248 38.0925C68.477 38.1359 68.4212 38.1696 68.3605 38.1915C68.2998 38.2134 68.2353 38.2231 68.1708 38.2201C68.1063 38.217 68.0431 38.2014 67.9846 38.1739L67.9818 38.1726Z" fill="white"/>
<path d="M68.9075 36.2193L61.5033 32.7105C61.3854 32.6548 61.2945 32.5546 61.2505 32.4319C61.2065 32.3091 61.2131 32.1739 61.2688 32.056C61.3245 31.9381 61.4247 31.8472 61.5475 31.8032C61.6702 31.7592 61.8054 31.7658 61.9233 31.8215L61.9244 31.822L69.3285 35.3308C69.4459 35.3869 69.5363 35.4873 69.5798 35.6099C69.6234 35.7325 69.6165 35.8673 69.5608 35.9849C69.5051 36.1025 69.405 36.1932 69.2826 36.2371C69.1601 36.2811 69.0252 36.2747 68.9075 36.2193L68.9075 36.2193Z" fill="white"/>
<path d="M69.7217 26.2544C70.8538 26.2544 71.7715 25.3367 71.7715 24.2046C71.7715 23.0725 70.8538 22.1548 69.7217 22.1548C68.5896 22.1548 67.6719 23.0725 67.6719 24.2046C67.6719 25.3367 68.5896 26.2544 69.7217 26.2544Z" fill="#3F3D56"/>
<path d="M87.4107 44.0961C85.1876 39.2735 84.2141 34.0759 84.896 28.3817C84.7906 27.7193 85.1599 27.0555 85.7214 26.8978L95.7861 24.0859C96.3479 23.9298 96.8889 24.3393 96.9955 25.0014L99.5103 40.7158C99.6156 41.3782 99.2464 42.042 98.6849 42.1996L88.6201 45.0116C88.0584 45.1677 87.5173 44.7582 87.4107 44.0961Z" fill="#F2F2F2"/>
<path opacity="0.2" d="M89.5999 44.1049C89.0382 44.2611 88.4972 43.8516 88.3905 43.1895C86.1674 38.3668 85.1939 33.1693 85.8757 27.4751C85.8436 27.2637 85.8585 27.0478 85.9194 26.8428L85.7214 26.8981C85.1599 27.0558 84.7906 27.7196 84.896 28.382C84.2141 34.0761 85.1876 39.2737 87.4107 44.0964C87.5174 44.7584 88.0584 45.1679 88.6201 45.0118L98.6848 42.1999C98.8765 42.1356 99.0487 42.0238 99.1854 41.8749C99.3221 41.726 99.4188 41.5448 99.4666 41.3484L89.5999 44.1049Z" fill="black"/>
<path d="M95.534 33.3527L88.7929 35.2591C88.5695 35.3219 88.3539 35.1594 88.3114 34.8959C88.2872 34.7748 88.3067 34.6489 88.3665 34.5408C88.4263 34.4327 88.5225 34.3493 88.638 34.3054L95.379 32.399C95.6025 32.3367 95.8178 32.4998 95.8599 32.7634C95.8839 32.8843 95.8643 33.0097 95.8046 33.1176C95.745 33.2254 95.6491 33.3087 95.534 33.3527H95.534Z" fill="white"/>
<path d="M89.851 32.2248L88.368 32.6442C88.1447 32.7082 87.9285 32.5467 87.885 32.2836C87.8603 32.1623 87.8795 32.0362 87.9391 31.9277C87.9987 31.8193 88.0949 31.7354 88.2104 31.6912L88.213 31.6905L89.696 31.2711C89.9195 31.2088 90.1348 31.3719 90.1769 31.6354C90.2009 31.7563 90.1813 31.8818 90.1216 31.9897C90.062 32.0975 89.9661 32.1808 89.851 32.2248Z" fill="white"/>
<path d="M96.2153 37.5454L89.4742 39.4517C89.2507 39.5141 89.0354 39.3509 88.9933 39.0874C88.9694 38.9665 88.989 38.841 89.0486 38.7331C89.1083 38.6253 89.2042 38.542 89.3193 38.498L96.0603 36.5916C96.2836 36.5276 96.4998 36.6891 96.5433 36.9523C96.568 37.0735 96.5488 37.1996 96.4892 37.3081C96.4296 37.4166 96.3334 37.5004 96.2178 37.5446L96.2153 37.5454Z" fill="white"/>
<path d="M95.8748 35.4494L89.1338 37.3558C88.9104 37.4193 88.6945 37.2573 88.6514 36.994C88.627 36.8727 88.6463 36.7467 88.7061 36.6383C88.7659 36.5299 88.8622 36.4463 88.9778 36.4023L88.9788 36.4021L95.7198 34.4957C95.9433 34.4334 96.1587 34.5965 96.2007 34.86C96.2247 34.9809 96.2051 35.1064 96.1454 35.2143C96.0858 35.3221 95.9899 35.4054 95.8748 35.4494L95.8748 35.4494Z" fill="white"/>
<path d="M92.1775 25.8245C92.3225 24.7018 91.6804 23.6934 90.7432 23.5724C89.8061 23.4513 88.9287 24.2633 88.7837 25.386C88.6386 26.5088 89.2807 27.5171 90.2179 27.6382C91.1551 27.7593 92.0324 26.9473 92.1775 25.8245Z" fill="#3F3D56"/>
</g>
<defs>
<clipPath id="clip0_345_9032">
<rect width="99.5281" height="92.64" fill="white"/>
</clipPath>
</defs>
</svg>
