<svg width="500" height="250" viewBox="0 0 500 250" fill="none" xmlns="http://www.w3.org/2000/svg">
<g clip-path="url(#clip0_260_9257)">
<path d="M106.987 48.1158C108.713 48.1158 110.112 46.7168 110.112 44.991C110.112 43.2652 108.713 41.8662 106.987 41.8662C105.261 41.8662 103.862 43.2652 103.862 44.991C103.862 46.7168 105.261 48.1158 106.987 48.1158Z" fill="#E6E6E6"/>
<path d="M122.805 48.1158C124.531 48.1158 125.93 46.7168 125.93 44.991C125.93 43.2652 124.531 41.8662 122.805 41.8662C121.079 41.8662 119.68 43.2652 119.68 44.991C119.68 46.7168 121.079 48.1158 122.805 48.1158Z" fill="#E6E6E6"/>
<path d="M138.623 48.1158C140.348 48.1158 141.747 46.7168 141.747 44.991C141.747 43.2652 140.348 41.8662 138.623 41.8662C136.897 41.8662 135.498 43.2652 135.498 44.991C135.498 46.7168 136.897 48.1158 138.623 48.1158Z" fill="#E6E6E6"/>
<path d="M154.44 48.1158C156.166 48.1158 157.565 46.7168 157.565 44.991C157.565 43.2652 156.166 41.8662 154.44 41.8662C152.714 41.8662 151.315 43.2652 151.315 44.991C151.315 46.7168 152.714 48.1158 154.44 48.1158Z" fill="#E6E6E6"/>
<path d="M170.258 48.1158C171.984 48.1158 173.383 46.7168 173.383 44.991C173.383 43.2652 171.984 41.8662 170.258 41.8662C168.532 41.8662 167.133 43.2652 167.133 44.991C167.133 46.7168 168.532 48.1158 170.258 48.1158Z" fill="#E6E6E6"/>
<path d="M186.076 48.1158C187.802 48.1158 189.201 46.7168 189.201 44.991C189.201 43.2652 187.802 41.8662 186.076 41.8662C184.35 41.8662 182.951 43.2652 182.951 44.991C182.951 46.7168 184.35 48.1158 186.076 48.1158Z" fill="#E6E6E6"/>
<path d="M201.893 48.1158C203.619 48.1158 205.018 46.7168 205.018 44.991C205.018 43.2652 203.619 41.8662 201.893 41.8662C200.168 41.8662 198.769 43.2652 198.769 44.991C198.769 46.7168 200.168 48.1158 201.893 48.1158Z" fill="#E6E6E6"/>
<path d="M217.711 48.1158C219.437 48.1158 220.836 46.7168 220.836 44.991C220.836 43.2652 219.437 41.8662 217.711 41.8662C215.985 41.8662 214.586 43.2652 214.586 44.991C214.586 46.7168 215.985 48.1158 217.711 48.1158Z" fill="#E6E6E6"/>
<path d="M233.529 48.1158C235.255 48.1158 236.654 46.7168 236.654 44.991C236.654 43.2652 235.255 41.8662 233.529 41.8662C231.803 41.8662 230.404 43.2652 230.404 44.991C230.404 46.7168 231.803 48.1158 233.529 48.1158Z" fill="#E6E6E6"/>
<path d="M249.346 48.1158C251.072 48.1158 252.471 46.7168 252.471 44.991C252.471 43.2652 251.072 41.8662 249.346 41.8662C247.621 41.8662 246.222 43.2652 246.222 44.991C246.222 46.7168 247.621 48.1158 249.346 48.1158Z" fill="#E6E6E6"/>
<path d="M265.164 48.1158C266.89 48.1158 268.289 46.7168 268.289 44.991C268.289 43.2652 266.89 41.8662 265.164 41.8662C263.439 41.8662 262.04 43.2652 262.04 44.991C262.04 46.7168 263.439 48.1158 265.164 48.1158Z" fill="#E6E6E6"/>
<path d="M280.982 48.1158C282.708 48.1158 284.107 46.7168 284.107 44.991C284.107 43.2652 282.708 41.8662 280.982 41.8662C279.256 41.8662 277.857 43.2652 277.857 44.991C277.857 46.7168 279.256 48.1158 280.982 48.1158Z" fill="#E6E6E6"/>
<path d="M296.8 48.1158C298.526 48.1158 299.925 46.7168 299.925 44.991C299.925 43.2652 298.526 41.8662 296.8 41.8662C295.074 41.8662 293.675 43.2652 293.675 44.991C293.675 46.7168 295.074 48.1158 296.8 48.1158Z" fill="#E6E6E6"/>
<path d="M312.617 48.1158C314.343 48.1158 315.742 46.7168 315.742 44.991C315.742 43.2652 314.343 41.8662 312.617 41.8662C310.892 41.8662 309.493 43.2652 309.493 44.991C309.493 46.7168 310.892 48.1158 312.617 48.1158Z" fill="#E6E6E6"/>
<path d="M328.435 48.1158C330.161 48.1158 331.56 46.7168 331.56 44.991C331.56 43.2652 330.161 41.8662 328.435 41.8662C326.709 41.8662 325.31 43.2652 325.31 44.991C325.31 46.7168 326.709 48.1158 328.435 48.1158Z" fill="#E6E6E6"/>
<path d="M344.253 48.1158C345.979 48.1158 347.378 46.7168 347.378 44.991C347.378 43.2652 345.979 41.8662 344.253 41.8662C342.527 41.8662 341.128 43.2652 341.128 44.991C341.128 46.7168 342.527 48.1158 344.253 48.1158Z" fill="#E6E6E6"/>
<path d="M360.071 48.1158C361.796 48.1158 363.195 46.7168 363.195 44.991C363.195 43.2652 361.796 41.8662 360.071 41.8662C358.345 41.8662 356.946 43.2652 356.946 44.991C356.946 46.7168 358.345 48.1158 360.071 48.1158Z" fill="#E6E6E6"/>
<path d="M375.888 48.1158C377.614 48.1158 379.013 46.7168 379.013 44.991C379.013 43.2652 377.614 41.8662 375.888 41.8662C374.162 41.8662 372.763 43.2652 372.763 44.991C372.763 46.7168 374.162 48.1158 375.888 48.1158Z" fill="#E6E6E6"/>
<path d="M391.706 48.1158C393.432 48.1158 394.831 46.7168 394.831 44.991C394.831 43.2652 393.432 41.8662 391.706 41.8662C389.98 41.8662 388.581 43.2652 388.581 44.991C388.581 46.7168 389.98 48.1158 391.706 48.1158Z" fill="#E6E6E6"/>
<path d="M407.524 48.1158C409.25 48.1158 410.649 46.7168 410.649 44.991C410.649 43.2652 409.25 41.8662 407.524 41.8662C405.798 41.8662 404.399 43.2652 404.399 44.991C404.399 46.7168 405.798 48.1158 407.524 48.1158Z" fill="#E6E6E6"/>
<path d="M423.342 48.1158C425.067 48.1158 426.466 46.7168 426.466 44.991C426.466 43.2652 425.067 41.8662 423.342 41.8662C421.616 41.8662 420.217 43.2652 420.217 44.991C420.217 46.7168 421.616 48.1158 423.342 48.1158Z" fill="#E6E6E6"/>
<path d="M439.159 48.1158C440.885 48.1158 442.284 46.7168 442.284 44.991C442.284 43.2652 440.885 41.8662 439.159 41.8662C437.433 41.8662 436.034 43.2652 436.034 44.991C436.034 46.7168 437.433 48.1158 439.159 48.1158Z" fill="#E6E6E6"/>
<path d="M106.987 64.1324C108.713 64.1324 110.112 62.7334 110.112 61.0076C110.112 59.2818 108.713 57.8828 106.987 57.8828C105.261 57.8828 103.862 59.2818 103.862 61.0076C103.862 62.7334 105.261 64.1324 106.987 64.1324Z" fill="#E6E6E6"/>
<path d="M122.805 64.1324C124.531 64.1324 125.93 62.7334 125.93 61.0076C125.93 59.2818 124.531 57.8828 122.805 57.8828C121.079 57.8828 119.68 59.2818 119.68 61.0076C119.68 62.7334 121.079 64.1324 122.805 64.1324Z" fill="#E6E6E6"/>
<path d="M138.623 64.1324C140.348 64.1324 141.747 62.7334 141.747 61.0076C141.747 59.2818 140.348 57.8828 138.623 57.8828C136.897 57.8828 135.498 59.2818 135.498 61.0076C135.498 62.7334 136.897 64.1324 138.623 64.1324Z" fill="#E6E6E6"/>
<path d="M154.44 64.1324C156.166 64.1324 157.565 62.7334 157.565 61.0076C157.565 59.2818 156.166 57.8828 154.44 57.8828C152.714 57.8828 151.315 59.2818 151.315 61.0076C151.315 62.7334 152.714 64.1324 154.44 64.1324Z" fill="#E6E6E6"/>
<path d="M170.258 64.1324C171.984 64.1324 173.383 62.7334 173.383 61.0076C173.383 59.2818 171.984 57.8828 170.258 57.8828C168.532 57.8828 167.133 59.2818 167.133 61.0076C167.133 62.7334 168.532 64.1324 170.258 64.1324Z" fill="#E6E6E6"/>
<path d="M186.076 64.1324C187.802 64.1324 189.201 62.7334 189.201 61.0076C189.201 59.2818 187.802 57.8828 186.076 57.8828C184.35 57.8828 182.951 59.2818 182.951 61.0076C182.951 62.7334 184.35 64.1324 186.076 64.1324Z" fill="#E6E6E6"/>
<path d="M201.893 64.1324C203.619 64.1324 205.018 62.7334 205.018 61.0076C205.018 59.2818 203.619 57.8828 201.893 57.8828C200.168 57.8828 198.769 59.2818 198.769 61.0076C198.769 62.7334 200.168 64.1324 201.893 64.1324Z" fill="#E6E6E6"/>
<path d="M217.711 64.1324C219.437 64.1324 220.836 62.7334 220.836 61.0076C220.836 59.2818 219.437 57.8828 217.711 57.8828C215.985 57.8828 214.586 59.2818 214.586 61.0076C214.586 62.7334 215.985 64.1324 217.711 64.1324Z" fill="#E6E6E6"/>
<path d="M233.529 64.1324C235.255 64.1324 236.654 62.7334 236.654 61.0076C236.654 59.2818 235.255 57.8828 233.529 57.8828C231.803 57.8828 230.404 59.2818 230.404 61.0076C230.404 62.7334 231.803 64.1324 233.529 64.1324Z" fill="#E6E6E6"/>
<path d="M249.346 64.1324C251.072 64.1324 252.471 62.7334 252.471 61.0076C252.471 59.2818 251.072 57.8828 249.346 57.8828C247.621 57.8828 246.222 59.2818 246.222 61.0076C246.222 62.7334 247.621 64.1324 249.346 64.1324Z" fill="#E6E6E6"/>
<path d="M265.164 64.1324C266.89 64.1324 268.289 62.7334 268.289 61.0076C268.289 59.2818 266.89 57.8828 265.164 57.8828C263.439 57.8828 262.04 59.2818 262.04 61.0076C262.04 62.7334 263.439 64.1324 265.164 64.1324Z" fill="#E6E6E6"/>
<path d="M280.982 64.1324C282.708 64.1324 284.107 62.7334 284.107 61.0076C284.107 59.2818 282.708 57.8828 280.982 57.8828C279.256 57.8828 277.857 59.2818 277.857 61.0076C277.857 62.7334 279.256 64.1324 280.982 64.1324Z" fill="#E6E6E6"/>
<path d="M296.8 64.1324C298.526 64.1324 299.925 62.7334 299.925 61.0076C299.925 59.2818 298.526 57.8828 296.8 57.8828C295.074 57.8828 293.675 59.2818 293.675 61.0076C293.675 62.7334 295.074 64.1324 296.8 64.1324Z" fill="#E6E6E6"/>
<path d="M312.617 64.1324C314.343 64.1324 315.742 62.7334 315.742 61.0076C315.742 59.2818 314.343 57.8828 312.617 57.8828C310.892 57.8828 309.493 59.2818 309.493 61.0076C309.493 62.7334 310.892 64.1324 312.617 64.1324Z" fill="#E6E6E6"/>
<path d="M328.435 64.1324C330.161 64.1324 331.56 62.7334 331.56 61.0076C331.56 59.2818 330.161 57.8828 328.435 57.8828C326.709 57.8828 325.31 59.2818 325.31 61.0076C325.31 62.7334 326.709 64.1324 328.435 64.1324Z" fill="#E6E6E6"/>
<path d="M344.253 64.1324C345.979 64.1324 347.378 62.7334 347.378 61.0076C347.378 59.2818 345.979 57.8828 344.253 57.8828C342.527 57.8828 341.128 59.2818 341.128 61.0076C341.128 62.7334 342.527 64.1324 344.253 64.1324Z" fill="#E6E6E6"/>
<path d="M360.071 64.1324C361.796 64.1324 363.195 62.7334 363.195 61.0076C363.195 59.2818 361.796 57.8828 360.071 57.8828C358.345 57.8828 356.946 59.2818 356.946 61.0076C356.946 62.7334 358.345 64.1324 360.071 64.1324Z" fill="#E6E6E6"/>
<path d="M375.888 64.1324C377.614 64.1324 379.013 62.7334 379.013 61.0076C379.013 59.2818 377.614 57.8828 375.888 57.8828C374.162 57.8828 372.763 59.2818 372.763 61.0076C372.763 62.7334 374.162 64.1324 375.888 64.1324Z" fill="#E6E6E6"/>
<path d="M391.706 64.1324C393.432 64.1324 394.831 62.7334 394.831 61.0076C394.831 59.2818 393.432 57.8828 391.706 57.8828C389.98 57.8828 388.581 59.2818 388.581 61.0076C388.581 62.7334 389.98 64.1324 391.706 64.1324Z" fill="#E6E6E6"/>
<path d="M407.524 64.1324C409.25 64.1324 410.649 62.7334 410.649 61.0076C410.649 59.2818 409.25 57.8828 407.524 57.8828C405.798 57.8828 404.399 59.2818 404.399 61.0076C404.399 62.7334 405.798 64.1324 407.524 64.1324Z" fill="#E6E6E6"/>
<path d="M423.342 64.1324C425.067 64.1324 426.466 62.7334 426.466 61.0076C426.466 59.2818 425.067 57.8828 423.342 57.8828C421.616 57.8828 420.217 59.2818 420.217 61.0076C420.217 62.7334 421.616 64.1324 423.342 64.1324Z" fill="#E6E6E6"/>
<path d="M439.159 64.1324C440.885 64.1324 442.284 62.7334 442.284 61.0076C442.284 59.2818 440.885 57.8828 439.159 57.8828C437.433 57.8828 436.034 59.2818 436.034 61.0076C436.034 62.7334 437.433 64.1324 439.159 64.1324Z" fill="#E6E6E6"/>
<path d="M106.987 80.148C108.713 80.148 110.112 78.749 110.112 77.0232C110.112 75.2975 108.713 73.8984 106.987 73.8984C105.261 73.8984 103.862 75.2975 103.862 77.0232C103.862 78.749 105.261 80.148 106.987 80.148Z" fill="#E6E6E6"/>
<path d="M122.805 80.148C124.531 80.148 125.93 78.749 125.93 77.0232C125.93 75.2975 124.531 73.8984 122.805 73.8984C121.079 73.8984 119.68 75.2975 119.68 77.0232C119.68 78.749 121.079 80.148 122.805 80.148Z" fill="#E6E6E6"/>
<path d="M138.623 80.148C140.348 80.148 141.747 78.749 141.747 77.0232C141.747 75.2975 140.348 73.8984 138.623 73.8984C136.897 73.8984 135.498 75.2975 135.498 77.0232C135.498 78.749 136.897 80.148 138.623 80.148Z" fill="#E6E6E6"/>
<path d="M154.44 80.148C156.166 80.148 157.565 78.749 157.565 77.0232C157.565 75.2975 156.166 73.8984 154.44 73.8984C152.714 73.8984 151.315 75.2975 151.315 77.0232C151.315 78.749 152.714 80.148 154.44 80.148Z" fill="#E6E6E6"/>
<path d="M170.258 80.148C171.984 80.148 173.383 78.749 173.383 77.0232C173.383 75.2975 171.984 73.8984 170.258 73.8984C168.532 73.8984 167.133 75.2975 167.133 77.0232C167.133 78.749 168.532 80.148 170.258 80.148Z" fill="#E6E6E6"/>
<path d="M186.076 80.148C187.802 80.148 189.201 78.749 189.201 77.0232C189.201 75.2975 187.802 73.8984 186.076 73.8984C184.35 73.8984 182.951 75.2975 182.951 77.0232C182.951 78.749 184.35 80.148 186.076 80.148Z" fill="#E6E6E6"/>
<path d="M201.893 80.148C203.619 80.148 205.018 78.749 205.018 77.0232C205.018 75.2975 203.619 73.8984 201.893 73.8984C200.168 73.8984 198.769 75.2975 198.769 77.0232C198.769 78.749 200.168 80.148 201.893 80.148Z" fill="#E6E6E6"/>
<path d="M217.711 80.148C219.437 80.148 220.836 78.749 220.836 77.0232C220.836 75.2975 219.437 73.8984 217.711 73.8984C215.985 73.8984 214.586 75.2975 214.586 77.0232C214.586 78.749 215.985 80.148 217.711 80.148Z" fill="#E6E6E6"/>
<path d="M233.529 80.148C235.255 80.148 236.654 78.749 236.654 77.0232C236.654 75.2975 235.255 73.8984 233.529 73.8984C231.803 73.8984 230.404 75.2975 230.404 77.0232C230.404 78.749 231.803 80.148 233.529 80.148Z" fill="#E6E6E6"/>
<path d="M249.346 80.148C251.072 80.148 252.471 78.749 252.471 77.0232C252.471 75.2975 251.072 73.8984 249.346 73.8984C247.621 73.8984 246.222 75.2975 246.222 77.0232C246.222 78.749 247.621 80.148 249.346 80.148Z" fill="#E6E6E6"/>
<path d="M265.164 80.148C266.89 80.148 268.289 78.749 268.289 77.0232C268.289 75.2975 266.89 73.8984 265.164 73.8984C263.439 73.8984 262.04 75.2975 262.04 77.0232C262.04 78.749 263.439 80.148 265.164 80.148Z" fill="#E6E6E6"/>
<path d="M280.982 80.148C282.708 80.148 284.107 78.749 284.107 77.0232C284.107 75.2975 282.708 73.8984 280.982 73.8984C279.256 73.8984 277.857 75.2975 277.857 77.0232C277.857 78.749 279.256 80.148 280.982 80.148Z" fill="#E6E6E6"/>
<path d="M296.8 80.148C298.526 80.148 299.925 78.749 299.925 77.0232C299.925 75.2975 298.526 73.8984 296.8 73.8984C295.074 73.8984 293.675 75.2975 293.675 77.0232C293.675 78.749 295.074 80.148 296.8 80.148Z" fill="#E6E6E6"/>
<path d="M312.617 80.148C314.343 80.148 315.742 78.749 315.742 77.0232C315.742 75.2975 314.343 73.8984 312.617 73.8984C310.892 73.8984 309.493 75.2975 309.493 77.0232C309.493 78.749 310.892 80.148 312.617 80.148Z" fill="#E6E6E6"/>
<path d="M328.435 80.148C330.161 80.148 331.56 78.749 331.56 77.0232C331.56 75.2975 330.161 73.8984 328.435 73.8984C326.709 73.8984 325.31 75.2975 325.31 77.0232C325.31 78.749 326.709 80.148 328.435 80.148Z" fill="#E6E6E6"/>
<path d="M344.253 80.148C345.979 80.148 347.378 78.749 347.378 77.0232C347.378 75.2975 345.979 73.8984 344.253 73.8984C342.527 73.8984 341.128 75.2975 341.128 77.0232C341.128 78.749 342.527 80.148 344.253 80.148Z" fill="#E6E6E6"/>
<path d="M360.071 80.148C361.796 80.148 363.195 78.749 363.195 77.0232C363.195 75.2975 361.796 73.8984 360.071 73.8984C358.345 73.8984 356.946 75.2975 356.946 77.0232C356.946 78.749 358.345 80.148 360.071 80.148Z" fill="#E6E6E6"/>
<path d="M375.888 80.148C377.614 80.148 379.013 78.749 379.013 77.0232C379.013 75.2975 377.614 73.8984 375.888 73.8984C374.162 73.8984 372.763 75.2975 372.763 77.0232C372.763 78.749 374.162 80.148 375.888 80.148Z" fill="#E6E6E6"/>
<path d="M391.706 80.148C393.432 80.148 394.831 78.749 394.831 77.0232C394.831 75.2975 393.432 73.8984 391.706 73.8984C389.98 73.8984 388.581 75.2975 388.581 77.0232C388.581 78.749 389.98 80.148 391.706 80.148Z" fill="#E6E6E6"/>
<path d="M407.524 80.148C409.25 80.148 410.649 78.749 410.649 77.0232C410.649 75.2975 409.25 73.8984 407.524 73.8984C405.798 73.8984 404.399 75.2975 404.399 77.0232C404.399 78.749 405.798 80.148 407.524 80.148Z" fill="#E6E6E6"/>
<path d="M423.342 80.148C425.067 80.148 426.466 78.749 426.466 77.0232C426.466 75.2975 425.067 73.8984 423.342 73.8984C421.616 73.8984 420.217 75.2975 420.217 77.0232C420.217 78.749 421.616 80.148 423.342 80.148Z" fill="#E6E6E6"/>
<path d="M439.159 80.148C440.885 80.148 442.284 78.749 442.284 77.0232C442.284 75.2975 440.885 73.8984 439.159 73.8984C437.433 73.8984 436.034 75.2975 436.034 77.0232C436.034 78.749 437.433 80.148 439.159 80.148Z" fill="#E6E6E6"/>
<path d="M106.987 96.1646C108.713 96.1646 110.112 94.7656 110.112 93.0398C110.112 91.3141 108.713 89.915 106.987 89.915C105.261 89.915 103.862 91.3141 103.862 93.0398C103.862 94.7656 105.261 96.1646 106.987 96.1646Z" fill="#E6E6E6"/>
<path d="M122.805 96.1646C124.531 96.1646 125.93 94.7656 125.93 93.0398C125.93 91.3141 124.531 89.915 122.805 89.915C121.079 89.915 119.68 91.3141 119.68 93.0398C119.68 94.7656 121.079 96.1646 122.805 96.1646Z" fill="#E6E6E6"/>
<path d="M138.623 96.1646C140.348 96.1646 141.747 94.7656 141.747 93.0398C141.747 91.3141 140.348 89.915 138.623 89.915C136.897 89.915 135.498 91.3141 135.498 93.0398C135.498 94.7656 136.897 96.1646 138.623 96.1646Z" fill="#E6E6E6"/>
<path d="M154.44 96.1646C156.166 96.1646 157.565 94.7656 157.565 93.0398C157.565 91.3141 156.166 89.915 154.44 89.915C152.714 89.915 151.315 91.3141 151.315 93.0398C151.315 94.7656 152.714 96.1646 154.44 96.1646Z" fill="#E6E6E6"/>
<path d="M170.258 96.1646C171.984 96.1646 173.383 94.7656 173.383 93.0398C173.383 91.3141 171.984 89.915 170.258 89.915C168.532 89.915 167.133 91.3141 167.133 93.0398C167.133 94.7656 168.532 96.1646 170.258 96.1646Z" fill="#E6E6E6"/>
<path d="M186.076 96.1646C187.802 96.1646 189.201 94.7656 189.201 93.0398C189.201 91.3141 187.802 89.915 186.076 89.915C184.35 89.915 182.951 91.3141 182.951 93.0398C182.951 94.7656 184.35 96.1646 186.076 96.1646Z" fill="#E6E6E6"/>
<path d="M201.893 96.1646C203.619 96.1646 205.018 94.7656 205.018 93.0398C205.018 91.3141 203.619 89.915 201.893 89.915C200.168 89.915 198.769 91.3141 198.769 93.0398C198.769 94.7656 200.168 96.1646 201.893 96.1646Z" fill="#E6E6E6"/>
<path d="M217.711 96.1646C219.437 96.1646 220.836 94.7656 220.836 93.0398C220.836 91.3141 219.437 89.915 217.711 89.915C215.985 89.915 214.586 91.3141 214.586 93.0398C214.586 94.7656 215.985 96.1646 217.711 96.1646Z" fill="#E6E6E6"/>
<path d="M233.529 96.1646C235.255 96.1646 236.654 94.7656 236.654 93.0398C236.654 91.3141 235.255 89.915 233.529 89.915C231.803 89.915 230.404 91.3141 230.404 93.0398C230.404 94.7656 231.803 96.1646 233.529 96.1646Z" fill="#E6E6E6"/>
<path d="M249.346 96.1646C251.072 96.1646 252.471 94.7656 252.471 93.0398C252.471 91.3141 251.072 89.915 249.346 89.915C247.621 89.915 246.222 91.3141 246.222 93.0398C246.222 94.7656 247.621 96.1646 249.346 96.1646Z" fill="#E6E6E6"/>
<path d="M265.164 96.1646C266.89 96.1646 268.289 94.7656 268.289 93.0398C268.289 91.3141 266.89 89.915 265.164 89.915C263.439 89.915 262.04 91.3141 262.04 93.0398C262.04 94.7656 263.439 96.1646 265.164 96.1646Z" fill="#E6E6E6"/>
<path d="M280.982 96.1646C282.708 96.1646 284.107 94.7656 284.107 93.0398C284.107 91.3141 282.708 89.915 280.982 89.915C279.256 89.915 277.857 91.3141 277.857 93.0398C277.857 94.7656 279.256 96.1646 280.982 96.1646Z" fill="#E6E6E6"/>
<path d="M296.8 96.1646C298.526 96.1646 299.925 94.7656 299.925 93.0398C299.925 91.3141 298.526 89.915 296.8 89.915C295.074 89.915 293.675 91.3141 293.675 93.0398C293.675 94.7656 295.074 96.1646 296.8 96.1646Z" fill="#E6E6E6"/>
<path d="M312.617 96.1646C314.343 96.1646 315.742 94.7656 315.742 93.0398C315.742 91.3141 314.343 89.915 312.617 89.915C310.892 89.915 309.493 91.3141 309.493 93.0398C309.493 94.7656 310.892 96.1646 312.617 96.1646Z" fill="#E6E6E6"/>
<path d="M328.435 96.1646C330.161 96.1646 331.56 94.7656 331.56 93.0398C331.56 91.3141 330.161 89.915 328.435 89.915C326.709 89.915 325.31 91.3141 325.31 93.0398C325.31 94.7656 326.709 96.1646 328.435 96.1646Z" fill="#E6E6E6"/>
<path d="M344.253 96.1646C345.979 96.1646 347.378 94.7656 347.378 93.0398C347.378 91.3141 345.979 89.915 344.253 89.915C342.527 89.915 341.128 91.3141 341.128 93.0398C341.128 94.7656 342.527 96.1646 344.253 96.1646Z" fill="#E6E6E6"/>
<path d="M360.071 96.1646C361.796 96.1646 363.195 94.7656 363.195 93.0398C363.195 91.3141 361.796 89.915 360.071 89.915C358.345 89.915 356.946 91.3141 356.946 93.0398C356.946 94.7656 358.345 96.1646 360.071 96.1646Z" fill="#E6E6E6"/>
<path d="M375.888 96.1646C377.614 96.1646 379.013 94.7656 379.013 93.0398C379.013 91.3141 377.614 89.915 375.888 89.915C374.162 89.915 372.763 91.3141 372.763 93.0398C372.763 94.7656 374.162 96.1646 375.888 96.1646Z" fill="#E6E6E6"/>
<path d="M391.706 96.1646C393.432 96.1646 394.831 94.7656 394.831 93.0398C394.831 91.3141 393.432 89.915 391.706 89.915C389.98 89.915 388.581 91.3141 388.581 93.0398C388.581 94.7656 389.98 96.1646 391.706 96.1646Z" fill="#E6E6E6"/>
<path d="M407.524 96.1646C409.25 96.1646 410.649 94.7656 410.649 93.0398C410.649 91.3141 409.25 89.915 407.524 89.915C405.798 89.915 404.399 91.3141 404.399 93.0398C404.399 94.7656 405.798 96.1646 407.524 96.1646Z" fill="#E6E6E6"/>
<path d="M423.342 96.1646C425.067 96.1646 426.466 94.7656 426.466 93.0398C426.466 91.3141 425.067 89.915 423.342 89.915C421.616 89.915 420.217 91.3141 420.217 93.0398C420.217 94.7656 421.616 96.1646 423.342 96.1646Z" fill="#E6E6E6"/>
<path d="M439.159 96.1646C440.885 96.1646 442.284 94.7656 442.284 93.0398C442.284 91.3141 440.885 89.915 439.159 89.915C437.433 89.915 436.034 91.3141 436.034 93.0398C436.034 94.7656 437.433 96.1646 439.159 96.1646Z" fill="#E6E6E6"/>
<path d="M106.987 112.181C108.713 112.181 110.112 110.782 110.112 109.056C110.112 107.331 108.713 105.932 106.987 105.932C105.261 105.932 103.862 107.331 103.862 109.056C103.862 110.782 105.261 112.181 106.987 112.181Z" fill="#E6E6E6"/>
<path d="M122.805 112.181C124.531 112.181 125.93 110.782 125.93 109.056C125.93 107.331 124.531 105.932 122.805 105.932C121.079 105.932 119.68 107.331 119.68 109.056C119.68 110.782 121.079 112.181 122.805 112.181Z" fill="#E6E6E6"/>
<path d="M138.623 112.181C140.348 112.181 141.747 110.782 141.747 109.056C141.747 107.331 140.348 105.932 138.623 105.932C136.897 105.932 135.498 107.331 135.498 109.056C135.498 110.782 136.897 112.181 138.623 112.181Z" fill="#E6E6E6"/>
<path d="M154.44 112.181C156.166 112.181 157.565 110.782 157.565 109.056C157.565 107.331 156.166 105.932 154.44 105.932C152.714 105.932 151.315 107.331 151.315 109.056C151.315 110.782 152.714 112.181 154.44 112.181Z" fill="#E6E6E6"/>
<path d="M170.258 112.181C171.984 112.181 173.383 110.782 173.383 109.056C173.383 107.331 171.984 105.932 170.258 105.932C168.532 105.932 167.133 107.331 167.133 109.056C167.133 110.782 168.532 112.181 170.258 112.181Z" fill="#E6E6E6"/>
<path d="M186.076 112.181C187.802 112.181 189.201 110.782 189.201 109.056C189.201 107.331 187.802 105.932 186.076 105.932C184.35 105.932 182.951 107.331 182.951 109.056C182.951 110.782 184.35 112.181 186.076 112.181Z" fill="#E6E6E6"/>
<path d="M201.893 112.181C203.619 112.181 205.018 110.782 205.018 109.056C205.018 107.331 203.619 105.932 201.893 105.932C200.168 105.932 198.769 107.331 198.769 109.056C198.769 110.782 200.168 112.181 201.893 112.181Z" fill="#E6E6E6"/>
<path d="M217.711 112.181C219.437 112.181 220.836 110.782 220.836 109.056C220.836 107.331 219.437 105.932 217.711 105.932C215.985 105.932 214.586 107.331 214.586 109.056C214.586 110.782 215.985 112.181 217.711 112.181Z" fill="#E6E6E6"/>
<path d="M233.529 112.181C235.255 112.181 236.654 110.782 236.654 109.056C236.654 107.331 235.255 105.932 233.529 105.932C231.803 105.932 230.404 107.331 230.404 109.056C230.404 110.782 231.803 112.181 233.529 112.181Z" fill="#E6E6E6"/>
<path d="M249.346 112.181C251.072 112.181 252.471 110.782 252.471 109.056C252.471 107.331 251.072 105.932 249.346 105.932C247.621 105.932 246.222 107.331 246.222 109.056C246.222 110.782 247.621 112.181 249.346 112.181Z" fill="#E6E6E6"/>
<path d="M265.164 112.181C266.89 112.181 268.289 110.782 268.289 109.056C268.289 107.331 266.89 105.932 265.164 105.932C263.439 105.932 262.04 107.331 262.04 109.056C262.04 110.782 263.439 112.181 265.164 112.181Z" fill="#E6E6E6"/>
<path d="M280.982 112.181C282.708 112.181 284.107 110.782 284.107 109.056C284.107 107.331 282.708 105.932 280.982 105.932C279.256 105.932 277.857 107.331 277.857 109.056C277.857 110.782 279.256 112.181 280.982 112.181Z" fill="#E6E6E6"/>
<path d="M296.8 112.181C298.526 112.181 299.925 110.782 299.925 109.056C299.925 107.331 298.526 105.932 296.8 105.932C295.074 105.932 293.675 107.331 293.675 109.056C293.675 110.782 295.074 112.181 296.8 112.181Z" fill="#E6E6E6"/>
<path d="M312.617 112.181C314.343 112.181 315.742 110.782 315.742 109.056C315.742 107.331 314.343 105.932 312.617 105.932C310.892 105.932 309.493 107.331 309.493 109.056C309.493 110.782 310.892 112.181 312.617 112.181Z" fill="#E6E6E6"/>
<path d="M328.435 112.181C330.161 112.181 331.56 110.782 331.56 109.056C331.56 107.331 330.161 105.932 328.435 105.932C326.709 105.932 325.31 107.331 325.31 109.056C325.31 110.782 326.709 112.181 328.435 112.181Z" fill="#E6E6E6"/>
<path d="M344.253 112.181C345.979 112.181 347.378 110.782 347.378 109.056C347.378 107.331 345.979 105.932 344.253 105.932C342.527 105.932 341.128 107.331 341.128 109.056C341.128 110.782 342.527 112.181 344.253 112.181Z" fill="#E6E6E6"/>
<path d="M360.071 112.181C361.796 112.181 363.195 110.782 363.195 109.056C363.195 107.331 361.796 105.932 360.071 105.932C358.345 105.932 356.946 107.331 356.946 109.056C356.946 110.782 358.345 112.181 360.071 112.181Z" fill="#E6E6E6"/>
<path d="M375.888 112.181C377.614 112.181 379.013 110.782 379.013 109.056C379.013 107.331 377.614 105.932 375.888 105.932C374.162 105.932 372.763 107.331 372.763 109.056C372.763 110.782 374.162 112.181 375.888 112.181Z" fill="#E6E6E6"/>
<path d="M391.706 112.181C393.432 112.181 394.831 110.782 394.831 109.056C394.831 107.331 393.432 105.932 391.706 105.932C389.98 105.932 388.581 107.331 388.581 109.056C388.581 110.782 389.98 112.181 391.706 112.181Z" fill="#E6E6E6"/>
<path d="M407.524 112.181C409.25 112.181 410.649 110.782 410.649 109.056C410.649 107.331 409.25 105.932 407.524 105.932C405.798 105.932 404.399 107.331 404.399 109.056C404.399 110.782 405.798 112.181 407.524 112.181Z" fill="#E6E6E6"/>
<path d="M423.342 112.181C425.067 112.181 426.466 110.782 426.466 109.056C426.466 107.331 425.067 105.932 423.342 105.932C421.616 105.932 420.217 107.331 420.217 109.056C420.217 110.782 421.616 112.181 423.342 112.181Z" fill="#E6E6E6"/>
<path d="M439.159 112.181C440.885 112.181 442.284 110.782 442.284 109.056C442.284 107.331 440.885 105.932 439.159 105.932C437.433 105.932 436.034 107.331 436.034 109.056C436.034 110.782 437.433 112.181 439.159 112.181Z" fill="#E6E6E6"/>
<path d="M106.987 128.197C108.713 128.197 110.112 126.798 110.112 125.072C110.112 123.346 108.713 121.947 106.987 121.947C105.261 121.947 103.862 123.346 103.862 125.072C103.862 126.798 105.261 128.197 106.987 128.197Z" fill="#E6E6E6"/>
<path d="M122.805 128.197C124.531 128.197 125.93 126.798 125.93 125.072C125.93 123.346 124.531 121.947 122.805 121.947C121.079 121.947 119.68 123.346 119.68 125.072C119.68 126.798 121.079 128.197 122.805 128.197Z" fill="#E6E6E6"/>
<path d="M138.623 128.197C140.348 128.197 141.747 126.798 141.747 125.072C141.747 123.346 140.348 121.947 138.623 121.947C136.897 121.947 135.498 123.346 135.498 125.072C135.498 126.798 136.897 128.197 138.623 128.197Z" fill="#E6E6E6"/>
<path d="M154.44 128.197C156.166 128.197 157.565 126.798 157.565 125.072C157.565 123.346 156.166 121.947 154.44 121.947C152.714 121.947 151.315 123.346 151.315 125.072C151.315 126.798 152.714 128.197 154.44 128.197Z" fill="#E6E6E6"/>
<path d="M170.258 128.197C171.984 128.197 173.383 126.798 173.383 125.072C173.383 123.346 171.984 121.947 170.258 121.947C168.532 121.947 167.133 123.346 167.133 125.072C167.133 126.798 168.532 128.197 170.258 128.197Z" fill="#E6E6E6"/>
<path d="M186.076 128.197C187.802 128.197 189.201 126.798 189.201 125.072C189.201 123.346 187.802 121.947 186.076 121.947C184.35 121.947 182.951 123.346 182.951 125.072C182.951 126.798 184.35 128.197 186.076 128.197Z" fill="#E6E6E6"/>
<path d="M201.893 128.197C203.619 128.197 205.018 126.798 205.018 125.072C205.018 123.346 203.619 121.947 201.893 121.947C200.168 121.947 198.769 123.346 198.769 125.072C198.769 126.798 200.168 128.197 201.893 128.197Z" fill="#E6E6E6"/>
<path d="M217.711 128.197C219.437 128.197 220.836 126.798 220.836 125.072C220.836 123.346 219.437 121.947 217.711 121.947C215.985 121.947 214.586 123.346 214.586 125.072C214.586 126.798 215.985 128.197 217.711 128.197Z" fill="#E6E6E6"/>
<path d="M233.529 128.197C235.255 128.197 236.654 126.798 236.654 125.072C236.654 123.346 235.255 121.947 233.529 121.947C231.803 121.947 230.404 123.346 230.404 125.072C230.404 126.798 231.803 128.197 233.529 128.197Z" fill="#E6E6E6"/>
<path d="M249.346 128.197C251.072 128.197 252.471 126.798 252.471 125.072C252.471 123.346 251.072 121.947 249.346 121.947C247.621 121.947 246.222 123.346 246.222 125.072C246.222 126.798 247.621 128.197 249.346 128.197Z" fill="#E6E6E6"/>
<path d="M265.164 128.197C266.89 128.197 268.289 126.798 268.289 125.072C268.289 123.346 266.89 121.947 265.164 121.947C263.439 121.947 262.04 123.346 262.04 125.072C262.04 126.798 263.439 128.197 265.164 128.197Z" fill="#E6E6E6"/>
<path d="M280.982 128.197C282.708 128.197 284.107 126.798 284.107 125.072C284.107 123.346 282.708 121.947 280.982 121.947C279.256 121.947 277.857 123.346 277.857 125.072C277.857 126.798 279.256 128.197 280.982 128.197Z" fill="#E6E6E6"/>
<path d="M296.8 128.197C298.526 128.197 299.925 126.798 299.925 125.072C299.925 123.346 298.526 121.947 296.8 121.947C295.074 121.947 293.675 123.346 293.675 125.072C293.675 126.798 295.074 128.197 296.8 128.197Z" fill="#E6E6E6"/>
<path d="M312.617 128.197C314.343 128.197 315.742 126.798 315.742 125.072C315.742 123.346 314.343 121.947 312.617 121.947C310.892 121.947 309.493 123.346 309.493 125.072C309.493 126.798 310.892 128.197 312.617 128.197Z" fill="#E6E6E6"/>
<path d="M328.435 128.197C330.161 128.197 331.56 126.798 331.56 125.072C331.56 123.346 330.161 121.947 328.435 121.947C326.709 121.947 325.31 123.346 325.31 125.072C325.31 126.798 326.709 128.197 328.435 128.197Z" fill="#E6E6E6"/>
<path d="M344.253 128.197C345.979 128.197 347.378 126.798 347.378 125.072C347.378 123.346 345.979 121.947 344.253 121.947C342.527 121.947 341.128 123.346 341.128 125.072C341.128 126.798 342.527 128.197 344.253 128.197Z" fill="#E6E6E6"/>
<path d="M360.071 128.197C361.796 128.197 363.195 126.798 363.195 125.072C363.195 123.346 361.796 121.947 360.071 121.947C358.345 121.947 356.946 123.346 356.946 125.072C356.946 126.798 358.345 128.197 360.071 128.197Z" fill="#E6E6E6"/>
<path d="M375.888 128.197C377.614 128.197 379.013 126.798 379.013 125.072C379.013 123.346 377.614 121.947 375.888 121.947C374.162 121.947 372.763 123.346 372.763 125.072C372.763 126.798 374.162 128.197 375.888 128.197Z" fill="#E6E6E6"/>
<path d="M391.706 128.197C393.432 128.197 394.831 126.798 394.831 125.072C394.831 123.346 393.432 121.947 391.706 121.947C389.98 121.947 388.581 123.346 388.581 125.072C388.581 126.798 389.98 128.197 391.706 128.197Z" fill="#E6E6E6"/>
<path d="M407.524 128.197C409.25 128.197 410.649 126.798 410.649 125.072C410.649 123.346 409.25 121.947 407.524 121.947C405.798 121.947 404.399 123.346 404.399 125.072C404.399 126.798 405.798 128.197 407.524 128.197Z" fill="#E6E6E6"/>
<path d="M423.342 128.197C425.067 128.197 426.466 126.798 426.466 125.072C426.466 123.346 425.067 121.947 423.342 121.947C421.616 121.947 420.217 123.346 420.217 125.072C420.217 126.798 421.616 128.197 423.342 128.197Z" fill="#E6E6E6"/>
<path d="M439.159 128.197C440.885 128.197 442.284 126.798 442.284 125.072C442.284 123.346 440.885 121.947 439.159 121.947C437.433 121.947 436.034 123.346 436.034 125.072C436.034 126.798 437.433 128.197 439.159 128.197Z" fill="#E6E6E6"/>
<path d="M106.987 144.213C108.713 144.213 110.112 142.814 110.112 141.089C110.112 139.363 108.713 137.964 106.987 137.964C105.261 137.964 103.862 139.363 103.862 141.089C103.862 142.814 105.261 144.213 106.987 144.213Z" fill="#E6E6E6"/>
<path d="M122.805 144.213C124.531 144.213 125.93 142.814 125.93 141.089C125.93 139.363 124.531 137.964 122.805 137.964C121.079 137.964 119.68 139.363 119.68 141.089C119.68 142.814 121.079 144.213 122.805 144.213Z" fill="#E6E6E6"/>
<path d="M138.623 144.213C140.348 144.213 141.747 142.814 141.747 141.089C141.747 139.363 140.348 137.964 138.623 137.964C136.897 137.964 135.498 139.363 135.498 141.089C135.498 142.814 136.897 144.213 138.623 144.213Z" fill="#E6E6E6"/>
<path d="M154.44 144.213C156.166 144.213 157.565 142.814 157.565 141.089C157.565 139.363 156.166 137.964 154.44 137.964C152.714 137.964 151.315 139.363 151.315 141.089C151.315 142.814 152.714 144.213 154.44 144.213Z" fill="#E6E6E6"/>
<path d="M170.258 144.213C171.984 144.213 173.383 142.814 173.383 141.089C173.383 139.363 171.984 137.964 170.258 137.964C168.532 137.964 167.133 139.363 167.133 141.089C167.133 142.814 168.532 144.213 170.258 144.213Z" fill="#E6E6E6"/>
<path d="M186.076 144.213C187.802 144.213 189.201 142.814 189.201 141.089C189.201 139.363 187.802 137.964 186.076 137.964C184.35 137.964 182.951 139.363 182.951 141.089C182.951 142.814 184.35 144.213 186.076 144.213Z" fill="#E6E6E6"/>
<path d="M201.893 144.213C203.619 144.213 205.018 142.814 205.018 141.089C205.018 139.363 203.619 137.964 201.893 137.964C200.168 137.964 198.769 139.363 198.769 141.089C198.769 142.814 200.168 144.213 201.893 144.213Z" fill="#E6E6E6"/>
<path d="M217.711 144.213C219.437 144.213 220.836 142.814 220.836 141.089C220.836 139.363 219.437 137.964 217.711 137.964C215.985 137.964 214.586 139.363 214.586 141.089C214.586 142.814 215.985 144.213 217.711 144.213Z" fill="#E6E6E6"/>
<path d="M233.529 144.213C235.255 144.213 236.654 142.814 236.654 141.089C236.654 139.363 235.255 137.964 233.529 137.964C231.803 137.964 230.404 139.363 230.404 141.089C230.404 142.814 231.803 144.213 233.529 144.213Z" fill="#E6E6E6"/>
<path d="M249.346 144.213C251.072 144.213 252.471 142.814 252.471 141.089C252.471 139.363 251.072 137.964 249.346 137.964C247.621 137.964 246.222 139.363 246.222 141.089C246.222 142.814 247.621 144.213 249.346 144.213Z" fill="#E6E6E6"/>
<path d="M265.164 144.213C266.89 144.213 268.289 142.814 268.289 141.089C268.289 139.363 266.89 137.964 265.164 137.964C263.439 137.964 262.04 139.363 262.04 141.089C262.04 142.814 263.439 144.213 265.164 144.213Z" fill="#E6E6E6"/>
<path d="M280.982 144.213C282.708 144.213 284.107 142.814 284.107 141.089C284.107 139.363 282.708 137.964 280.982 137.964C279.256 137.964 277.857 139.363 277.857 141.089C277.857 142.814 279.256 144.213 280.982 144.213Z" fill="#E6E6E6"/>
<path d="M296.8 144.213C298.526 144.213 299.925 142.814 299.925 141.089C299.925 139.363 298.526 137.964 296.8 137.964C295.074 137.964 293.675 139.363 293.675 141.089C293.675 142.814 295.074 144.213 296.8 144.213Z" fill="#E6E6E6"/>
<path d="M312.617 144.213C314.343 144.213 315.742 142.814 315.742 141.089C315.742 139.363 314.343 137.964 312.617 137.964C310.892 137.964 309.493 139.363 309.493 141.089C309.493 142.814 310.892 144.213 312.617 144.213Z" fill="#E6E6E6"/>
<path d="M328.435 144.213C330.161 144.213 331.56 142.814 331.56 141.089C331.56 139.363 330.161 137.964 328.435 137.964C326.709 137.964 325.31 139.363 325.31 141.089C325.31 142.814 326.709 144.213 328.435 144.213Z" fill="#E6E6E6"/>
<path d="M344.253 144.213C345.979 144.213 347.378 142.814 347.378 141.089C347.378 139.363 345.979 137.964 344.253 137.964C342.527 137.964 341.128 139.363 341.128 141.089C341.128 142.814 342.527 144.213 344.253 144.213Z" fill="#E6E6E6"/>
<path d="M360.071 144.213C361.796 144.213 363.195 142.814 363.195 141.089C363.195 139.363 361.796 137.964 360.071 137.964C358.345 137.964 356.946 139.363 356.946 141.089C356.946 142.814 358.345 144.213 360.071 144.213Z" fill="#E6E6E6"/>
<path d="M375.888 144.213C377.614 144.213 379.013 142.814 379.013 141.089C379.013 139.363 377.614 137.964 375.888 137.964C374.162 137.964 372.763 139.363 372.763 141.089C372.763 142.814 374.162 144.213 375.888 144.213Z" fill="#E6E6E6"/>
<path d="M391.706 144.213C393.432 144.213 394.831 142.814 394.831 141.089C394.831 139.363 393.432 137.964 391.706 137.964C389.98 137.964 388.581 139.363 388.581 141.089C388.581 142.814 389.98 144.213 391.706 144.213Z" fill="#E6E6E6"/>
<path d="M407.524 144.213C409.25 144.213 410.649 142.814 410.649 141.089C410.649 139.363 409.25 137.964 407.524 137.964C405.798 137.964 404.399 139.363 404.399 141.089C404.399 142.814 405.798 144.213 407.524 144.213Z" fill="#E6E6E6"/>
<path d="M423.342 144.213C425.067 144.213 426.466 142.814 426.466 141.089C426.466 139.363 425.067 137.964 423.342 137.964C421.616 137.964 420.217 139.363 420.217 141.089C420.217 142.814 421.616 144.213 423.342 144.213Z" fill="#E6E6E6"/>
<path d="M439.159 144.213C440.885 144.213 442.284 142.814 442.284 141.089C442.284 139.363 440.885 137.964 439.159 137.964C437.433 137.964 436.034 139.363 436.034 141.089C436.034 142.814 437.433 144.213 439.159 144.213Z" fill="#E6E6E6"/>
<path d="M106.987 160.23C108.713 160.23 110.112 158.831 110.112 157.105C110.112 155.379 108.713 153.98 106.987 153.98C105.261 153.98 103.862 155.379 103.862 157.105C103.862 158.831 105.261 160.23 106.987 160.23Z" fill="#E6E6E6"/>
<path d="M122.805 160.23C124.531 160.23 125.93 158.831 125.93 157.105C125.93 155.379 124.531 153.98 122.805 153.98C121.079 153.98 119.68 155.379 119.68 157.105C119.68 158.831 121.079 160.23 122.805 160.23Z" fill="#E6E6E6"/>
<path d="M138.623 160.23C140.348 160.23 141.747 158.831 141.747 157.105C141.747 155.379 140.348 153.98 138.623 153.98C136.897 153.98 135.498 155.379 135.498 157.105C135.498 158.831 136.897 160.23 138.623 160.23Z" fill="#E6E6E6"/>
<path d="M154.44 160.23C156.166 160.23 157.565 158.831 157.565 157.105C157.565 155.379 156.166 153.98 154.44 153.98C152.714 153.98 151.315 155.379 151.315 157.105C151.315 158.831 152.714 160.23 154.44 160.23Z" fill="#E6E6E6"/>
<path d="M170.258 160.23C171.984 160.23 173.383 158.831 173.383 157.105C173.383 155.379 171.984 153.98 170.258 153.98C168.532 153.98 167.133 155.379 167.133 157.105C167.133 158.831 168.532 160.23 170.258 160.23Z" fill="#E6E6E6"/>
<path d="M186.076 160.23C187.802 160.23 189.201 158.831 189.201 157.105C189.201 155.379 187.802 153.98 186.076 153.98C184.35 153.98 182.951 155.379 182.951 157.105C182.951 158.831 184.35 160.23 186.076 160.23Z" fill="#E6E6E6"/>
<path d="M201.893 160.23C203.619 160.23 205.018 158.831 205.018 157.105C205.018 155.379 203.619 153.98 201.893 153.98C200.168 153.98 198.769 155.379 198.769 157.105C198.769 158.831 200.168 160.23 201.893 160.23Z" fill="#E6E6E6"/>
<path d="M217.711 160.23C219.437 160.23 220.836 158.831 220.836 157.105C220.836 155.379 219.437 153.98 217.711 153.98C215.985 153.98 214.586 155.379 214.586 157.105C214.586 158.831 215.985 160.23 217.711 160.23Z" fill="#E6E6E6"/>
<path d="M233.529 160.23C235.255 160.23 236.654 158.831 236.654 157.105C236.654 155.379 235.255 153.98 233.529 153.98C231.803 153.98 230.404 155.379 230.404 157.105C230.404 158.831 231.803 160.23 233.529 160.23Z" fill="#E6E6E6"/>
<path d="M249.346 160.23C251.072 160.23 252.471 158.831 252.471 157.105C252.471 155.379 251.072 153.98 249.346 153.98C247.621 153.98 246.222 155.379 246.222 157.105C246.222 158.831 247.621 160.23 249.346 160.23Z" fill="#E6E6E6"/>
<path d="M265.164 160.23C266.89 160.23 268.289 158.831 268.289 157.105C268.289 155.379 266.89 153.98 265.164 153.98C263.439 153.98 262.04 155.379 262.04 157.105C262.04 158.831 263.439 160.23 265.164 160.23Z" fill="#E6E6E6"/>
<path d="M280.982 160.23C282.708 160.23 284.107 158.831 284.107 157.105C284.107 155.379 282.708 153.98 280.982 153.98C279.256 153.98 277.857 155.379 277.857 157.105C277.857 158.831 279.256 160.23 280.982 160.23Z" fill="#E6E6E6"/>
<path d="M296.8 160.23C298.526 160.23 299.925 158.831 299.925 157.105C299.925 155.379 298.526 153.98 296.8 153.98C295.074 153.98 293.675 155.379 293.675 157.105C293.675 158.831 295.074 160.23 296.8 160.23Z" fill="#E6E6E6"/>
<path d="M312.617 160.23C314.343 160.23 315.742 158.831 315.742 157.105C315.742 155.379 314.343 153.98 312.617 153.98C310.892 153.98 309.493 155.379 309.493 157.105C309.493 158.831 310.892 160.23 312.617 160.23Z" fill="#E6E6E6"/>
<path d="M328.435 160.23C330.161 160.23 331.56 158.831 331.56 157.105C331.56 155.379 330.161 153.98 328.435 153.98C326.709 153.98 325.31 155.379 325.31 157.105C325.31 158.831 326.709 160.23 328.435 160.23Z" fill="#E6E6E6"/>
<path d="M344.253 160.23C345.979 160.23 347.378 158.831 347.378 157.105C347.378 155.379 345.979 153.98 344.253 153.98C342.527 153.98 341.128 155.379 341.128 157.105C341.128 158.831 342.527 160.23 344.253 160.23Z" fill="#E6E6E6"/>
<path d="M360.071 160.23C361.796 160.23 363.195 158.831 363.195 157.105C363.195 155.379 361.796 153.98 360.071 153.98C358.345 153.98 356.946 155.379 356.946 157.105C356.946 158.831 358.345 160.23 360.071 160.23Z" fill="#E6E6E6"/>
<path d="M375.888 160.23C377.614 160.23 379.013 158.831 379.013 157.105C379.013 155.379 377.614 153.98 375.888 153.98C374.162 153.98 372.763 155.379 372.763 157.105C372.763 158.831 374.162 160.23 375.888 160.23Z" fill="#E6E6E6"/>
<path d="M391.706 160.23C393.432 160.23 394.831 158.831 394.831 157.105C394.831 155.379 393.432 153.98 391.706 153.98C389.98 153.98 388.581 155.379 388.581 157.105C388.581 158.831 389.98 160.23 391.706 160.23Z" fill="#E6E6E6"/>
<path d="M407.524 160.23C409.25 160.23 410.649 158.831 410.649 157.105C410.649 155.379 409.25 153.98 407.524 153.98C405.798 153.98 404.399 155.379 404.399 157.105C404.399 158.831 405.798 160.23 407.524 160.23Z" fill="#E6E6E6"/>
<path d="M423.342 160.23C425.067 160.23 426.466 158.831 426.466 157.105C426.466 155.379 425.067 153.98 423.342 153.98C421.616 153.98 420.217 155.379 420.217 157.105C420.217 158.831 421.616 160.23 423.342 160.23Z" fill="#E6E6E6"/>
<path d="M439.159 160.23C440.885 160.23 442.284 158.831 442.284 157.105C442.284 155.379 440.885 153.98 439.159 153.98C437.433 153.98 436.034 155.379 436.034 157.105C436.034 158.831 437.433 160.23 439.159 160.23Z" fill="#E6E6E6"/>
<path d="M106.987 176.246C108.713 176.246 110.112 174.847 110.112 173.121C110.112 171.395 108.713 169.996 106.987 169.996C105.261 169.996 103.862 171.395 103.862 173.121C103.862 174.847 105.261 176.246 106.987 176.246Z" fill="#E6E6E6"/>
<path d="M122.805 176.246C124.531 176.246 125.93 174.847 125.93 173.121C125.93 171.395 124.531 169.996 122.805 169.996C121.079 169.996 119.68 171.395 119.68 173.121C119.68 174.847 121.079 176.246 122.805 176.246Z" fill="#E6E6E6"/>
<path d="M138.623 176.246C140.348 176.246 141.747 174.847 141.747 173.121C141.747 171.395 140.348 169.996 138.623 169.996C136.897 169.996 135.498 171.395 135.498 173.121C135.498 174.847 136.897 176.246 138.623 176.246Z" fill="#E6E6E6"/>
<path d="M154.44 176.246C156.166 176.246 157.565 174.847 157.565 173.121C157.565 171.395 156.166 169.996 154.44 169.996C152.714 169.996 151.315 171.395 151.315 173.121C151.315 174.847 152.714 176.246 154.44 176.246Z" fill="#E6E6E6"/>
<path d="M170.258 176.246C171.984 176.246 173.383 174.847 173.383 173.121C173.383 171.395 171.984 169.996 170.258 169.996C168.532 169.996 167.133 171.395 167.133 173.121C167.133 174.847 168.532 176.246 170.258 176.246Z" fill="#E6E6E6"/>
<path d="M186.076 176.246C187.802 176.246 189.201 174.847 189.201 173.121C189.201 171.395 187.802 169.996 186.076 169.996C184.35 169.996 182.951 171.395 182.951 173.121C182.951 174.847 184.35 176.246 186.076 176.246Z" fill="#E6E6E6"/>
<path d="M201.893 176.246C203.619 176.246 205.018 174.847 205.018 173.121C205.018 171.395 203.619 169.996 201.893 169.996C200.168 169.996 198.769 171.395 198.769 173.121C198.769 174.847 200.168 176.246 201.893 176.246Z" fill="#E6E6E6"/>
<path d="M217.711 176.246C219.437 176.246 220.836 174.847 220.836 173.121C220.836 171.395 219.437 169.996 217.711 169.996C215.985 169.996 214.586 171.395 214.586 173.121C214.586 174.847 215.985 176.246 217.711 176.246Z" fill="#E6E6E6"/>
<path d="M233.529 176.246C235.255 176.246 236.654 174.847 236.654 173.121C236.654 171.395 235.255 169.996 233.529 169.996C231.803 169.996 230.404 171.395 230.404 173.121C230.404 174.847 231.803 176.246 233.529 176.246Z" fill="#E6E6E6"/>
<path d="M249.346 176.246C251.072 176.246 252.471 174.847 252.471 173.121C252.471 171.395 251.072 169.996 249.346 169.996C247.621 169.996 246.222 171.395 246.222 173.121C246.222 174.847 247.621 176.246 249.346 176.246Z" fill="#E6E6E6"/>
<path d="M265.164 176.246C266.89 176.246 268.289 174.847 268.289 173.121C268.289 171.395 266.89 169.996 265.164 169.996C263.439 169.996 262.04 171.395 262.04 173.121C262.04 174.847 263.439 176.246 265.164 176.246Z" fill="#E6E6E6"/>
<path d="M280.982 176.246C282.708 176.246 284.107 174.847 284.107 173.121C284.107 171.395 282.708 169.996 280.982 169.996C279.256 169.996 277.857 171.395 277.857 173.121C277.857 174.847 279.256 176.246 280.982 176.246Z" fill="#E6E6E6"/>
<path d="M296.8 176.246C298.526 176.246 299.925 174.847 299.925 173.121C299.925 171.395 298.526 169.996 296.8 169.996C295.074 169.996 293.675 171.395 293.675 173.121C293.675 174.847 295.074 176.246 296.8 176.246Z" fill="#E6E6E6"/>
<path d="M312.617 176.246C314.343 176.246 315.742 174.847 315.742 173.121C315.742 171.395 314.343 169.996 312.617 169.996C310.892 169.996 309.493 171.395 309.493 173.121C309.493 174.847 310.892 176.246 312.617 176.246Z" fill="#E6E6E6"/>
<path d="M328.435 176.246C330.161 176.246 331.56 174.847 331.56 173.121C331.56 171.395 330.161 169.996 328.435 169.996C326.709 169.996 325.31 171.395 325.31 173.121C325.31 174.847 326.709 176.246 328.435 176.246Z" fill="#E6E6E6"/>
<path d="M344.253 176.246C345.979 176.246 347.378 174.847 347.378 173.121C347.378 171.395 345.979 169.996 344.253 169.996C342.527 169.996 341.128 171.395 341.128 173.121C341.128 174.847 342.527 176.246 344.253 176.246Z" fill="#E6E6E6"/>
<path d="M360.071 176.246C361.796 176.246 363.195 174.847 363.195 173.121C363.195 171.395 361.796 169.996 360.071 169.996C358.345 169.996 356.946 171.395 356.946 173.121C356.946 174.847 358.345 176.246 360.071 176.246Z" fill="#E6E6E6"/>
<path d="M375.888 176.246C377.614 176.246 379.013 174.847 379.013 173.121C379.013 171.395 377.614 169.996 375.888 169.996C374.162 169.996 372.763 171.395 372.763 173.121C372.763 174.847 374.162 176.246 375.888 176.246Z" fill="#E6E6E6"/>
<path d="M391.706 176.246C393.432 176.246 394.831 174.847 394.831 173.121C394.831 171.395 393.432 169.996 391.706 169.996C389.98 169.996 388.581 171.395 388.581 173.121C388.581 174.847 389.98 176.246 391.706 176.246Z" fill="#E6E6E6"/>
<path d="M407.524 176.246C409.25 176.246 410.649 174.847 410.649 173.121C410.649 171.395 409.25 169.996 407.524 169.996C405.798 169.996 404.399 171.395 404.399 173.121C404.399 174.847 405.798 176.246 407.524 176.246Z" fill="#E6E6E6"/>
<path d="M423.342 176.246C425.067 176.246 426.466 174.847 426.466 173.121C426.466 171.395 425.067 169.996 423.342 169.996C421.616 169.996 420.217 171.395 420.217 173.121C420.217 174.847 421.616 176.246 423.342 176.246Z" fill="#E6E6E6"/>
<path d="M439.159 176.246C440.885 176.246 442.284 174.847 442.284 173.121C442.284 171.395 440.885 169.996 439.159 169.996C437.433 169.996 436.034 171.395 436.034 173.121C436.034 174.847 437.433 176.246 439.159 176.246Z" fill="#E6E6E6"/>
<path d="M106.987 192.262C108.713 192.262 110.112 190.863 110.112 189.137C110.112 187.412 108.713 186.013 106.987 186.013C105.261 186.013 103.862 187.412 103.862 189.137C103.862 190.863 105.261 192.262 106.987 192.262Z" fill="#E6E6E6"/>
<path d="M122.805 192.262C124.531 192.262 125.93 190.863 125.93 189.137C125.93 187.412 124.531 186.013 122.805 186.013C121.079 186.013 119.68 187.412 119.68 189.137C119.68 190.863 121.079 192.262 122.805 192.262Z" fill="#E6E6E6"/>
<path d="M138.623 192.262C140.348 192.262 141.747 190.863 141.747 189.137C141.747 187.412 140.348 186.013 138.623 186.013C136.897 186.013 135.498 187.412 135.498 189.137C135.498 190.863 136.897 192.262 138.623 192.262Z" fill="#E6E6E6"/>
<path d="M154.44 192.262C156.166 192.262 157.565 190.863 157.565 189.137C157.565 187.412 156.166 186.013 154.44 186.013C152.714 186.013 151.315 187.412 151.315 189.137C151.315 190.863 152.714 192.262 154.44 192.262Z" fill="#E6E6E6"/>
<path d="M170.258 192.262C171.984 192.262 173.383 190.863 173.383 189.137C173.383 187.412 171.984 186.013 170.258 186.013C168.532 186.013 167.133 187.412 167.133 189.137C167.133 190.863 168.532 192.262 170.258 192.262Z" fill="#E6E6E6"/>
<path d="M186.076 192.262C187.802 192.262 189.201 190.863 189.201 189.137C189.201 187.412 187.802 186.013 186.076 186.013C184.35 186.013 182.951 187.412 182.951 189.137C182.951 190.863 184.35 192.262 186.076 192.262Z" fill="#E6E6E6"/>
<path d="M201.893 192.262C203.619 192.262 205.018 190.863 205.018 189.137C205.018 187.412 203.619 186.013 201.893 186.013C200.168 186.013 198.769 187.412 198.769 189.137C198.769 190.863 200.168 192.262 201.893 192.262Z" fill="#E6E6E6"/>
<path d="M217.711 192.262C219.437 192.262 220.836 190.863 220.836 189.137C220.836 187.412 219.437 186.013 217.711 186.013C215.985 186.013 214.586 187.412 214.586 189.137C214.586 190.863 215.985 192.262 217.711 192.262Z" fill="#E6E6E6"/>
<path d="M233.529 192.262C235.255 192.262 236.654 190.863 236.654 189.137C236.654 187.412 235.255 186.013 233.529 186.013C231.803 186.013 230.404 187.412 230.404 189.137C230.404 190.863 231.803 192.262 233.529 192.262Z" fill="#E6E6E6"/>
<path d="M249.346 192.262C251.072 192.262 252.471 190.863 252.471 189.137C252.471 187.412 251.072 186.013 249.346 186.013C247.621 186.013 246.222 187.412 246.222 189.137C246.222 190.863 247.621 192.262 249.346 192.262Z" fill="#E6E6E6"/>
<path d="M265.164 192.262C266.89 192.262 268.289 190.863 268.289 189.137C268.289 187.412 266.89 186.013 265.164 186.013C263.439 186.013 262.04 187.412 262.04 189.137C262.04 190.863 263.439 192.262 265.164 192.262Z" fill="#E6E6E6"/>
<path d="M280.982 192.262C282.708 192.262 284.107 190.863 284.107 189.137C284.107 187.412 282.708 186.013 280.982 186.013C279.256 186.013 277.857 187.412 277.857 189.137C277.857 190.863 279.256 192.262 280.982 192.262Z" fill="#E6E6E6"/>
<path d="M296.8 192.262C298.526 192.262 299.925 190.863 299.925 189.137C299.925 187.412 298.526 186.013 296.8 186.013C295.074 186.013 293.675 187.412 293.675 189.137C293.675 190.863 295.074 192.262 296.8 192.262Z" fill="#E6E6E6"/>
<path d="M312.617 192.262C314.343 192.262 315.742 190.863 315.742 189.137C315.742 187.412 314.343 186.013 312.617 186.013C310.892 186.013 309.493 187.412 309.493 189.137C309.493 190.863 310.892 192.262 312.617 192.262Z" fill="#E6E6E6"/>
<path d="M328.435 192.262C330.161 192.262 331.56 190.863 331.56 189.137C331.56 187.412 330.161 186.013 328.435 186.013C326.709 186.013 325.31 187.412 325.31 189.137C325.31 190.863 326.709 192.262 328.435 192.262Z" fill="#E6E6E6"/>
<path d="M344.253 192.262C345.979 192.262 347.378 190.863 347.378 189.137C347.378 187.412 345.979 186.013 344.253 186.013C342.527 186.013 341.128 187.412 341.128 189.137C341.128 190.863 342.527 192.262 344.253 192.262Z" fill="#E6E6E6"/>
<path d="M360.071 192.262C361.796 192.262 363.195 190.863 363.195 189.137C363.195 187.412 361.796 186.013 360.071 186.013C358.345 186.013 356.946 187.412 356.946 189.137C356.946 190.863 358.345 192.262 360.071 192.262Z" fill="#E6E6E6"/>
<path d="M375.888 192.262C377.614 192.262 379.013 190.863 379.013 189.137C379.013 187.412 377.614 186.013 375.888 186.013C374.162 186.013 372.763 187.412 372.763 189.137C372.763 190.863 374.162 192.262 375.888 192.262Z" fill="#E6E6E6"/>
<path d="M391.706 192.262C393.432 192.262 394.831 190.863 394.831 189.137C394.831 187.412 393.432 186.013 391.706 186.013C389.98 186.013 388.581 187.412 388.581 189.137C388.581 190.863 389.98 192.262 391.706 192.262Z" fill="#E6E6E6"/>
<path d="M407.524 192.262C409.25 192.262 410.649 190.863 410.649 189.137C410.649 187.412 409.25 186.013 407.524 186.013C405.798 186.013 404.399 187.412 404.399 189.137C404.399 190.863 405.798 192.262 407.524 192.262Z" fill="#E6E6E6"/>
<path d="M423.342 192.262C425.067 192.262 426.466 190.863 426.466 189.137C426.466 187.412 425.067 186.013 423.342 186.013C421.616 186.013 420.217 187.412 420.217 189.137C420.217 190.863 421.616 192.262 423.342 192.262Z" fill="#E6E6E6"/>
<path d="M439.159 192.262C440.885 192.262 442.284 190.863 442.284 189.137C442.284 187.412 440.885 186.013 439.159 186.013C437.433 186.013 436.034 187.412 436.034 189.137C436.034 190.863 437.433 192.262 439.159 192.262Z" fill="#E6E6E6"/>
<path d="M500 192.074H0V193.336H500V192.074Z" fill="#182026"/>
<path d="M482.758 169.386C491.743 169.386 499.027 162.102 499.027 153.117C499.027 144.132 491.743 136.848 482.758 136.848C473.773 136.848 466.489 144.132 466.489 153.117C466.489 162.102 473.773 169.386 482.758 169.386Z" fill="#8D8DF7"/>
<path d="M489.522 176.285C490.666 176.285 491.593 175.358 491.593 174.214C491.593 173.071 490.666 172.144 489.522 172.144C488.379 172.144 487.452 173.071 487.452 174.214C487.452 175.358 488.379 176.285 489.522 176.285Z" fill="#182026"/>
<path d="M184.419 95.624H249.295V100.78H190.366V139.589H245.781V144.745H190.366V187.354H249.97V192.51H184.419L184.419 95.624ZM255.106 95.624H261.999L292.545 138.232L323.766 95.624L366.232 41.502L296.465 142.71L332.416 192.51H325.253L292.545 147.188L259.702 192.51H252.674L288.896 142.71L255.106 95.624ZM334.984 100.78V95.624H408.915V100.78H374.856V192.51H368.909V100.78H334.984ZM103.257 95.624H110.691L213.197 249.014L170.836 192.51L109.475 102.952L109.204 192.51H103.257V95.624ZM408.316 185.797C407.888 185.804 407.468 185.683 407.109 185.449C406.749 185.216 406.468 184.881 406.3 184.487C406.131 184.094 406.084 183.659 406.164 183.238C406.243 182.817 406.446 182.43 406.747 182.125C407.047 181.82 407.432 181.611 407.851 181.525C408.271 181.439 408.707 181.48 409.103 181.642C409.499 181.805 409.838 182.081 410.077 182.437C410.315 182.793 410.442 183.211 410.442 183.639C410.45 183.922 410.4 184.204 410.297 184.467C410.193 184.73 410.037 184.969 409.839 185.171C409.64 185.372 409.403 185.532 409.141 185.639C408.88 185.747 408.599 185.801 408.316 185.797ZM414.16 180.12H417.342C417.385 181.844 418.644 183.002 420.495 183.002C422.563 183.002 423.735 181.757 423.735 179.425V164.652H426.975V179.439C426.975 183.639 424.545 186.058 420.524 186.058C416.749 186.058 414.16 183.712 414.16 180.12ZM431.213 179.932H434.424C434.699 181.916 436.637 183.176 439.429 183.176C442.032 183.176 443.942 181.829 443.942 179.975C443.942 178.382 442.727 177.426 439.964 176.774L437.274 176.123C433.498 175.239 431.777 173.414 431.777 170.344C431.777 166.622 434.815 164.145 439.371 164.145C443.609 164.145 446.704 166.622 446.892 170.141H443.739C443.435 168.215 441.758 167.013 439.328 167.013C436.767 167.013 435.061 168.244 435.061 170.127C435.061 171.618 436.16 172.473 438.879 173.11L441.179 173.675C445.46 174.674 447.225 176.412 447.225 179.555C447.225 183.553 444.13 186.058 439.183 186.058C434.554 186.058 431.445 183.668 431.213 179.932Z" fill="#182026"/>
<path d="M67.491 41.7559C70.8427 41.7559 73.5599 39.0388 73.5599 35.687C73.5599 32.3353 70.8427 29.6182 67.491 29.6182C64.1392 29.6182 61.4221 32.3353 61.4221 35.687C61.4221 39.0388 64.1392 41.7559 67.491 41.7559Z" fill="#8D8DF7"/>
<path d="M69.1817 29.7854C70.232 29.7855 71.2643 30.0582 72.1776 30.5768C73.091 31.0953 73.8542 31.842 74.3925 32.7438C74.9309 33.6456 75.2261 34.6717 75.2491 35.7218C75.2722 36.7718 75.0224 37.8099 74.5242 38.7345C75.0503 38.0762 75.4336 37.3155 75.6495 36.5008C75.8654 35.6862 75.9093 34.8356 75.7782 34.0031C75.6472 33.1706 75.3442 32.3745 74.8886 31.6656C74.4329 30.9567 73.8345 30.3505 73.1316 29.8856C72.4287 29.4207 71.6366 29.1073 70.8059 28.9655C69.9752 28.8236 69.124 28.8564 68.3067 29.0617C67.4893 29.2669 66.7237 29.6402 66.0586 30.1578C65.3935 30.6753 64.8435 31.3257 64.4436 32.0675C65.0109 31.3553 65.7315 30.7802 66.5519 30.3851C67.3722 29.99 68.2712 29.785 69.1817 29.7854Z" fill="#8D8DF7"/>
<path d="M56.1505 35.6741C65.9963 35.6741 73.9778 27.6926 73.9778 17.8468C73.9778 8.00108 65.9963 0.0195312 56.1505 0.0195312C46.3048 0.0195312 38.3232 8.00108 38.3232 17.8468C38.3232 27.6926 46.3048 35.6741 56.1505 35.6741Z" fill="#8D8DF7"/>
<path d="M42.159 6.78605C45.2308 3.33141 49.5247 1.20535 54.1343 0.856593C58.744 0.507837 63.3088 1.96367 66.8654 4.91682C66.7196 4.77825 66.5754 4.63854 66.4239 4.50388C62.8894 1.3684 58.2547 -0.235702 53.5381 0.043985C48.8216 0.323672 44.409 2.46428 41.2698 5.99551C38.1306 9.52673 36.5216 14.1597 36.7963 18.8766C37.071 23.5934 39.207 28.0083 42.7349 31.1512C42.8864 31.2859 43.042 31.4127 43.1967 31.5413C39.8473 28.3551 37.8668 23.9922 37.6732 19.3734C37.4796 14.7547 39.088 10.2414 42.159 6.78605Z" fill="#8D8DF7"/>
<path d="M73.3412 63.292L76.0835 78.8318L79.2829 109.454C79.2829 109.454 80.197 121.795 76.0835 122.252C71.97 122.709 72.8841 108.54 72.8841 108.54L68.3136 82.4883L66.4854 66.4914L73.3412 63.292Z" fill="#FBBEBE"/>
<path d="M56.4302 32.6691C62.4884 32.6691 67.3995 27.7579 67.3995 21.6998C67.3995 15.6416 62.4884 10.7305 56.4302 10.7305C50.3721 10.7305 45.4609 15.6416 45.4609 21.6998C45.4609 27.7579 50.3721 32.6691 56.4302 32.6691Z" fill="#FBBEBE"/>
<path d="M47.746 26.2705L45.9177 36.7829L57.8012 39.525V29.4698L47.746 26.2705Z" fill="#FBBEBE"/>
<path d="M19.4089 179.841L18.0378 188.982L23.5226 189.439L26.722 181.669L19.4089 179.841Z" fill="#FBBEBE"/>
<path d="M61.915 181.212L63.2861 188.525H69.2275V181.669L61.915 181.212Z" fill="#FBBEBE"/>
<path d="M66.0284 78.832L35.8628 83.4026L34.0345 104.884L30.3781 135.964L17.1235 181.212L30.3781 182.583L54.1449 121.795L60.0866 183.04H73.7983L74.7124 120.424C74.7124 120.424 75.1695 85.6879 67.8566 83.4026L66.0284 78.832Z" fill="#182026"/>
<path d="M24.8933 188.067L17.1234 186.696L13.924 202.236C13.924 202.236 7.98231 223.261 15.7522 221.432C23.5222 219.604 22.151 202.236 22.151 202.236L24.8933 188.067Z" fill="#182026"/>
<path d="M61.9148 188.067L69.6847 186.696L72.8841 202.236C72.8841 202.236 78.8258 223.261 71.0559 221.432C63.286 219.604 64.6571 202.236 64.6571 202.236L61.9148 188.067Z" fill="#182026"/>
<path d="M23.9793 56.4355C23.9793 56.4355 20.3228 75.6318 22.1511 80.2024C23.9793 84.7729 34.4915 100.77 34.4915 100.77L37.6909 93.914L28.5498 76.0889L31.7492 57.8067L23.9793 56.4355Z" fill="#FBBEBE"/>
<path d="M60.0866 43.1813L59.1725 36.3254C59.1725 36.3254 47.7461 34.4972 45.9179 31.2979L42.7185 36.7825L32.2063 39.0678C32.2063 39.0678 26.2646 39.0678 25.8075 43.6383C25.3505 48.2089 22.6082 57.3499 22.6082 57.3499L30.8351 60.0923L37.2339 83.8591L64.6571 79.7456L63.286 67.4051L64.6572 64.2057L66.0283 67.8622L74.7124 66.034C74.7124 66.034 75.1694 49.58 66.4854 46.8377L60.0866 43.1813Z" fill="#182026"/>
<path d="M46.179 9.68848V21.1705H48.8383L52.2223 17.5449L51.769 21.1705H63.523L62.7978 17.5449L64.2482 21.1705H66.1215V9.68848H46.179Z" fill="#8D8DF7"/>
<path d="M483.602 193.33H481.913L482.758 153.353L483.602 193.33Z" fill="#182026"/>
<path d="M483.108 188.262L482.285 187.629L490.352 172.764L483.108 188.262Z" fill="#182026"/>
</g>
<defs>
<clipPath id="clip0_260_9257">
<rect width="500" height="249.014" fill="white"/>
</clipPath>
</defs>
</svg>
