<svg width="500" height="331" viewBox="0 0 500 331" fill="none" xmlns="http://www.w3.org/2000/svg">
<g clip-path="url(#clip0_260_9499)">
<path d="M373.327 216.911C372.921 215.691 373.012 214.36 373.581 213.207C374.15 212.054 375.151 211.172 376.366 210.751C376.615 210.669 376.871 210.607 377.13 210.567L379.748 199.826L386.573 199.847L382.666 214.963C382.761 216.045 382.492 217.128 381.9 218.04C381.309 218.951 380.429 219.639 379.402 219.993C378.801 220.193 378.166 220.272 377.534 220.226C376.902 220.179 376.286 220.007 375.721 219.721C375.156 219.434 374.653 219.038 374.242 218.556C373.831 218.074 373.52 217.515 373.327 216.911Z" fill="#9F616A"/>
<path d="M384.85 209.961L374.397 209.226L379.46 178.634L376.238 144.949L386.805 140.556L393.852 177.963L393.833 178.032L384.85 209.961Z" fill="#2F2E41"/>
<path d="M304.023 206.375C304 205.092 304.487 203.853 305.377 202.929C306.267 202.005 307.488 201.473 308.771 201.449C309.033 201.448 309.295 201.468 309.554 201.51L315.279 192.092L321.773 194.224L313.503 207.41C313.252 208.568 312.581 209.592 311.62 210.285C310.659 210.978 309.475 211.29 308.297 211.162C307.119 211.033 306.03 210.473 305.241 209.589C304.452 208.705 304.018 207.56 304.023 206.375Z" fill="#9F616A"/>
<path d="M336.259 324.142H330.698L328.053 302.394L336.261 302.394L336.259 324.142Z" fill="#9F616A"/>
<path d="M337.678 329.608L319.748 329.607V329.377C319.74 327.504 320.476 325.705 321.792 324.373C322.435 323.716 323.202 323.194 324.05 322.838C324.897 322.482 325.807 322.299 326.726 322.301H326.727L337.678 322.301L337.678 329.608Z" fill="#2F2E41"/>
<path d="M375.053 324.142H369.492L366.847 302.394L375.054 302.394L375.053 324.142Z" fill="#9F616A"/>
<path d="M376.471 329.608L358.541 329.607V329.377C358.534 327.504 359.269 325.705 360.585 324.373C361.228 323.716 361.996 323.194 362.843 322.838C363.691 322.482 364.601 322.299 365.52 322.301H365.52L376.471 322.301L376.471 329.608Z" fill="#2F2E41"/>
<path d="M369.765 119.916C377.061 119.916 382.976 113.918 382.976 106.52C382.976 99.1223 377.061 93.125 369.765 93.125C362.469 93.125 356.554 99.1223 356.554 106.52C356.554 113.918 362.469 119.916 369.765 119.916Z" fill="#9F616A"/>
<path d="M365.303 105.786C363.316 106.551 361.121 106.576 359.118 105.856C357.115 105.135 355.438 103.718 354.394 101.863C353.447 99.9387 353.208 97.7423 353.72 95.6596C354.231 93.5769 355.46 91.7411 357.191 90.4745C360.707 88.0885 365.958 88.8782 369.367 91.6454C371.665 90.5865 374.244 90.2962 376.721 90.8173C379.197 91.3384 381.44 92.6434 383.117 94.5388C386.408 98.3985 386.768 104.525 384.37 109.025C383.321 111.373 382.855 113.941 383.014 116.508C383.173 119.076 383.95 121.567 385.28 123.768C384.249 123.726 381.978 123.532 379.136 123.283C378.314 123.211 377.958 120.762 377.056 120.683C376.261 120.614 374.927 122.915 374.094 122.844C367.923 122.315 361.014 121.778 357.882 121.883C360.08 116.394 362.556 111.021 365.303 105.786Z" fill="#2F2E41"/>
<path d="M379.896 200.889C379.896 200.889 384.189 205.377 381.568 228.554L379.756 277.767L376.552 321.343L366.242 320.648L357.186 220.352L344.507 257.053L337.68 317.729L327.788 317.034L326.099 256.695L330.435 210.064L379.896 200.889Z" fill="#2F2E41"/>
<path d="M337.402 212.871C332.127 212.872 330.003 212.229 329.847 212.179L329.603 212.101L329.646 211.845C329.681 211.634 333.225 190.682 338.087 179.683L341.507 135.075C341.597 133.758 342.131 132.51 343.021 131.534C343.91 130.559 345.104 129.913 346.407 129.701L346.453 129.996L346.407 129.701L355.105 128.317L360.426 123.566L373.171 124.281L374.295 129.748C375.82 130.18 385.879 133.306 386.875 140.792L386.887 140.886L386.844 140.969L368.415 176.918C369.972 178.477 382.28 191.296 383.115 207.685L383.135 208.08L382.756 207.992C382.721 207.984 378.782 207.225 358.071 210.776C348.492 212.417 341.835 212.871 337.402 212.871Z" fill="#2F2E41"/>
<path d="M316.971 206.158L309.459 200.292L326.226 166.279L341.82 132.943C342.033 132.478 342.386 132.091 342.828 131.834C343.271 131.577 343.782 131.464 344.291 131.509C344.801 131.554 345.284 131.755 345.675 132.086C346.065 132.416 346.344 132.859 346.473 133.354L350.333 147.552L338.263 179.394L316.971 206.158Z" fill="#2F2E41"/>
<path d="M478.224 329.365L478.67 328.54C472.685 325.303 465.237 321.275 461.347 314.665C457.512 308.149 457.426 299.301 461.123 291.574C464.268 284.997 470.047 279.105 477.833 274.534C479.369 273.632 480.981 272.778 482.54 271.951C486.309 269.954 490.206 267.889 493.419 264.958C497.845 260.922 501.194 254.15 498.698 248.117C497.877 246.191 496.533 244.534 494.818 243.334C493.103 242.134 491.085 241.439 488.995 241.328L488.942 242.265C490.857 242.367 492.705 243.003 494.277 244.102C495.848 245.201 497.081 246.718 497.833 248.482C500.153 254.088 496.971 260.45 492.787 264.265C489.662 267.115 485.818 269.152 482.101 271.122C480.533 271.953 478.911 272.813 477.358 273.725C469.41 278.391 463.503 284.422 460.276 291.168C456.447 299.174 456.547 308.36 460.539 315.142C464.561 321.976 472.137 326.073 478.224 329.365Z" fill="#F1F1F1"/>
<path d="M483.047 246.275C487.582 246.275 491.259 244.489 491.259 242.286C491.259 240.084 487.582 238.298 483.047 238.298C478.512 238.298 474.835 240.084 474.835 242.286C474.835 244.489 478.512 246.275 483.047 246.275Z" fill="#F1F1F1"/>
<path d="M476.478 272.552C481.013 272.552 484.69 270.767 484.69 268.564C484.69 266.361 481.013 264.575 476.478 264.575C471.943 264.575 468.266 266.361 468.266 268.564C468.266 270.767 471.943 272.552 476.478 272.552Z" fill="#F1F1F1"/>
<path d="M491.494 276.776C496.029 276.776 499.705 274.99 499.705 272.787C499.705 270.585 496.029 268.799 491.494 268.799C486.958 268.799 483.282 270.585 483.282 272.787C483.282 274.99 486.958 276.776 491.494 276.776Z" fill="#F1F1F1"/>
<path d="M468.032 298.83C472.567 298.83 476.243 297.044 476.243 294.841C476.243 292.638 472.567 290.853 468.032 290.853C463.496 290.853 459.82 292.638 459.82 294.841C459.82 297.044 463.496 298.83 468.032 298.83Z" fill="#F1F1F1"/>
<path d="M451.608 298.83C456.143 298.83 459.82 297.044 459.82 294.841C459.82 292.638 456.143 290.853 451.608 290.853C447.073 290.853 443.396 292.638 443.396 294.841C443.396 297.044 447.073 298.83 451.608 298.83Z" fill="#F1F1F1"/>
<path d="M498.936 330.642H231.177C230.987 330.642 230.804 330.566 230.67 330.432C230.535 330.297 230.46 330.115 230.46 329.925C230.46 329.735 230.535 329.552 230.67 329.418C230.804 329.284 230.987 329.208 231.177 329.208H499.283C499.473 329.208 499.656 329.284 499.79 329.418C499.925 329.552 500 329.735 500 329.925C500 330.321 499.332 330.642 498.936 330.642Z" fill="#CBCBCB"/>
<path d="M163.831 80.1244H44.8316C43.8813 80.1233 42.9703 79.7453 42.2984 79.0734C41.6264 78.4014 41.2484 77.4904 41.2473 76.5401V36.3958C41.2484 35.4456 41.6264 34.5345 42.2984 33.8626C42.9703 33.1906 43.8813 32.8126 44.8316 32.8115H163.831C164.781 32.8126 165.692 33.1906 166.364 33.8626C167.036 34.5345 167.414 35.4455 167.415 36.3958V76.5401C167.414 77.4904 167.036 78.4015 166.364 79.0734C165.692 79.7454 164.781 80.1233 163.831 80.1244Z" fill="#3F3D56"/>
<path d="M91.4277 43.5645H59.8857V47.1488H91.4277V43.5645Z" fill="white"/>
<path d="M133.006 47.8656C134.193 47.8656 135.156 46.9028 135.156 45.715C135.156 44.5273 134.193 43.5645 133.006 43.5645C131.818 43.5645 130.855 44.5273 130.855 45.715C130.855 46.9028 131.818 47.8656 133.006 47.8656Z" fill="#8D8DF7"/>
<path d="M140.174 47.8656C141.362 47.8656 142.325 46.9028 142.325 45.715C142.325 44.5273 141.362 43.5645 140.174 43.5645C138.987 43.5645 138.024 44.5273 138.024 45.715C138.024 46.9028 138.987 47.8656 140.174 47.8656Z" fill="#8D8DF7"/>
<path d="M147.343 47.8656C148.531 47.8656 149.494 46.9028 149.494 45.715C149.494 44.5273 148.531 43.5645 147.343 43.5645C146.155 43.5645 145.192 44.5273 145.192 45.715C145.192 46.9028 146.155 47.8656 147.343 47.8656Z" fill="#8D8DF7"/>
<path d="M163.831 131.022H44.8316C43.8813 131.021 42.9703 130.643 42.2984 129.971C41.6264 129.299 41.2484 128.388 41.2473 127.438V87.2933C41.2484 86.343 41.6264 85.432 42.2984 84.76C42.9703 84.0881 43.8813 83.7101 44.8316 83.709H163.831C164.781 83.7101 165.692 84.0881 166.364 84.76C167.036 85.432 167.414 86.343 167.415 87.2933V127.438C167.414 128.388 167.036 129.299 166.364 129.971C165.692 130.643 164.781 131.021 163.831 131.022Z" fill="#3F3D56"/>
<path d="M91.4277 94.4619H59.8857V98.0462H91.4277V94.4619Z" fill="white"/>
<path d="M133.006 98.7631C134.193 98.7631 135.156 97.8002 135.156 96.6125C135.156 95.4248 134.193 94.4619 133.006 94.4619C131.818 94.4619 130.855 95.4248 130.855 96.6125C130.855 97.8002 131.818 98.7631 133.006 98.7631Z" fill="#8D8DF7"/>
<path d="M140.174 98.7631C141.362 98.7631 142.325 97.8002 142.325 96.6125C142.325 95.4248 141.362 94.4619 140.174 94.4619C138.987 94.4619 138.024 95.4248 138.024 96.6125C138.024 97.8002 138.987 98.7631 140.174 98.7631Z" fill="#8D8DF7"/>
<path d="M147.343 98.7631C148.531 98.7631 149.494 97.8002 149.494 96.6125C149.494 95.4248 148.531 94.4619 147.343 94.4619C146.155 94.4619 145.192 95.4248 145.192 96.6125C145.192 97.8002 146.155 98.7631 147.343 98.7631Z" fill="#8D8DF7"/>
<path d="M163.831 181.919H44.8316C43.8813 181.918 42.9703 181.54 42.2984 180.868C41.6264 180.196 41.2484 179.285 41.2473 178.335V138.191C41.2484 137.24 41.6264 136.329 42.2984 135.657C42.9703 134.986 43.8813 134.608 44.8316 134.606H163.831C164.781 134.608 165.692 134.986 166.364 135.657C167.036 136.329 167.414 137.24 167.415 138.191V178.335C167.414 179.285 167.036 180.196 166.364 180.868C165.692 181.54 164.781 181.918 163.831 181.919Z" fill="#3F3D56"/>
<path d="M91.4277 145.359H59.8857V148.944H91.4277V145.359Z" fill="white"/>
<path d="M133.006 149.661C134.193 149.661 135.156 148.698 135.156 147.51C135.156 146.322 134.193 145.359 133.006 145.359C131.818 145.359 130.855 146.322 130.855 147.51C130.855 148.698 131.818 149.661 133.006 149.661Z" fill="#8D8DF7"/>
<path d="M140.174 149.661C141.362 149.661 142.325 148.698 142.325 147.51C142.325 146.322 141.362 145.359 140.174 145.359C138.987 145.359 138.024 146.322 138.024 147.51C138.024 148.698 138.987 149.661 140.174 149.661Z" fill="#8D8DF7"/>
<path d="M147.343 149.661C148.531 149.661 149.494 148.698 149.494 147.51C149.494 146.322 148.531 145.359 147.343 145.359C146.155 145.359 145.192 146.322 145.192 147.51C145.192 148.698 146.155 149.661 147.343 149.661Z" fill="#8D8DF7"/>
<path d="M120.433 213.075H0V165.595H1.43372V211.642H120.433V213.075Z" fill="#CCCCCC"/>
<path d="M75.2705 0H195.703V47.4806H194.27V1.43372H75.2705V0Z" fill="#CCCCCC"/>
</g>
<defs>
<clipPath id="clip0_260_9499">
<rect width="500" height="330.641" fill="white"/>
</clipPath>
</defs>
</svg>
