<svg width="130" height="93" viewBox="0 0 130 93" fill="none" xmlns="http://www.w3.org/2000/svg">
<g clip-path="url(#clip0_346_9249)">
<path d="M104.608 58.9464C104.724 58.9571 104.84 58.932 104.941 58.8746C105.041 58.8171 105.122 58.7301 105.172 58.6252C105.222 58.5203 105.238 58.4027 105.219 58.2883C105.199 58.1739 105.145 58.0682 105.064 57.9855C105.052 57.9282 105.044 57.8871 105.032 57.8297C105.038 57.8176 105.043 57.8056 105.049 57.7935C105.179 57.5234 105.385 57.2975 105.642 57.1444C105.9 56.9912 106.197 56.9175 106.496 56.9325C106.795 56.9476 107.083 57.0507 107.324 57.2289C107.565 57.4071 107.747 57.6525 107.849 57.9343C108.256 59.0588 108.788 60.191 108.877 61.3642C108.916 61.8827 108.865 62.4041 108.726 62.9052C109.911 60.6085 110.589 58.0838 110.712 55.5023C110.743 54.8545 110.737 54.2055 110.695 53.5583C110.66 53.0278 110.602 52.4999 110.52 51.9747C110.075 49.1249 108.96 46.4213 107.267 44.086C106.419 43.5707 105.75 42.8079 105.348 41.9003C105.203 41.574 105.106 41.2284 105.059 40.8741C105.157 40.8916 105.256 40.9043 105.354 40.9153C105.384 40.9183 105.417 40.9214 105.447 40.9244L105.459 40.9255C105.566 40.9354 105.674 40.9139 105.77 40.8637C105.866 40.8135 105.945 40.7367 105.998 40.6425C106.051 40.5483 106.076 40.4408 106.069 40.3329C106.063 40.225 106.025 40.1213 105.961 40.0343C105.921 39.9802 105.881 39.9261 105.841 39.872C105.781 39.7886 105.718 39.7066 105.658 39.6232C105.651 39.6152 105.644 39.6068 105.638 39.5981C105.568 39.5029 105.498 39.4094 105.428 39.3142C105.573 39.1108 105.763 38.9436 105.983 38.8256C106.745 38.4257 107.755 38.7742 108.259 39.4702C108.766 40.1662 108.823 41.1123 108.597 41.9419C108.381 42.6467 108.046 43.3095 107.606 43.9018C107.644 43.9552 107.684 44.007 107.722 44.0604C108.413 45.0402 109.007 46.0854 109.494 47.1811C109.419 45.9756 109.632 44.7696 110.114 43.6622C110.598 42.6318 111.456 41.7849 112.217 40.9101C113.131 39.8593 114.88 40.4178 114.968 41.808C114.968 41.8214 114.969 41.8349 114.97 41.8483C114.86 41.9036 114.753 41.9627 114.647 42.0255C114.515 42.1054 114.41 42.2234 114.345 42.3641C114.281 42.5048 114.261 42.6616 114.287 42.814C114.314 42.9664 114.386 43.1073 114.493 43.2182C114.601 43.3291 114.74 43.4048 114.892 43.4355L114.907 43.4386C114.851 43.8217 114.766 44.2 114.653 44.5701C114.327 45.6031 113.79 46.5575 113.078 47.3734C112.365 48.1894 111.492 48.8493 110.512 49.3119C110.448 49.3412 110.385 49.3705 110.321 49.3982C110.79 50.9531 111.054 52.5624 111.108 54.1855C111.136 55.143 111.087 56.1012 110.961 57.0507L110.968 57.0171C111.223 55.9666 111.833 55.0364 112.695 54.3836C113.974 53.4288 115.732 53.1371 117.099 52.3854C117.245 52.3013 117.411 52.2606 117.579 52.268C117.747 52.2754 117.909 52.3306 118.047 52.4272C118.184 52.5238 118.291 52.6578 118.355 52.8132C118.419 52.9686 118.437 53.1391 118.407 53.3045C118.405 53.3162 118.403 53.328 118.4 53.3398C118.198 53.4112 118.001 53.4952 117.81 53.5912C117.7 53.6465 117.593 53.7056 117.487 53.7684C117.355 53.8483 117.25 53.9663 117.185 54.107C117.121 54.2477 117.101 54.4045 117.127 54.557C117.154 54.7094 117.225 54.8502 117.333 54.9611C117.441 55.072 117.58 55.1478 117.731 55.1784L117.747 55.1816C117.758 55.1837 117.768 55.1858 117.779 55.1879C117.403 55.9805 116.893 56.7025 116.272 57.3221C115.505 58.0715 114.594 58.6565 113.593 59.0411C112.592 59.4257 111.524 59.6019 110.453 59.5588L110.451 59.5588C110.102 60.8084 109.623 62.0183 109.024 63.169L104.534 62.96C104.52 62.9094 104.508 62.8572 104.496 62.8067C104.91 62.8521 105.329 62.8467 105.742 62.7905C105.428 62.3663 105.114 61.9388 104.8 61.5146C104.793 61.5066 104.786 61.4982 104.78 61.4895C104.621 61.2724 104.46 61.0569 104.301 60.8399L104.301 60.8396C104.321 60.198 104.425 59.5617 104.608 58.9465L104.608 58.9464Z" fill="#F2F2F2"/>
<path d="M14.1514 20.1255C14.0367 20.1433 13.9194 20.1255 13.8152 20.0744C13.711 20.0232 13.625 19.9413 13.5689 19.8397C13.5129 19.7381 13.4894 19.6218 13.5016 19.5064C13.5139 19.391 13.5613 19.2821 13.6375 19.1946C13.6456 19.1367 13.6514 19.0951 13.6594 19.0371C13.653 19.0254 13.6466 19.0137 13.6401 19.002C13.4942 18.7404 13.2742 18.5278 13.0078 18.3908C12.7414 18.2538 12.4405 18.1986 12.1428 18.2321C11.8451 18.2656 11.564 18.3863 11.3347 18.5791C11.1054 18.7718 10.9382 19.028 10.854 19.3155C10.5176 20.463 10.0569 21.626 10.0402 22.8024C10.0331 23.3223 10.1162 23.8396 10.2859 24.3312C8.96117 22.1121 8.12908 19.6341 7.84604 17.0652C7.77569 16.4204 7.74144 15.7723 7.74344 15.1238C7.74557 14.5921 7.77105 14.0616 7.81989 13.5324C8.08817 10.6605 9.03386 7.89321 10.5793 5.45778C11.3939 4.8911 12.0151 4.08835 12.3594 3.15769C12.4844 2.82302 12.5603 2.47202 12.5847 2.1156C12.4884 2.13904 12.39 2.15784 12.293 2.17487C12.2628 2.17977 12.2309 2.18486 12.2007 2.18978L12.1892 2.19154C12.0824 2.20804 11.9731 2.1933 11.8744 2.14911C11.7758 2.10491 11.692 2.03314 11.6332 1.94244C11.5744 1.85174 11.543 1.74597 11.5429 1.63787C11.5428 1.52977 11.574 1.42394 11.6326 1.33313C11.6692 1.27664 11.7057 1.22017 11.7423 1.16372C11.7977 1.07668 11.8548 0.991066 11.9101 0.904037C11.9167 0.895626 11.9228 0.886844 11.9283 0.877738C11.9921 0.778443 12.056 0.680757 12.1197 0.581461C11.9626 0.387384 11.7627 0.232234 11.5357 0.128107C10.7504 -0.223972 9.76448 0.186267 9.30385 0.912058C8.84161 1.63801 8.84263 2.58583 9.11913 3.39995C9.37903 4.09002 9.75449 4.73082 10.2294 5.2949C10.1949 5.3505 10.1587 5.40467 10.1242 5.46028C9.49476 6.48095 8.96681 7.56085 8.54798 8.68451C8.54818 7.4767 8.26164 6.2861 7.71193 5.21064C7.16475 4.21215 6.25654 3.41987 5.44277 2.59373C4.46531 1.60142 2.75466 2.26696 2.75297 3.65983C2.75295 3.67331 2.75297 3.68679 2.75302 3.70026C2.86581 3.74865 2.97675 3.80097 3.08585 3.85722C3.22301 3.92874 3.33535 4.04002 3.40818 4.17648C3.48101 4.31294 3.51091 4.46822 3.49398 4.62197C3.47705 4.77572 3.41407 4.92077 3.31329 5.03811C3.21252 5.15546 3.07864 5.23962 2.92921 5.27958L2.91391 5.28368C2.99343 5.66255 3.10163 6.03484 3.23758 6.39731C3.62723 7.40812 4.22149 8.32753 4.98312 9.09791C5.74475 9.86828 6.65731 10.473 7.6636 10.8742C7.72955 10.8994 7.79389 10.9248 7.85966 10.9485C7.48802 12.5294 7.32352 14.1519 7.37031 15.7752C7.40098 16.7326 7.50901 17.686 7.69335 18.626L7.68489 18.5928C7.36514 17.5601 6.69877 16.6693 5.79833 16.071C4.46255 15.1971 2.68981 15.0146 1.27887 14.3488C1.12847 14.2738 0.959754 14.2434 0.792639 14.2612C0.625524 14.279 0.466974 14.3442 0.33569 14.4491C0.204406 14.554 0.105863 14.6943 0.051684 14.8533C-0.00249471 15.0124 -0.0100501 15.1837 0.0299098 15.3469C0.0329643 15.3585 0.0360507 15.3701 0.0391668 15.3817C0.245103 15.4406 0.44717 15.5122 0.644197 15.5962C0.756985 15.6446 0.867929 15.6969 0.977026 15.7531C1.11418 15.8247 1.22653 15.936 1.29935 16.0724C1.37218 16.2089 1.40208 16.3642 1.38515 16.5179C1.36822 16.6717 1.30524 16.8167 1.20446 16.934C1.10369 17.0514 0.969815 17.1356 0.820386 17.1755L0.805073 17.1796C0.794041 17.1824 0.784602 17.1851 0.773587 17.1879C1.19804 17.9558 1.75149 18.6449 2.40972 19.225C3.2211 19.9256 4.16704 20.4531 5.18953 20.7751C6.21203 21.0972 7.28953 21.207 8.35596 21.0978L8.35757 21.0977C8.7836 22.3233 9.33584 23.5014 10.0054 24.6128L14.4733 24.1269C14.484 24.0755 14.4928 24.0227 14.5018 23.9715C14.0911 24.0424 13.6732 24.0629 13.2575 24.0323C13.5448 23.5895 13.8316 23.1434 14.1189 22.7006C14.1255 22.6922 14.1315 22.6834 14.1371 22.6743C14.2826 22.4479 14.4299 22.2228 14.5754 21.9964L14.5754 21.9961C14.515 21.357 14.3725 20.7283 14.1515 20.1256L14.1514 20.1255Z" fill="#F2F2F2"/>
<path d="M75.8795 18.4699C76.1006 18.5307 76.3057 18.6393 76.4804 18.788C76.655 18.9367 76.7949 19.1219 76.8903 19.3305C76.9856 19.5391 77.034 19.7661 77.0321 19.9955C77.0302 20.2248 76.9781 20.451 76.8794 20.658L79.277 23.3236L78.0124 25.1757L74.6795 21.3638C74.3427 21.1749 74.0869 20.869 73.9606 20.5041C73.8342 20.1391 73.8462 19.7406 73.9941 19.3838C74.142 19.0271 74.4156 18.7371 74.7631 18.5686C75.1106 18.4002 75.5078 18.3651 75.8795 18.4699Z" fill="#A0616A"/>
<path d="M98.3255 25.0154C98.1094 24.6635 97.8259 24.3579 97.4914 24.1159C97.1568 23.8739 96.7778 23.7003 96.376 23.6051C95.9743 23.5098 95.5576 23.4949 95.1501 23.561C94.7425 23.6272 94.352 23.7732 94.001 23.9906L86.1158 28.8742L77.6101 21.644L75.4939 23.6144L84.8903 35.8056L97.1028 29.4391C96.8178 29.5876 98.6699 25.5759 98.3255 25.0154Z" fill="#CCCCCC"/>
<path d="M82.7047 41.2533C82.7054 45.1477 81.939 49.004 80.449 52.6021C78.9591 56.2001 76.7749 59.4694 74.0212 62.2231C71.2675 64.9768 67.9982 67.161 64.4002 68.6509C60.8021 70.1409 56.9458 70.9073 53.0514 70.9066C36.6746 70.9066 23.3982 57.6301 23.3982 41.2533C23.3954 38.0678 23.906 34.9026 24.9105 31.8796C26.8826 25.9757 30.6608 20.8411 35.7107 17.2019C40.7607 13.5627 46.8268 11.6031 53.0514 11.6001C58.4198 11.5982 63.6878 13.0542 68.2933 15.8126C72.8987 18.571 76.6687 22.5282 79.2007 27.2619C79.8284 28.4298 80.3761 29.6391 80.8398 30.8813C80.904 31.0543 80.9667 31.2272 81.0276 31.4019V31.4035C81.2994 32.1712 81.5389 32.9531 81.7459 33.7494C82.3845 36.1995 82.7067 38.7213 82.7047 41.2533Z" fill="#3F3D56"/>
<path d="M49.8072 21.247C48.4746 20.5264 46.9951 20.1196 45.4814 20.0576C43.9676 19.9957 42.4598 20.2803 41.0728 20.8896C39.8515 21.4211 38.5656 22.3745 38.1582 24.0962C39.8059 23.1238 41.9388 24.6602 42.3628 27.125L42.2638 27.1523C42.0399 28.8594 42.5398 30.7181 43.5077 31.7766C43.6347 30.6771 44.3577 29.9288 45.0688 29.4613C45.78 28.9938 46.5666 28.6542 47.1094 27.8507C47.7529 26.8981 47.9163 25.506 48.1719 24.2359C48.4275 22.9659 48.9125 21.6009 49.8072 21.247Z" fill="white"/>
<path d="M40.584 35.7744C40.1277 36.4597 39.5181 36.8897 38.9712 37.4251C38.4259 37.9621 37.907 38.687 37.7983 39.6178C37.7291 40.2141 37.8362 40.8204 37.8213 41.4233C37.8065 42.0263 37.6055 42.705 37.1953 42.8549C36.5479 43.0888 36.0536 41.8862 35.3881 41.8022C34.8593 41.7363 34.3832 42.5683 34.5364 43.2898C34.6896 44.0114 35.4095 44.331 35.823 43.8598C36.197 44.4875 35.9334 45.6259 35.3716 45.8186C35.3123 46.214 35.253 46.6077 35.1954 47.0031C33.7753 46.0097 32.3404 44.9998 31.1329 43.5452C29.7899 41.941 28.9569 39.9722 28.7409 37.8913C28.5844 36.2192 28.8166 34.3065 28.049 33.0199C27.4345 31.9903 26.3801 31.7629 25.4312 31.8272C25.2582 31.8387 25.0836 31.8585 24.9106 31.8799C25.4703 30.1992 26.181 28.5726 27.0341 27.0201C27.2272 26.9372 27.4066 26.8256 27.5662 26.6889C28.4493 25.9394 28.8413 24.4221 29.558 23.3727C29.6041 23.3052 29.6519 23.2393 29.7013 23.175C30.4344 22.2179 31.4162 21.7253 32.3651 21.2673C34.4656 20.2476 36.6269 19.2147 38.8444 19.3564L38.2134 19.4173C37.477 21.4799 36.7401 23.5424 36.0026 25.605C35.8906 25.9212 35.7774 26.2381 35.6632 26.5555C35.2448 27.7284 34.8132 28.9772 34.8774 30.2902C34.9153 31.0677 35.1855 31.898 35.6995 32.1649C36.1789 32.412 36.7027 32.1089 37.1656 31.8091C37.3617 31.6839 37.5561 31.5587 37.7521 31.4318C38.4556 30.9788 39.2348 30.5142 39.9778 30.8173C40.6582 31.0941 41.1606 32.0183 41.2562 33.015C41.3438 33.9838 41.1074 34.9543 40.584 35.7744Z" fill="white"/>
<path d="M44.7678 49.8559C42.7133 48.5909 40.6588 47.326 38.6043 46.061L38.6392 45.9712C37.3618 46.4577 36.8315 48.7283 37.0426 50.5852C37.2537 52.4421 37.9695 54.102 38.3311 55.9113C38.8187 58.3872 38.6347 60.9486 37.7981 63.3294C40.4997 60.2981 42.8905 57.0037 44.9347 53.4954C45.2203 53.0533 45.4379 52.5708 45.5802 52.064C45.7108 51.5249 45.6907 50.8768 45.4293 50.4445C45.2611 50.1963 45.0338 49.994 44.7678 49.8559Z" fill="white"/>
<path d="M36.6595 26.8425C36.4413 27.333 36.3574 27.9871 36.5554 28.4946C36.7575 29.0129 37.185 29.2472 37.5785 29.4422L38.7137 30.0049C39.0913 30.1921 39.4984 30.3812 39.8834 30.2271C40.3477 30.0414 40.6697 29.3134 40.5864 28.6376C40.4978 27.9184 40.0445 27.4237 39.6252 27.0025C39.0385 26.4129 38.4518 25.8234 37.8651 25.2339L37.5344 25.6389C37.1768 25.9877 36.8809 26.3947 36.6595 26.8425Z" fill="white"/>
<path d="M76.6194 34.5303C77.1301 34.6505 77.6408 34.7708 78.1515 34.891C78.0625 36.6159 77.2075 38.2122 76.0609 38.7904C75.5832 39.031 75.0511 39.1199 74.6557 39.5697C74.2982 39.9782 74.117 40.6141 73.9506 41.222C73.659 42.2829 73.3674 43.3439 73.0758 44.4048C72.7628 45.5481 72.3609 46.8183 71.547 47.2301C70.8485 47.5843 70.0495 47.151 69.5125 46.4245C68.9754 45.698 68.6476 44.7211 68.3296 43.7689C68.3494 44.8068 67.8667 45.8249 67.1831 46.1856C66.4977 46.5464 65.6641 46.2202 65.2062 45.4147C64.8767 44.8364 64.74 44.0737 64.4171 43.4872C64.0942 42.9007 63.4171 42.5647 63.0646 43.1149C62.8323 43.4806 62.8619 44.0407 62.7466 44.5053C62.567 45.2268 62.0234 45.6799 61.4847 45.7194C60.9476 45.759 60.4238 45.4493 59.974 45.0292C59.0465 44.1593 58.3629 42.7788 58.0976 41.2451C57.9807 40.5614 57.9477 39.8168 58.1504 39.1759C58.353 38.5351 58.8423 38.0409 59.3282 38.1628C59.6478 37.4873 59.0169 36.5912 58.4485 36.6702C57.8785 36.7493 57.4321 37.3605 56.9642 37.83C56.498 38.2995 55.8457 38.6405 55.3761 38.1743C55.3794 38.6076 55.0269 38.8942 54.7221 38.858C54.419 38.8234 54.1488 38.5796 53.8704 38.4066C52.7947 37.7361 51.4289 38.1809 50.6646 39.4494C51.1423 37.4165 51.8424 35.0838 53.3103 34.606C53.9099 34.41 54.564 34.5714 55.1307 34.2321C56.1339 33.6308 56.3366 31.359 55.47 30.4216C55.5804 31.3079 55.559 32.3425 55.0911 32.9487C54.6233 33.555 53.6414 33.1596 53.7007 32.2634C53.5656 32.8812 52.8935 32.9751 52.5838 32.5006C52.2724 32.0262 52.2988 31.2503 52.5195 30.6836C52.7403 30.1168 53.1159 29.7099 53.4799 29.3195C54.2625 28.481 55.0565 27.6326 55.9626 27.1054C56.8703 26.5782 57.9181 26.4003 58.8274 26.9242C59.3068 27.2009 59.7286 27.6622 60.2178 27.906C60.7071 28.1515 61.3282 28.1202 61.6527 27.5469C62.0168 26.9077 61.8455 25.9588 61.9806 25.1598C62.2227 23.748 63.6345 23.0874 64.4171 24.0198C63.8322 23.8699 63.2276 24.5618 63.1551 25.4003C63.081 26.2389 63.5044 27.0856 64.0711 27.3393C65.0233 27.7611 65.9557 26.7001 66.6757 25.7183C67.4269 24.6903 68.1792 23.6629 68.9326 22.636C69.0529 22.4612 69.1879 22.2969 69.3362 22.1451C69.5722 21.9151 69.8867 21.7834 70.2162 21.7766C70.5456 21.7699 70.8653 21.8887 71.1105 22.1088C71.8716 22.7299 72.2291 24.0034 72.8534 24.8798C73.7595 26.1532 75.1153 26.4629 76.3772 26.71C77.3179 26.8929 78.2591 27.0768 79.2009 27.2619C79.8287 28.4298 80.3763 29.6391 80.84 30.8813C79.2453 31.5583 77.7742 32.8252 76.6194 34.5303Z" fill="white"/>
<path d="M79.6603 54.3522C78.9545 55.7853 78.1336 57.1588 77.2057 58.4591C76.6126 58.2054 75.9751 58.6585 75.4199 59.0835C74.84 59.5283 74.1432 59.9616 73.5485 59.5563C72.9406 59.1412 72.7445 57.9798 72.9373 57.0588C73.13 56.1396 73.6111 55.4081 74.0773 54.7129C74.5715 53.9749 75.1003 53.2089 75.7873 52.9222C76.4759 52.6356 77.3605 53.0408 77.5615 54.0194L78.0492 54.0029C77.7757 53.6273 77.919 52.8497 78.2864 52.713C78.7098 52.5532 79.0772 53.1347 79.3275 53.6487C79.4396 53.881 79.5532 54.1149 79.6603 54.3522Z" fill="white"/>
<path d="M60.9844 47.3934C59.9363 47.4593 59.1061 46.169 58.5544 44.8997C58.0027 43.6303 57.4993 42.1787 56.5536 41.5326C56.0132 41.1634 55.3971 41.1127 54.811 40.9338C54.2248 40.7549 53.6113 40.3848 53.3311 39.6309L52.6662 39.3623C51.7882 39.856 50.8985 40.3588 50.1419 41.1622C49.2933 42.0637 48.7647 43.2192 48.6377 44.4507C48.5107 45.7815 48.9797 47.2654 49.856 47.7654C50.5485 48.1604 51.3547 47.9114 52.0561 48.273C52.9324 48.7248 53.4527 50.0374 53.6496 51.3333C53.8466 52.6292 53.7967 53.976 53.9376 55.2866C54.0785 56.5972 54.4668 57.961 55.2705 58.6326C56.2762 59.4731 57.7519 58.7747 58.2031 57.2448C58.4244 56.4943 58.4168 55.6474 58.5823 54.8684C58.8738 53.4965 59.6604 52.4787 60.2844 51.3533C60.9083 50.2279 61.3994 48.6994 60.9844 47.3934Z" fill="white"/>
<path d="M50.6273 33.9123C50.725 34.0023 50.8162 34.0992 50.9002 34.2021C50.9872 34.352 51.0315 34.5227 51.0286 34.6959C51.0256 34.8692 50.9755 35.0383 50.8835 35.1851C51.0097 35.1779 51.1331 35.1447 51.2458 35.0874C51.3586 35.0301 51.4582 34.95 51.5384 34.8523C51.7297 34.6344 51.898 34.3973 52.0406 34.1449C52.1475 33.9706 52.2612 33.7349 52.1886 33.5278C52.1391 33.3865 52.022 33.3263 51.9399 33.22C51.8098 33.0515 51.7776 32.784 51.7103 32.5528C51.5648 32.0535 51.2164 31.6863 50.8382 31.6338L50.8908 31.6438C50.7328 31.698 50.6225 31.9488 50.6574 32.1746C50.6892 32.3802 50.8213 32.5508 50.8082 32.7605C50.7893 33.062 50.488 33.2035 50.4693 33.505C50.4664 33.6563 50.5231 33.8026 50.6273 33.9123Z" fill="white"/>
<path d="M48.8315 28.789C48.8331 28.7886 48.8347 28.7885 48.8362 28.7881C48.8685 28.7587 48.8984 28.7269 48.9256 28.6929L48.8315 28.789Z" fill="#E6E6E6"/>
<path d="M49.1459 30.2044C49.3777 30.0554 49.5071 29.6432 49.4305 29.2983C49.3543 28.9555 49.0848 28.725 48.8363 28.7883C48.7641 28.8614 48.6746 28.915 48.5761 28.944C48.4776 28.973 48.3734 28.9765 48.2731 28.9541C48.1195 28.9145 47.9507 28.8126 47.8175 28.9284C47.7412 29.0149 47.6878 29.1191 47.6622 29.2315C47.6129 29.3829 47.5636 29.5344 47.5142 29.6858C47.4908 29.74 47.4847 29.8001 47.4967 29.8579C47.5062 29.8811 47.5214 29.9015 47.541 29.917C47.5606 29.9326 47.5839 29.9429 47.6086 29.9469C47.9046 30.0341 48.2006 30.1214 48.4966 30.2086C48.7123 30.2722 48.9452 30.3335 49.1459 30.2044Z" fill="white"/>
<path d="M71.4916 49.7424C71.3548 49.5184 71.218 49.2944 71.0811 49.0703C70.9467 48.8109 70.763 48.5802 70.5402 48.3912C70.4913 48.3501 70.4346 48.3193 70.3735 48.3005C70.3124 48.2817 70.2482 48.2753 70.1847 48.2817C70.1211 48.2881 70.0595 48.3071 70.0033 48.3376C69.9472 48.3682 69.8978 48.4096 69.8579 48.4595L69.8746 48.5875C70.1864 48.9788 70.5164 49.4134 70.5955 49.9942C70.6267 50.2231 70.6159 50.46 70.6432 50.69C70.6706 50.9199 70.7483 51.1583 70.8967 51.2575C71.1122 51.4014 71.3651 51.1892 71.5185 50.9302C71.6556 50.7175 71.7171 50.4649 71.6931 50.213C71.6589 50.044 71.5903 49.8838 71.4916 49.7424Z" fill="white"/>
<path d="M77.5811 41.1868C77.6206 40.9273 77.6602 40.6679 77.6998 40.4084C77.764 40.1233 77.772 39.8285 77.7233 39.5404C77.7123 39.4775 77.6887 39.4174 77.6541 39.3637C77.6195 39.31 77.5745 39.2638 77.5218 39.2277C77.4691 39.1916 77.4096 39.1665 77.347 39.1537C77.2844 39.1409 77.2199 39.1408 77.1573 39.1533L77.0876 39.262C77.0742 39.7621 77.0468 40.3072 76.7333 40.8024C76.6098 40.9976 76.4489 41.1719 76.3217 41.3654C76.1946 41.559 76.1005 41.7914 76.1502 41.9629C76.2224 42.2117 76.5526 42.2123 76.8367 42.1129C77.0785 42.0385 77.2882 41.8848 77.4321 41.6766C77.5148 41.5253 77.5655 41.3586 77.5811 41.1868Z" fill="#E6E6E6"/>
<path d="M73.6379 50.0336C73.7048 49.8413 73.6083 49.6208 73.5879 49.4082C73.5781 49.1337 73.6508 48.8625 73.7968 48.6298C73.9417 48.4103 74.0516 48.1695 74.1223 47.9161C74.1521 47.8007 74.1467 47.6789 74.1067 47.5666C74.0614 47.4649 73.9517 47.4184 73.8888 47.499L74.0235 47.5857C73.8416 47.5533 73.6548 47.5623 73.477 47.6122C73.3755 47.651 73.2849 47.7137 73.2128 47.795C73.1407 47.8763 73.0893 47.9737 73.0628 48.0791C73.0406 48.2434 73.0042 48.4054 72.9542 48.5635C72.8739 48.7286 72.7184 48.7835 72.6207 48.9284C72.5541 49.0569 72.5204 49.1999 72.5228 49.3446C72.5252 49.4893 72.5636 49.6311 72.6344 49.7573C72.7571 49.9637 72.9522 50.1171 73.1817 50.1877C73.3462 50.2467 73.5627 50.2498 73.6379 50.0336Z" fill="white"/>
<path d="M77.4604 51.187C77.5199 51.3417 77.5995 51.4878 77.6973 51.6217C77.8803 51.806 78.129 51.6927 78.351 51.6479C78.5524 51.6161 78.7587 51.6394 78.948 51.7153C79.1373 51.7912 79.3025 51.917 79.4262 52.0792C79.3401 51.6498 79.1522 51.2474 78.8783 50.9056C78.6044 50.5639 78.2525 50.2929 77.8522 50.1154C77.3288 49.9021 76.7777 49.8815 76.2334 49.8623L76.1394 49.8864C76.3789 50.5837 77.1312 50.5681 77.4604 51.187Z" fill="white"/>
<path d="M61.2712 52.6131L61.2726 52.6161C61.2818 52.5986 61.2909 52.581 61.3 52.5635L61.2712 52.6131Z" fill="#E6E6E6"/>
<path d="M60.6913 53.7356C60.5648 53.9652 60.4561 54.2041 60.366 54.4502C60.2467 54.8489 60.1677 55.2585 60.1302 55.673C60.1007 55.9086 60.0916 56.2096 60.2393 56.3244C60.2817 56.3526 60.3329 56.3643 60.3833 56.3575C60.4337 56.3506 60.4799 56.3257 60.5133 56.2872C60.5953 56.2004 60.6624 56.1007 60.7119 55.992C61.0021 55.4922 61.2274 54.9575 61.3823 54.4008C61.5237 53.8143 61.5223 53.1239 61.2725 52.6162C61.0788 52.9893 60.885 53.3625 60.6913 53.7356Z" fill="white"/>
<path d="M55.0974 23.8327C55.1895 23.9227 55.3059 23.9838 55.4323 24.0085C55.5588 24.0332 55.6897 24.0203 55.8089 23.9715C56.0557 23.8636 56.2822 23.714 56.4783 23.5293C56.6407 23.4091 56.7785 23.2588 56.8841 23.0866C56.9423 22.9837 56.9796 22.8703 56.9938 22.7529C57.0081 22.6355 56.999 22.5165 56.9671 22.4027C56.8754 22.1345 56.6428 22.0447 56.4376 21.9838C56.1091 21.8864 55.7805 21.7889 55.452 21.6915L55.6896 21.4773C55.4451 21.3461 55.1746 21.5896 55.0217 21.8912C54.9237 22.0881 54.8554 22.2984 54.819 22.5153C54.7372 22.9886 54.8172 23.5522 55.0974 23.8327Z" fill="#E6E6E6"/>
<path d="M60.8977 21.8852C60.9903 21.9873 61.1183 22.0503 61.2557 22.0615C61.393 22.0727 61.5295 22.0311 61.6374 21.9454C61.7303 21.8756 61.8074 21.7871 61.8638 21.6856C61.9202 21.584 61.9545 21.4718 61.9646 21.3561C61.9879 21.0976 61.8601 20.8104 61.6776 20.7881L61.7193 20.5461C61.3678 20.4826 60.9352 20.4699 60.7468 20.8969C60.6832 21.0604 60.6637 21.2377 60.6902 21.4112C60.7167 21.5846 60.7882 21.7481 60.8977 21.8852Z" fill="#E6E6E6"/>
<path d="M60.123 9.01855C58.0619 8.78606 55.993 9.38184 54.3712 10.6748C52.7495 11.9678 51.7078 13.852 51.4753 15.9131C50.9912 20.2049 53.2522 29.5248 57.3747 33.3828C59.3157 25.9911 66.1175 21.6068 67.0175 17.6662C67.9791 13.4556 64.4148 9.50267 60.123 9.01855Z" fill="#8D8DF7"/>
<path d="M58.6975 18.5595C60.106 18.5595 61.2479 17.4176 61.2479 16.009C61.2479 14.6004 60.106 13.4585 58.6975 13.4585C57.2889 13.4585 56.147 14.6004 56.147 16.009C56.147 17.4176 57.2889 18.5595 58.6975 18.5595Z" fill="white"/>
<path d="M56.0157 37.0603C56.9383 37.0603 57.6862 36.3123 57.6862 35.3897C57.6862 34.4672 56.9383 33.7192 56.0157 33.7192C55.0931 33.7192 54.3452 34.4672 54.3452 35.3897C54.3452 36.3123 55.0931 37.0603 56.0157 37.0603Z" fill="#8D8DF7"/>
<path opacity="0.2" d="M60.8077 14.1818C61.0948 14.3543 61.345 14.5817 61.5443 14.8509C61.7435 15.1202 61.8877 15.426 61.9687 15.751C62.0497 16.076 62.066 16.4137 62.0165 16.745C61.9669 17.0762 61.8527 17.3945 61.6802 17.6816C61.5076 17.9687 61.2803 18.219 61.0111 18.4182C60.7418 18.6174 60.436 18.7616 60.111 18.8426C59.4547 19.0063 58.7602 18.9025 58.1804 18.5541C58.7716 18.6856 59.3902 18.6024 59.9257 18.3194C60.4611 18.0365 60.8784 17.5722 61.1028 17.0097C61.3272 16.4472 61.344 15.8232 61.1504 15.2494C60.9568 14.6756 60.5652 14.1894 60.0459 13.8779C60.3145 13.9375 60.5718 14.0401 60.8077 14.1818Z" fill="#231F20"/>
<path opacity="0.2" d="M67.0275 17.6741C66.1275 21.6147 59.3257 25.999 57.3847 33.3907C56.997 33.0244 56.6369 32.6299 56.3074 32.2105C58.4886 25.2625 64.867 21.0407 65.7365 17.2334C66.5148 13.8257 64.3286 10.5873 61.1917 9.21924C64.989 10.1738 67.9088 13.8155 67.0275 17.6741Z" fill="#231F20"/>
<path d="M36.2223 18.9701C34.6746 18.7955 33.1209 19.243 31.903 20.2139C30.6851 21.1849 29.9028 22.5999 29.7282 24.1477C29.3647 27.3707 31.0627 34.3696 34.1585 37.2669C35.6161 31.716 40.724 28.4235 41.3999 25.4642C42.1221 22.3022 39.4454 19.3337 36.2223 18.9701Z" fill="#8D8DF7"/>
<path d="M35.1519 26.1353C36.2097 26.1353 37.0672 25.2778 37.0672 24.22C37.0672 23.1622 36.2097 22.3047 35.1519 22.3047C34.0941 22.3047 33.2366 23.1622 33.2366 24.22C33.2366 25.2778 34.0941 26.1353 35.1519 26.1353Z" fill="white"/>
<path d="M33.138 40.0285C33.8309 40.0285 34.3925 39.4669 34.3925 38.774C34.3925 38.0812 33.8309 37.5195 33.138 37.5195C32.4452 37.5195 31.8835 38.0812 31.8835 38.774C31.8835 39.4669 32.4452 40.0285 33.138 40.0285Z" fill="#8D8DF7"/>
<path opacity="0.2" d="M36.7366 22.8474C36.9522 22.9769 37.1402 23.1476 37.2898 23.3498C37.4394 23.552 37.5477 23.7817 37.6086 24.0258C37.6694 24.2698 37.6816 24.5234 37.6444 24.7722C37.6072 25.021 37.5214 25.2599 37.3919 25.4755C37.2623 25.6911 37.0916 25.8791 36.8894 26.0287C36.6872 26.1783 36.4575 26.2866 36.2135 26.3475C35.9694 26.4083 35.7158 26.4205 35.467 26.3833C35.2183 26.3461 34.9793 26.2603 34.7637 26.1308C35.2076 26.2295 35.6722 26.167 36.0743 25.9546C36.4764 25.7421 36.7897 25.3934 36.9582 24.971C37.1267 24.5486 37.1394 24.08 36.994 23.6491C36.8486 23.2182 36.5546 22.8531 36.1646 22.6191C36.3663 22.6639 36.5595 22.7409 36.7366 22.8474Z" fill="#231F20"/>
<path opacity="0.2" d="M41.4074 25.4704C40.7315 28.4297 35.6236 31.7221 34.1659 37.2731C33.8748 36.998 33.6044 36.7017 33.3569 36.3867C34.9949 31.169 39.7849 27.9986 40.4379 25.1394C41.0224 22.5804 39.3806 20.1484 37.0249 19.1211C39.8765 19.8379 42.0692 22.5727 41.4074 25.4704Z" fill="#231F20"/>
<path d="M96.1869 88.3536H94.084L93.0835 80.2422L96.1873 80.2423L96.1869 88.3536Z" fill="#A0616A"/>
<path d="M97.3182 92.3465H95.826L95.5596 90.9377L94.8775 92.3465H90.9197C90.73 92.3465 90.5453 92.2859 90.3925 92.1735C90.2397 92.061 90.1268 91.9027 90.0703 91.7216C90.0139 91.5405 90.0168 91.3461 90.0787 91.1667C90.1405 90.9874 90.2581 90.8325 90.4142 90.7247L93.5747 88.542V87.1177L96.899 87.3161L97.3182 92.3465Z" fill="#2F2E41"/>
<path d="M88.0416 88.3536H85.9387L84.9382 80.2422L88.0421 80.2423L88.0416 88.3536Z" fill="#A0616A"/>
<path d="M89.1729 92.3465H87.6807L87.4144 90.9377L86.7322 92.3465H82.7745C82.5848 92.3465 82.4 92.2859 82.2472 92.1735C82.0944 92.061 81.9815 91.9027 81.9251 91.7216C81.8686 91.5405 81.8715 91.3461 81.9334 91.1667C81.9953 90.9874 82.1128 90.8325 82.2689 90.7247L85.4295 88.542V87.1177L88.7538 87.3161L89.1729 92.3465Z" fill="#2F2E41"/>
<path d="M80.0523 66.9377C80.4548 67.5413 84.8328 84.1357 84.8328 84.1357L88.7148 84.5784L88.254 80.4032L87.5497 73.0145L86.4591 68.0826C86.4591 68.0826 90.3104 59.3176 90.5539 58.6193L90.7269 58.1183L91.9302 69.0384C92.0732 69.4283 92.1355 69.8431 92.1133 70.2578C92.0771 70.9399 92.7612 81.202 92.7612 81.202L93.0902 84.8823L96.4161 85.3443L97.7655 78.9765C98.8923 76.908 98.2464 69.5575 97.7856 68.8734C97.3249 68.1892 97.508 63.4244 97.508 63.4244C98.0964 63.2173 101.605 51.2525 99.8501 51.3231C99.9628 50.6853 100.051 50.1158 100.051 50.1158L97.0049 47.659L89.3808 45.677L87.4573 44.7534C87.4573 44.7534 84.0219 51.1059 84.0561 51.4218C84.1034 51.8219 84.0118 52.2261 83.7965 52.5667L80.328 64.1749C80.328 64.1749 79.6459 66.328 80.0523 66.9377Z" fill="#2F2E41"/>
<path d="M99.2067 25.3989L97.9938 22.8237L93.8657 22.9824L92.5191 25.6615C92.5191 25.6615 88.671 30.2577 88.5464 31.7522C88.3898 33.6319 89.6917 42.8443 88.3898 42.2471C88.3898 42.2471 85.3205 45.8499 87.1367 45.8499C88.9528 45.8499 97.1683 51.0071 97.7074 51.587C98.2464 52.167 100.653 52.5431 100.451 51.3323C100.249 50.1215 99.2067 43.5733 99.2067 43.5733L102.029 33.2768C102.841 31.0538 103.094 28.5603 101.258 27.0671L99.2067 25.3989Z" fill="#CCCCCC"/>
<path d="M83.9156 17.8192C83.3634 17.6 82.7735 17.4917 82.1795 17.5005C81.5855 17.5093 80.999 17.635 80.4536 17.8705C79.9082 18.1059 79.4144 18.4465 79.0006 18.8728C78.5868 19.299 78.261 19.8026 78.0419 20.3548C77.1201 22.677 76.9673 28.2226 78.6827 31.0019C80.8883 27.1706 85.3506 25.7559 86.4512 23.6929C87.6273 21.4885 86.2378 18.741 83.9156 17.8192Z" fill="#8D8DF7"/>
<path d="M82.0586 22.9805C82.8734 22.9805 83.534 22.32 83.534 21.5052C83.534 20.6903 82.8734 20.0298 82.0586 20.0298C81.2438 20.0298 80.5833 20.6903 80.5833 21.5052C80.5833 22.32 81.2438 22.9805 82.0586 22.9805Z" fill="white"/>
<path d="M77.6197 32.8824C78.1534 32.8824 78.586 32.4497 78.586 31.916C78.586 31.3823 78.1534 30.9497 77.6197 30.9497C77.086 30.9497 76.6533 31.3823 76.6533 31.916C76.6533 32.4497 77.086 32.8824 77.6197 32.8824Z" fill="#8D8DF7"/>
<path opacity="0.2" d="M83.5141 20.8053C83.7844 21.0879 83.9314 21.4662 83.9229 21.8571C83.9144 22.2481 83.7511 22.6197 83.4688 22.8902C83.1865 23.1608 82.8083 23.3082 82.4173 23.3001C82.0264 23.292 81.6546 23.129 81.3838 22.847C81.6938 23.0102 82.0518 23.0577 82.3936 22.981C82.7354 22.9043 83.0388 22.7085 83.2495 22.4286C83.4601 22.1487 83.5643 21.8029 83.5433 21.4533C83.5223 21.1036 83.3776 20.7727 83.135 20.52C83.2759 20.594 83.4039 20.6904 83.5141 20.8053Z" fill="#231F20"/>
<path opacity="0.2" d="M86.4556 23.6992C85.355 25.7621 80.8927 27.1768 78.6871 31.0082C78.5263 30.7448 78.3851 30.47 78.2649 30.1858C80.5372 26.6386 84.7385 25.2503 85.8019 23.2571C86.7537 21.4732 86.025 19.3336 84.4817 18.0938C86.4564 19.2031 87.5333 21.6791 86.4556 23.6992Z" fill="#231F20"/>
<path d="M77.184 31.5836C77.4087 31.5373 77.6407 31.5408 77.8639 31.5939C78.087 31.6469 78.2958 31.7483 78.4755 31.8908C78.6553 32.0333 78.8016 32.2135 78.9041 32.4186C79.0067 32.6238 79.063 32.8489 79.0691 33.0782L82.4163 34.363L82.1316 36.5875L77.4303 34.7067C77.0444 34.6915 76.6775 34.5353 76.3992 34.2676C76.1208 33.9999 75.9503 33.6395 75.9199 33.2545C75.8896 32.8695 76.0015 32.4868 76.2345 32.1788C76.4675 31.8709 76.8053 31.6591 77.184 31.5836L77.184 31.5836Z" fill="#A0616A"/>
<path d="M100.571 26.9991C100.219 26.7839 99.8276 26.6405 99.4196 26.5769C99.0116 26.5134 98.5951 26.531 98.194 26.6288C97.7928 26.7266 97.4149 26.9026 97.0819 27.1467C96.749 27.3909 96.4675 27.6984 96.2536 28.0516L91.4492 35.9853L80.5868 33.4105L79.5972 36.1273L93.5076 42.7165L100.553 31.4952C101.608 30.0129 102.124 27.9471 100.571 26.9991Z" fill="#CCCCCC"/>
<path d="M100.751 17.2765C100.751 18.0411 100.563 18.7942 100.205 19.4695C99.8461 20.1448 99.3271 20.7217 98.6934 21.1497C98.0597 21.5776 97.3306 21.8434 96.5702 21.9238C95.8098 22.0042 95.0412 21.8966 94.3321 21.6107C93.6229 21.3247 92.9948 20.869 92.5028 20.2836C92.0109 19.6982 91.6702 19.0009 91.5106 18.2531C91.351 17.5053 91.3774 16.7297 91.5875 15.9945C91.7977 15.2593 92.1851 14.5869 92.7157 14.0363L92.7381 14.0139C92.7755 13.9747 92.8129 13.9354 92.8521 13.898C92.8524 13.898 92.8526 13.898 92.8529 13.8979C92.8531 13.8978 92.8533 13.8977 92.8535 13.8975C92.8536 13.8973 92.8538 13.8971 92.8539 13.8969C92.854 13.8967 92.854 13.8964 92.854 13.8962C92.9026 13.8513 92.9512 13.8065 93.0016 13.7635C93.6766 13.1717 94.5079 12.787 95.396 12.6554C96.284 12.5238 97.1911 12.651 98.0087 13.0217C98.8263 13.3923 99.5198 13.9908 100.006 14.7454C100.492 15.5 100.751 16.3787 100.751 17.2765V17.2765Z" fill="#2F2E41"/>
<path d="M94.9285 22.2744C97.0919 22.2744 98.8457 20.5206 98.8457 18.3572C98.8457 16.1937 97.0919 14.4399 94.9285 14.4399C92.765 14.4399 91.0112 16.1937 91.0112 18.3572C91.0112 20.5206 92.765 22.2744 94.9285 22.2744Z" fill="#9E616A"/>
<path d="M99.0882 19.4742L98.4392 19.3595C98.0765 19.2936 97.7427 19.1185 97.4822 18.8577C97.2217 18.5969 97.0471 18.2628 96.9817 17.9001L96.3484 18.9614L96.3207 18.9706C94.8118 19.4716 93.2419 19.3218 91.5222 18.5132C91.0306 18.2799 90.5536 18.0169 90.094 17.7257L90.06 17.7045L90.0573 17.6646C89.9696 16.3903 90.2555 15.3257 90.8626 14.667C91.0957 14.4191 91.3786 14.2233 91.6926 14.0924C92.0067 13.9615 92.3448 13.8984 92.685 13.9073C92.7092 13.901 92.7314 13.8887 92.7497 13.8716C92.7584 13.8652 92.7671 13.8588 92.7758 13.8528V13.8462L92.8208 13.825C92.9175 13.7796 93.016 13.7361 93.1145 13.6963C93.8896 13.3963 94.7337 13.321 95.5496 13.4791C96.3656 13.6373 97.1204 14.0225 97.7273 14.5904C98.9339 15.7424 99.4873 17.6755 99.1045 19.401L99.0882 19.4742Z" fill="#2F2E41"/>
<path d="M107.35 22.8119C106.017 22.1238 107.732 19.6267 107.387 18.1667C107.043 16.7067 104.562 16.2371 104.404 14.7453C104.246 13.2535 103.874 11.7149 102.89 10.583C102.261 9.85966 101.334 9.32568 100.38 9.41628C100.057 9.44693 99.7442 9.54681 99.4634 9.70912C99.1826 9.87143 98.9401 10.0923 98.7524 10.3568C98.5647 10.6213 98.4362 10.9231 98.3756 11.2418C98.3151 11.5604 98.3239 11.8883 98.4015 12.2032C98.1298 11.8183 97.4267 11.9017 97.2526 12.3396C97.0979 12.7289 97.4397 13.2004 97.842 13.2349C98.3684 13.8849 98.9711 14.5748 99.7958 14.706C99.9272 14.7361 100.064 14.7361 100.195 14.7057C100.326 14.6754 100.449 14.6156 100.554 14.5309C100.748 14.3446 100.763 13.9721 100.533 13.8329C101.569 14.2446 102.177 15.3651 102.331 16.4696C102.484 17.574 102.272 18.6915 102.132 19.7978C101.991 20.9041 101.931 22.0679 102.365 23.0952C102.877 24.309 104.057 25.1789 105.345 25.4579C106.633 25.7369 108.004 25.4642 109.169 24.8499C110.335 24.2355 111.307 23.2977 112.101 22.2462C110.733 23.2174 108.841 23.5813 107.35 22.8119Z" fill="#2F2E41"/>
<path d="M98.9215 19.3653C98.9215 19.3653 97.7611 15.0339 92.7869 14.0342C92.7813 14.0324 92.7627 14.0249 92.7384 14.0137C92.7234 14.0044 92.7047 13.995 92.686 13.9857C92.7421 13.9539 92.7963 13.9259 92.8523 13.8978C92.8526 13.8978 92.8528 13.8978 92.8531 13.8977C92.8533 13.8976 92.8535 13.8975 92.8537 13.8973C92.8538 13.8971 92.854 13.8969 92.8541 13.8967C92.8542 13.8965 92.8542 13.8962 92.8542 13.896C92.9028 13.8511 92.9514 13.8063 93.0018 13.7633L93.1438 13.7689C93.1438 13.7689 98.1348 12.9785 98.9215 19.3653Z" fill="#FD6584"/>
<path opacity="0.2" d="M96.3235 33.2637L93.5141 36.5185L88.8721 35.1477L93.9327 37.4798L96.3235 33.2637Z" fill="black"/>
<path d="M113.186 92.5918L69.9924 92.6399C69.943 92.6398 69.8957 92.6201 69.8608 92.5851C69.826 92.5501 69.8064 92.5028 69.8064 92.4534C69.8064 92.404 69.826 92.3567 69.8608 92.3217C69.8957 92.2867 69.943 92.267 69.9924 92.2669L113.186 92.2188C113.235 92.2188 113.283 92.2384 113.318 92.2734C113.353 92.3083 113.372 92.3558 113.372 92.4053C113.372 92.4547 113.353 92.5022 113.318 92.5371C113.283 92.5721 113.235 92.5918 113.186 92.5918Z" fill="#CACACA"/>
<path d="M115.082 63.607C113.059 63.607 110.842 63.5306 108.431 63.3777C95.9607 62.5858 79.8074 59.8325 62.9469 55.6253C46.0865 51.418 30.5333 46.2591 19.1526 41.0993C13.6087 38.5857 9.35376 36.2065 6.50616 34.0274C3.4913 31.7206 2.17255 29.7098 2.58641 28.0511C3.39279 24.8198 10.5329 24.1129 16.3808 24.0889L16.3828 24.5588C8.35212 24.5918 3.61444 25.8725 3.04242 28.165C2.31375 31.0848 8.25644 35.6431 19.3466 40.6713C30.7023 45.8198 46.2269 50.9687 63.0607 55.1694C79.8944 59.3699 96.018 62.1185 108.461 62.9087C120.613 63.6806 128.001 62.4486 128.73 59.5287C129.335 57.1045 125.347 53.5333 117.5 49.4727L117.716 49.0554C123.417 52.0059 130.035 56.2376 129.186 59.6425C128.772 61.3012 126.663 62.4566 122.918 63.0765C120.783 63.4299 118.161 63.607 115.082 63.607Z" fill="#8D8DF7"/>
</g>
<defs>
<clipPath id="clip0_346_9249">
<rect width="129.26" height="92.64" fill="white"/>
</clipPath>
</defs>
</svg>
